<?xml version="1.0" standalone="no"?>
<svg xmlns="http://www.w3.org/2000/svg" viewBox="0 0 1440 320">
  <path fill="#000000" fill-opacity="0.025" d="M0,128L48,133.3C96,139,192,149,288,138.7C384,128,480,96,576,117.3C672,139,768,213,864,224C960,235,1056,181,1152,149.3C1248,117,1344,107,1392,101.3L1440,96L1440,0L1392,0C1344,0,1248,0,1152,0C1056,0,960,0,864,0C768,0,672,0,576,0C480,0,384,0,288,0C192,0,96,0,48,0L0,0Z"></path>

  <path fill="#000000" fill-opacity="0.02" d="M0,256L48,218.7C96,181,192,107,288,96C384,85,480,139,576,149.3C672,160,768,128,864,101.3C960,75,1056,53,1152,85.3C1248,117,1344,203,1392,245.3L1440,288L1440,0L1392,0C1344,0,1248,0,1152,0C1056,0,960,0,864,0C768,0,672,0,576,0C480,0,384,0,288,0C192,0,96,0,48,0L0,0Z"></path>

</svg>