<svg xmlns="http://www.w3.org/2000/svg" viewBox="0 0 500 500"><g id="freepik--background-complete--inject-2"><path d="M416.06,221.3c4.86-2.68,9.06-6.86,10.87-12.11a18.5,18.5,0,0,0-3.66-17.34c-7.34-8.06-15.92-8.51-24.59-3.45-8.14,4.74-14.22,13-15.26,22.36-.58,5.19.56,11.18,4.94,14,3.41,2.21,7.83,1.93,11.85,1.33C405.7,225.29,411.2,224,416.06,221.3Z" style="fill:#ebebeb"></path><path d="M385.4,221.54a11.41,11.41,0,0,0-3.39.51c-.35.12-.73.31-.82.67a.82.82,0,0,0,.59.92,2.4,2.4,0,0,0,1.19,0,10.06,10.06,0,0,0,.42,2,1,1,0,0,0,.52.71.74.74,0,0,0,.68-.15c.18-.15.87-.29,1-.5.51-.9.36-1.93.65-2.93" style="fill:#ebebeb"></path><path d="M383.26,223.37c-.11-.09.24-.66.94-1s1.36-.38,1.38-.24-.52.35-1.13.69S383.37,223.47,383.26,223.37Z" style="fill:#e0e0e0"></path><path d="M384.5,223.65c-.13-.05-.07-.53.28-1s.79-.65.88-.53-.17.45-.46.85S384.64,223.7,384.5,223.65Z" style="fill:#e0e0e0"></path><path d="M128.83,210.26C126.9,201,122.19,192,114.54,186.4s-20.5-7.31-30.15-2.76c-16.84,7.93-21.9,21.7-18,38.4,3.65,15.68,14,29.76,28.81,36.18,8.18,3.56,18.53,4.71,25.39-1,5.33-4.45,7.1-11.8,8.13-18.67C130.12,229.17,130.75,219.54,128.83,210.26Z" style="fill:#ebebeb"></path><path d="M113.78,260.42a19,19,0,0,0-.88,5.79,2,2,0,0,0,.67,1.67,1.43,1.43,0,0,0,1.81-.5,4.21,4.21,0,0,0,.64-1.94,16.17,16.17,0,0,0,3.4.3,1.73,1.73,0,0,0,1.42-.48,1.24,1.24,0,0,0,.1-1.18c-.15-.38,0-1.57-.31-1.87-1.22-1.29-3-1.57-4.47-2.54" style="fill:#ebebeb"></path><path d="M115.68,264.82c-.11.08-.79-.79-1.05-2.08a3.33,3.33,0,0,1,.13-2.34,16.11,16.11,0,0,1,.38,2.23A16.17,16.17,0,0,1,115.68,264.82Z" style="fill:#e0e0e0"></path><path d="M116.76,262.94c-.08.11-.76-.28-1.32-1.06s-.71-1.55-.57-1.59.49.58,1,1.29S116.86,262.82,116.76,262.94Z" style="fill:#e0e0e0"></path><path d="M128.55,134.42c3.78-6.64,5.72-14.57,4.09-22S124.15,97,115.89,94.64c-14.41-4.19-24.8,1.43-31.36,13.6-6.16,11.41-7.38,25.47-1.89,37.22,3,6.51,8.69,12.73,15.88,12.93,5.59.16,10.58-3.34,14.87-6.94C119.24,146.54,124.76,141.06,128.55,134.42Z" style="fill:#f5f5f5"></path><path d="M92.71,156.7a15.09,15.09,0,0,0-3.62,3,1.59,1.59,0,0,0-.49,1.36,1.16,1.16,0,0,0,1.36.67,3.28,3.28,0,0,0,1.42-.84,13.31,13.31,0,0,0,1.9,2,1.43,1.43,0,0,0,1.12.46,1.56,1.56,0,0,0,.32-.06c1.17-.24,1.18-1.56,1.17-1.89,0-1.43-1-2.54-1.34-3.92" style="fill:#f5f5f5"></path><path d="M91.51,160.38c-.14,0-.1-.91.43-1.85s1.29-1.42,1.37-1.31-.44.72-.92,1.57S91.65,160.41,91.51,160.38Z" style="fill:#e0e0e0"></path><path d="M93.17,159.82c-.14,0-.37-.58-.29-1.35s.42-1.32.55-1.26,0,.62,0,1.31S93.31,159.79,93.17,159.82Z" style="fill:#e0e0e0"></path><path d="M362.87,458.56c-.68-2.72,1.11-5.42,3.11-7.37s4.39-3.7,5.44-6.29c1.7-4.2-.53-9.66,2.35-13.15,1.7-2.06,4.72-2.73,6.23-4.93a11.14,11.14,0,0,0,1.36-3.93,40,40,0,0,1,10.07-18.58,34.86,34.86,0,0,1-4,17.94c-1.17,2.2-2.61,4.34-3,6.8-.64,4,1.57,8.13.56,12.05-1.15,4.48-6.21,7.46-6.47,12.08-.23,3.91,3.16,7.36,2.88,11.26a10.51,10.51,0,0,1-1.76,4.62c-3.05,5-7.51,8.45-14.24,8.29l-8.24.25Z" style="fill:#f5f5f5"></path><path d="M355.47,477.8a6.56,6.56,0,0,1-2.27-.06,13.34,13.34,0,0,1-2.67-.69,11.33,11.33,0,0,1-3.3-1.83,4.58,4.58,0,0,1-1.35-1.82,8.22,8.22,0,0,1-.37-2.46,24.77,24.77,0,0,0-.18-2.67,7.63,7.63,0,0,0-1-2.66c-1-1.71-2.57-3.33-3.08-5.65s-.13-4.75.27-7.23.78-5.16-.15-7.74-2.66-4.92-3.55-7.83-.45-6.09-.62-9.21a12.23,12.23,0,0,0-1-4.58c-.65-1.46-1.57-2.84-2.29-4.38-1.44-3.11-1.68-6.63-2.06-10.08-.18-1.74-.37-3.5-.56-5.27a25.57,25.57,0,0,0-.89-5.28,44.87,44.87,0,0,0-1.94-5.11,17.54,17.54,0,0,1-.94-2.67,25,25,0,0,1-.25-2.83,34.17,34.17,0,0,1,.25-5.71c.24-1.9.59-3.78.81-5.68l0-.33.05-.38.34.17a12.66,12.66,0,0,1,4.41,3.77,20.26,20.26,0,0,1,2.7,5c1.35,3.54,1.83,7.26,2.5,10.8a29.38,29.38,0,0,0,3.33,10c.9,1.47,2,2.82,2.93,4.25a11.62,11.62,0,0,1,2,4.71c.47,3.49-1.47,6.54-1.09,9.63A10.76,10.76,0,0,0,347,428.3c.74,1.32,1.61,2.54,2.44,3.77a24.29,24.29,0,0,1,2.19,3.82,11.94,11.94,0,0,1,1,4.14c.18,2.78-.22,5.41,0,7.9a18.28,18.28,0,0,0,2,6.78c1,2,2.08,3.88,3,5.66.46.89.89,1.76,1.24,2.63a13.72,13.72,0,0,1,.71,2.61,16.55,16.55,0,0,1,0,4.71,11.92,11.92,0,0,1-2.39,6,6,6,0,0,1-.67.72,3.33,3.33,0,0,1-.55.46l-.47.32a10,10,0,0,0,1.6-1.57,11.84,11.84,0,0,0,2.28-5.94,16.55,16.55,0,0,0-.08-4.64,12.54,12.54,0,0,0-.72-2.55,26.36,26.36,0,0,0-1.24-2.59c-.93-1.77-2-3.6-3-5.65a18.48,18.48,0,0,1-2.07-6.9c-.2-2.55.2-5.19,0-7.9a11.5,11.5,0,0,0-1-4,24,24,0,0,0-2.16-3.74c-.83-1.22-1.71-2.46-2.48-3.8a11.08,11.08,0,0,1-1.54-4.46c-.38-3.29,1.54-6.37,1.07-9.61a11.24,11.24,0,0,0-1.95-4.5c-.94-1.41-2-2.76-2.95-4.27a30,30,0,0,1-3.41-10.15c-.68-3.57-1.15-7.24-2.48-10.72a19.79,19.79,0,0,0-2.63-4.9,12.22,12.22,0,0,0-4.23-3.62l.38-.21,0,.34c-.22,1.92-.57,3.81-.8,5.69a32,32,0,0,0-.25,5.61c.05.92.1,1.89.23,2.76a18.33,18.33,0,0,0,.91,2.57,46.11,46.11,0,0,1,2,5.17,26.34,26.34,0,0,1,.9,5.36c.19,1.77.37,3.53.55,5.27.38,3.47.62,6.93,2,9.94.69,1.49,1.6,2.88,2.28,4.39a12.78,12.78,0,0,1,1.08,4.75c.16,3.18-.27,6.29.57,9.11s2.62,5.16,3.52,7.82.53,5.47.13,7.93-.83,4.9-.31,7.09,2,3.83,3,5.59a7.45,7.45,0,0,1,1,2.76,23.21,23.21,0,0,1,.16,2.7,8.21,8.21,0,0,0,.34,2.39,4.41,4.41,0,0,0,1.26,1.75,11.6,11.6,0,0,0,3.22,1.83,14.25,14.25,0,0,0,2.64.74,12.38,12.38,0,0,0,1.67.17Z" style="fill:#e0e0e0"></path><path d="M330,380.57a.9.9,0,0,1,.08.25l.18.75c.16.65.35,1.63.65,2.85s1.06,2.61,1.69,4.32,1.31,3.65,1.92,5.85,1.16,4.65,1.73,7.27a30.46,30.46,0,0,0,2.59,8.06c.67,1.34,1.42,2.7,2,4.19a19.61,19.61,0,0,1,1.16,4.73,91.51,91.51,0,0,0,1.72,10c1.61,6.76,3.15,13.2,4.55,19.07l3.81,15.55c1.06,4.4,1.93,8,2.53,10.5l.66,2.86c.07.3.12.55.16.74a.74.74,0,0,1,0,.26s0-.08-.09-.24-.12-.44-.21-.74c-.18-.69-.44-1.63-.76-2.83-.64-2.51-1.56-6.08-2.69-10.46s-2.45-9.69-3.93-15.52l-4.59-19.08a95.56,95.56,0,0,1-1.72-10,19.38,19.38,0,0,0-1.11-4.62c-.58-1.45-1.32-2.8-2-4.15A30.85,30.85,0,0,1,335.8,402c-.55-2.63-1.07-5.06-1.66-7.26s-1.22-4.15-1.84-5.85-1.31-3.1-1.61-4.36-.43-2.23-.56-2.89l-.12-.76A.84.84,0,0,1,330,380.57Z" style="fill:#e0e0e0"></path><path d="M354,477.82c-5.37-3.23-6.86-12.95-4.58-18.78s6.24-11.15,6.88-17.38c.49-4.79-1.05-9.72.09-14.39,1.55-6.31,7.74-11.17,7.71-17.67,0-3.64-2.07-7.09-1.89-10.73.23-4.46,3.68-8,5.82-11.91,3.29-6,3.54-13.12,4.69-19.86s3.76-14,9.77-17.25c.85,5.74,2.34,9.67,1.82,17.43-.19,2.79-3.46,8.11-3.93,14.22-.29,3.65-.49,7.31-.74,11s-.48,7.18-1.78,10.5c-1,2.54-2.57,4.85-3.31,7.48-1.4,4.95.37,10.32-.77,15.34-.95,4.24-3.92,7.89-4.54,12.19-.88,6.06,3,12.38,1,18.14-1,2.87-3.38,5.16-4.07,8.11-.53,2.3,0,4.73-.46,7-.78,3.71-7.89,6.56-11.67,6.31" style="fill:#e0e0e0"></path><path d="M381,355.53a1.54,1.54,0,0,1,0,.32c0,.24-.08.55-.13.95-.13.82-.27,2-.56,3.61s-1.14,3.35-1.8,5.49-1.4,4.6-2,7.36-1.16,5.82-1.71,9.1a38.49,38.49,0,0,1-2.82,10.29c-.77,1.71-1.62,3.43-2.27,5.26a24,24,0,0,0-1.17,5.81,115.55,115.55,0,0,1-1.65,12.53c-1.7,8.48-3.31,16.57-4.78,23.92s-2.95,13.93-4.12,19.48-2.15,10-2.82,13.13c-.34,1.52-.6,2.71-.79,3.56-.09.39-.17.69-.22.93s-.09.31-.09.31a1.29,1.29,0,0,1,0-.32c.05-.24.1-.55.17-.94.17-.85.4-2.05.7-3.58.63-3.14,1.54-7.63,2.65-13.16s2.5-12.17,4-19.51,3.06-15.43,4.74-23.91A122.85,122.85,0,0,0,368,403.67a23.93,23.93,0,0,1,1.2-5.93c.67-1.87,1.54-3.59,2.3-5.29a38.18,38.18,0,0,0,2.83-10.16c.58-3.28,1.13-6.35,1.79-9.11s1.37-5.23,2.1-7.37,1.54-3.91,1.88-5.45.49-2.77.65-3.58l.18-.93A2.29,2.29,0,0,1,381,355.53Z" style="fill:#ebebeb"></path></g><g id="freepik--Floor--inject-2"><path d="M464.19,477.87c0,.14-95.9.26-214.18.26s-214.2-.12-214.2-.26,95.88-.26,214.2-.26S464.19,477.72,464.19,477.87Z" style="fill:#263238"></path></g><g id="freepik--Plant--inject-2"><rect x="82.92" y="432.61" width="53.87" height="7.4" style="fill:#263238"></rect><path d="M136.88,440.1h-54v-7.59h54.05ZM83,439.92H136.7V432.7H83Z" style="fill:#263238"></path><polygon points="87.92 437.54 95.67 475.8 124.36 475.8 131.86 440.01 87.92 437.54" style="fill:#263238"></polygon><polygon points="87.92 472.18 92.05 477.87 126.92 477.87 131.86 472.18 87.92 472.18" style="fill:#263238"></polygon><path d="M107.83,438.66c-.1,0-.24-17.72-.3-39.58s0-39.58.08-39.58.24,17.72.3,39.58S107.94,438.66,107.83,438.66Z" style="fill:#263238"></path><path d="M119.83,394.31a2.1,2.1,0,0,1-.14.41c-.13.3-.29.68-.48,1.15-.11.25-.23.53-.35.83s-.24.64-.36,1l-.42,1.16c-.14.41-.26.85-.4,1.31a55.26,55.26,0,0,0-1.5,6.6,78.66,78.66,0,0,0-.84,8.25,110.6,110.6,0,0,0,.43,15.06c.17,1.93.35,3.48.47,4.55.06.51.1.92.14,1.24a1.84,1.84,0,0,1,0,.44,3.39,3.39,0,0,1-.1-.43c0-.32-.12-.73-.2-1.23-.18-1.06-.39-2.62-.6-4.54A99,99,0,0,1,115,415a73.86,73.86,0,0,1,.87-8.29,50.53,50.53,0,0,1,1.59-6.62c.15-.46.28-.9.43-1.31l.45-1.15.39-1c.13-.3.27-.57.38-.82.22-.46.4-.83.55-1.12A3.05,3.05,0,0,1,119.83,394.31Z" style="fill:#263238"></path><path d="M118.46,380a4.38,4.38,0,0,1-.18.58c-.14.41-.32,1-.56,1.65-.12.36-.26.76-.41,1.19s-.28.92-.43,1.43c-.32,1-.68,2.19-1,3.5-.17.65-.35,1.34-.54,2.05l-.5,2.24c-.38,1.54-.65,3.22-1,5-.59,3.52-1.11,7.41-1.47,11.51s-.49,8-.55,11.61,0,6.79.19,9.48c0,1.35.13,2.57.2,3.64s.13,2,.2,2.75.1,1.31.13,1.74a5.54,5.54,0,0,1,0,.61,3.86,3.86,0,0,1-.1-.61c0-.43-.12-1-.2-1.73s-.18-1.67-.26-2.74-.2-2.29-.27-3.64c-.18-2.7-.25-5.93-.26-9.5s.17-7.52.51-11.64.9-8,1.51-11.54c.36-1.76.65-3.44,1-5l.53-2.24c.19-.71.38-1.4.56-2.05.34-1.31.73-2.48,1.06-3.5.17-.51.32-1,.47-1.42s.31-.82.44-1.18c.27-.68.48-1.22.63-1.63A2.37,2.37,0,0,1,118.46,380Z" style="fill:#263238"></path><path d="M104.43,441.8a.71.71,0,0,1,0-.21c0-.16,0-.36,0-.61,0-.57-.09-1.35-.15-2.35-.13-2.06-.32-5-.54-8.63-.47-7.29-1.15-17.36-2.37-28.43-.63-5.53-1.36-10.79-2.11-15.56-.41-2.38-.77-4.64-1.18-6.75s-.79-4.07-1.17-5.85-.74-3.4-1.06-4.81-.62-2.63-.87-3.62-.42-1.73-.56-2.28c0-.25-.1-.44-.13-.6s0-.2,0-.2,0,.06.07.19.11.35.18.59l.63,2.26c.27,1,.59,2.2.93,3.61s.75,3,1.12,4.8.82,3.74,1.21,5.85.8,4.38,1.22,6.76c.77,4.77,1.51,10,2.14,15.57,1.22,11.08,1.86,21.16,2.26,28.45.19,3.65.33,6.6.41,8.64,0,1,.07,1.79.09,2.36,0,.25,0,.45,0,.61Z" style="fill:#263238"></path><path d="M107.39,368c-.23-2.51-2.77-4.41-5.29-4.43a8.3,8.3,0,0,0-6.41,3.48,19.77,19.77,0,0,0-3.09,6.85,46.46,46.46,0,0,0-1.9,18.24,27.56,27.56,0,0,0,7.59,16.45,3.09,3.09,0,0,0,2.61,1.19,3,3,0,0,0,1.38-.85,40.81,40.81,0,0,0,13.25-31,12.62,12.62,0,0,0-1.66-6.68c-1.29-1.93-4.29-4-6.48-3.21" style="fill:#77AA51"></path><path d="M88.56,347.91c-1.18,2.14-2.36,4.29-3.55,6.43-.08.15-.19.32-.36.33s-.33-.16-.43-.32l-9.39-14.41L77,338.72Z" style="fill:#77AA51"></path><g style="opacity:0.2"><path d="M88.56,347.91c-1.18,2.14-2.36,4.29-3.55,6.43-.08.15-.19.32-.36.33s-.33-.16-.43-.32l-9.39-14.41L77,338.72Z"></path></g><path d="M107.61,359.5l-32-18.9a1.47,1.47,0,0,1-.78-.79c-.13-.47.23-.93.57-1.28a22.09,22.09,0,0,1,17.12-6.73A19.56,19.56,0,0,1,108,341.43c3.09,5.52,3.19,12.82-.35,18.07" style="fill:#77AA51"></path><path d="M80.2,334.57a1.16,1.16,0,0,1,.42-.06c.27,0,.68-.06,1.21-.06a24.66,24.66,0,0,1,4.44.36,25.7,25.7,0,0,1,6.33,1.92A25.93,25.93,0,0,1,107,353.57a23.63,23.63,0,0,1,.8,4.38c0,.53,0,.94.06,1.21a3,3,0,0,1,0,.43,14.27,14.27,0,0,1-.2-1.62,28.19,28.19,0,0,0-.91-4.33,26.15,26.15,0,0,0-20.52-18.57,27.27,27.27,0,0,0-4.39-.47C80.78,334.58,80.2,334.6,80.2,334.57Z" style="fill:#263238"></path><path d="M103.27,346.45a7.11,7.11,0,0,1-1.61.74c-1,.4-2.45.91-4,1.42s-3,.91-4.12,1.17a6.92,6.92,0,0,1-1.75.33,9.59,9.59,0,0,1,1.68-.59l4.08-1.27,4.06-1.32A9.73,9.73,0,0,1,103.27,346.45Z" style="fill:#263238"></path><path d="M98.23,332.91a13.68,13.68,0,0,1,.38,3.57,13.35,13.35,0,0,1-.2,3.59,22.57,22.57,0,0,1-.18-3.58A22.2,22.2,0,0,1,98.23,332.91Z" style="fill:#263238"></path><path d="M75.3,340.24a14.5,14.5,0,0,1,2.33-.82c1.45-.45,3.48-1,5.74-1.56s4.32-1,5.82-1.22a14.35,14.35,0,0,1,2.45-.34,15.8,15.8,0,0,1-2.4.6c-1.48.33-3.53.79-5.78,1.33s-4.29,1.07-5.76,1.45A17.92,17.92,0,0,1,75.3,340.24Z" style="fill:#263238"></path><path d="M92.84,362.07c-2.75-2.08-5.67-2.5-9.12-2.36a27.85,27.85,0,0,0-10,2.58c-5.4,2.36-10.48,5.85-13.71,10.78s-4.35,11.47-1.93,16.85a2.38,2.38,0,0,0,1.09,1.33,2.65,2.65,0,0,0,1.81-.14c6.14-2,12.33-4,18-7.17s10.79-7.5,13.82-13.2a11.51,11.51,0,0,0,1.45-4.38,5.47,5.47,0,0,0-1.41-4.29" style="fill:#77AA51"></path><path d="M92.9,361.43l-.45.18-1.28.44-.93.31c-.34.12-.7.27-1.09.42-.78.32-1.68.63-2.63,1.09l-1.51.69c-.52.24-1,.54-1.59.82-1.12.55-2.24,1.24-3.44,1.95a59,59,0,0,0-7.28,5.4,60.25,60.25,0,0,0-6.28,6.52c-.85,1.1-1.69,2.13-2.37,3.17-.35.51-.71,1-1,1.48l-.87,1.4c-.58.89-1,1.74-1.41,2.47-.2.37-.4.71-.56,1l-.43.88-.6,1.22a3.44,3.44,0,0,1-.24.42,2.63,2.63,0,0,1,.17-.45c.13-.32.31-.74.53-1.25.13-.28.26-.58.4-.9s.34-.67.54-1.05c.39-.74.8-1.61,1.37-2.51l.85-1.42c.3-.5.66-1,1-1.5.67-1.05,1.51-2.09,2.36-3.21a52.85,52.85,0,0,1,13.64-12c1.21-.7,2.35-1.4,3.48-1.93.56-.28,1.09-.57,1.61-.81l1.53-.66c1-.45,1.87-.75,2.66-1.05.4-.14.76-.28,1.11-.39l.94-.28,1.31-.38A1.6,1.6,0,0,1,92.9,361.43Z" style="fill:#263238"></path><path d="M71.38,373.08a64.81,64.81,0,0,1-6.7,2.16A65.94,65.94,0,0,1,57.87,377a64.81,64.81,0,0,1,6.7-2.16A65.21,65.21,0,0,1,71.38,373.08Z" style="fill:#263238"></path><path d="M71.1,387.87a11.3,11.3,0,0,1-.15-2.09c0-1.29,0-3.08,0-5s.16-3.75.26-5a10.88,10.88,0,0,1,.27-2.08,13.3,13.3,0,0,1,0,2.09c-.05,1.42-.1,3.13-.16,5s-.09,3.62-.13,5A12.28,12.28,0,0,1,71.1,387.87Z" style="fill:#263238"></path><path d="M83.77,381.41c-.11,0-.45-3.62-.76-8.09s-.47-8.12-.36-8.13.44,3.62.75,8.1S83.87,381.41,83.77,381.41Z" style="fill:#263238"></path><path d="M68,364.84a12.51,12.51,0,0,1,2.15-.06c1.32,0,3.15,0,5.17.11s3.84.15,5.17.23a12.68,12.68,0,0,1,2.13.2,10.67,10.67,0,0,1-2.14.07c-1.32,0-3.15-.05-5.17-.12s-3.85-.15-5.17-.22A12.14,12.14,0,0,1,68,364.84Z" style="fill:#263238"></path><path d="M99.66,410.33a1.84,1.84,0,0,1,0-.43q0-.5-.06-1.26c0-1.1-.06-2.68,0-4.63s.17-4.29.4-6.87.61-5.4,1.12-8.34,1.17-5.71,1.83-8.22,1.35-4.73,2-6.58,1.19-3.33,1.61-4.34l.49-1.16a1.68,1.68,0,0,1,.19-.39,1.52,1.52,0,0,1-.12.42l-.42,1.19c-.38,1-.89,2.51-1.5,4.37s-1.26,4.09-1.91,6.58-1.26,5.27-1.79,8.2-.88,5.74-1.15,8.31-.41,4.88-.48,6.83-.1,3.53-.1,4.63l0,1.25A1.25,1.25,0,0,1,99.66,410.33Z" style="fill:#263238"></path><path d="M101.35,388.48a8.2,8.2,0,0,1-1.28,1.4c-.82.83-2,1.94-3.34,3.12s-2.6,2.19-3.53,2.91A8.65,8.65,0,0,1,91.64,397,10.41,10.41,0,0,1,93,395.7l3.44-3,3.42-3A9.32,9.32,0,0,1,101.35,388.48Z" style="fill:#263238"></path><path d="M111.49,396.65a14.88,14.88,0,0,1-1.36-1.89L107,390.14l-3.23-4.57a15.75,15.75,0,0,1-1.29-1.93,13.39,13.39,0,0,1,1.51,1.77c.89,1.13,2.08,2.72,3.33,4.51s2.33,3.47,3.08,4.7A12.76,12.76,0,0,1,111.49,396.65Z" style="fill:#263238"></path><path d="M106.18,371c.06.09-3.31,2.36-7.52,5.07s-7.67,4.83-7.73,4.74,3.31-2.36,7.52-5.06S106.12,370.88,106.18,371Z" style="fill:#263238"></path><path d="M115.67,381.21a63.44,63.44,0,0,1-5.09-4.7,66.52,66.52,0,0,1-4.83-5,60.61,60.61,0,0,1,5.1,4.7A62.81,62.81,0,0,1,115.67,381.21Z" style="fill:#263238"></path><path d="M118.06,381l2.89-.24a14.31,14.31,0,0,0,5.84-1.79,22.26,22.26,0,0,1,2.72-1.36c3.58-1.44,7.56-1.18,11.41-1.38a47.12,47.12,0,0,0,18.15-4.64,1.76,1.76,0,0,0,.79-.71c.59-1.09-.51-2.05-1.46-2.63-4.87-3-9.83-6-15.35-7.53s-11.79-1.24-16.51,2C121,366.54,119,374.36,118.06,381" style="fill:#77AA51"></path><path d="M159.93,370.53a3.13,3.13,0,0,1-.5-.23l-1.37-.72C156.88,369,155.17,368,153,367a48,48,0,0,0-7.83-3,26,26,0,0,0-10.15-.82,17.35,17.35,0,0,0-9.26,4,20.77,20.77,0,0,0-4.82,6.77c-1,2.17-1.64,4-2.1,5.27l-.51,1.46a2.58,2.58,0,0,1-.2.5,2.33,2.33,0,0,1,.12-.52c.12-.38.27-.87.45-1.48a47.8,47.8,0,0,1,2-5.34,20.49,20.49,0,0,1,4.84-6.92,17.49,17.49,0,0,1,9.44-4.09,25.87,25.87,0,0,1,10.29.86,44.94,44.94,0,0,1,7.86,3.12c2.16,1.07,3.85,2,5,2.69l1.33.78A4.12,4.12,0,0,1,159.93,370.53Z" style="fill:#263238"></path><path d="M153,374.26c-.06.09-3.84-2.36-8.44-5.46s-8.29-5.7-8.23-5.78,3.84,2.35,8.44,5.46S153,374.17,153,374.26Z" style="fill:#263238"></path><path d="M149.35,362.66a9,9,0,0,1-2.95.59,8.79,8.79,0,0,1-3-.05,18.34,18.34,0,0,1,3-.34A17.68,17.68,0,0,1,149.35,362.66Z" style="fill:#263238"></path><path d="M132.4,359.62a10.63,10.63,0,0,1-1.24,2.48,10.22,10.22,0,0,1-1.57,2.28,10.17,10.17,0,0,1,1.24-2.48A9.85,9.85,0,0,1,132.4,359.62Z" style="fill:#263238"></path><path d="M135.79,376.49a10.46,10.46,0,0,1-1.82-1c-1.1-.66-2.57-1.63-4.15-2.78s-3-2.23-4-3a10.94,10.94,0,0,1-1.57-1.35,11.28,11.28,0,0,1,1.74,1.13l4,2.93c1.57,1.14,3,2.14,4.06,2.86A13.18,13.18,0,0,1,135.79,376.49Z" style="fill:#263238"></path><path d="M122.32,393.29c-2.76-.73-6,1.95-6.61,4.75s.48,5.65,1.7,8.23a42,42,0,0,0,11.41,14.92,28.14,28.14,0,0,0,17.43,6.41c-1.16-5.41.31-11.07-.34-16.57a21.55,21.55,0,0,0-19.09-18.9c-1.76-.19-3.8-.47-4.5,1.16" style="fill:#77AA51"></path><path d="M146.25,427.6s-.14-.05-.39-.18a6.28,6.28,0,0,1-1-.69,10.76,10.76,0,0,1-2.73-3.64c-.44-.86-.93-1.78-1.41-2.81s-1-2.13-1.48-3.28a31.66,31.66,0,0,0-1.82-3.5,27.37,27.37,0,0,0-2.51-3.41c-1.89-2.22-3.92-4.14-5.67-6a38.77,38.77,0,0,1-4.32-5.19,19.47,19.47,0,0,1-2.12-4c-.17-.51-.3-.91-.36-1.19a2.16,2.16,0,0,1-.09-.42s.19.56.59,1.55a21.47,21.47,0,0,0,2.2,3.94,41.26,41.26,0,0,0,4.35,5.09c1.77,1.81,3.8,3.73,5.71,6a28.11,28.11,0,0,1,2.54,3.46,32.42,32.42,0,0,1,1.82,3.56c.51,1.15,1,2.25,1.45,3.29s.94,2,1.37,2.81a11,11,0,0,0,2.57,3.65C145.73,427.31,146.27,427.57,146.25,427.6Z" style="fill:#263238"></path><path d="M132,423.1a8.32,8.32,0,0,1,.26-1.85c.21-1.14.57-2.7,1-4.39s1-3.22,1.4-4.3a8.88,8.88,0,0,1,.75-1.71,9,9,0,0,1-.49,1.8c-.34,1.1-.81,2.62-1.29,4.31s-.87,3.23-1.15,4.35A8.8,8.8,0,0,1,132,423.1Z" style="fill:#263238"></path><path d="M145.73,409.81a10,10,0,0,1-1.94-.44c-1.19-.31-2.83-.74-4.66-1.15s-3.49-.73-4.7-1a10.85,10.85,0,0,1-1.94-.43,9.36,9.36,0,0,1,2,.16c1.22.16,2.9.44,4.74.86s3.47.88,4.64,1.26A11,11,0,0,1,145.73,409.81Z" style="fill:#263238"></path><path d="M121.76,413.68a11.56,11.56,0,0,1,.3-2.15c.24-1.32.63-3.13,1.14-5.11s1.07-3.74,1.5-5a11.45,11.45,0,0,1,.79-2,13.88,13.88,0,0,1-.53,2.1c-.37,1.29-.87,3.06-1.39,5s-.94,3.76-1.25,5.06A14.41,14.41,0,0,1,121.76,413.68Z" style="fill:#263238"></path><path d="M139.4,398.23a75.36,75.36,0,0,1-7.69-.62c-4.23-.45-7.65-.9-7.64-1a75.36,75.36,0,0,1,7.69.62C136,397.68,139.41,398.13,139.4,398.23Z" style="fill:#263238"></path><path d="M136.88,440c0,.1-12.1.19-27,.19s-27-.09-27-.19,12.1-.2,27-.2S136.88,439.87,136.88,440Z" style="fill:#455a64"></path><path d="M128.46,455.55c0,.1-8.15.19-18.21.19S92,455.65,92,455.55s8.16-.19,18.21-.19S128.46,455.44,128.46,455.55Z" style="fill:#455a64"></path><path d="M128.78,457.77c0,.11-8.15.2-18.21.2s-18.21-.09-18.21-.2,8.15-.19,18.21-.19S128.78,457.67,128.78,457.77Z" style="fill:#455a64"></path><path d="M128.78,453.71c0,.11-8.43.19-18.83.19s-18.84-.08-18.84-.19,8.43-.19,18.84-.19S128.78,453.61,128.78,453.71Z" style="fill:#455a64"></path></g><g id="freepik--Character--inject-2"><polygon points="299.05 349.36 332.62 333.4 325.67 319.4 290.94 333.4 299.05 349.36" style="fill:#ffbe9d"></polygon><path d="M328.55,335.85l.93-.45s14,12.79,17.13,11.51l-15.37-31.43L321,321A20,20,0,0,1,328.55,335.85Z" style="fill:#77AA51"></path><g style="opacity:0.6000000000000001"><path d="M325.89,322.57a1.43,1.43,0,0,1,1-1.6,1.38,1.38,0,0,1,1.6,1,1.51,1.51,0,0,1-1.1,1.69,1.43,1.43,0,0,1-1.55-1.23" style="fill:#fff"></path></g><g style="opacity:0.6000000000000001"><path d="M331.24,315.48l-2.47,1.34,15.64,29.63s1.29,1.1,2.2.46Z" style="fill:#fff"></path></g><path d="M329.63,335.47c.15-.08-.16-.88,0-1.88s.57-1.71.44-1.82-.91.55-1,1.76S329.5,335.57,329.63,335.47Z" style="fill:#263238"></path><path d="M332.6,338.1c.17,0,.1-.83.5-1.67s1-1.32.92-1.47-1,.17-1.46,1.23S332.45,338.17,332.6,338.1Z" style="fill:#263238"></path><path d="M337.46,338c0-.15-.9,0-1.55.81s-.63,1.69-.47,1.69.39-.66.93-1.31S337.52,338.2,337.46,338Z" style="fill:#263238"></path><polygon points="216.43 432.82 226.27 467.47 241.51 464.04 235.21 427.25 216.43 432.82" style="fill:#ffbe9d"></polygon><path d="M224.85,462.94l.21,1s-15.75,10.6-15.23,13.91l34.17-7.5-3-11.26A20,20,0,0,1,224.85,462.94Z" style="fill:#77AA51"></path><g style="opacity:0.6000000000000001"><path d="M238.38,463.5a1.43,1.43,0,0,1,1.31,1.38,1.38,1.38,0,0,1-1.36,1.32,1.51,1.51,0,0,1-1.38-1.47,1.43,1.43,0,0,1,1.56-1.22" style="fill:#fff"></path></g><g style="opacity:0.6000000000000001"><path d="M244,470.37l-.71-2.71-32.49,8.18s-1.38,1-1,2Z" style="fill:#fff"></path></g><path d="M225,464.08c0,.16.89.06,1.83.41s1.53,1,1.67.86-.32-1-1.46-1.42S224.89,463.93,225,464.08Z" style="fill:#263238"></path><path d="M221.7,466.35c0,.17.78.29,1.51.87s1,1.29,1.21,1.25.06-1-.85-1.72S221.67,466.19,221.7,466.35Z" style="fill:#263238"></path><path d="M220.61,471.08c.16,0,.21-.88-.42-1.7s-1.49-1-1.53-.86.55.54,1.05,1.22S220.44,471.1,220.61,471.08Z" style="fill:#263238"></path><path d="M201.47,367.14c3.07,3.63,8.68,4.15,13.16,2.56s8.12-4.86,11.71-8,7.43-6.23,12-7.38c5.81-1.46,12.71.19,17.32-3.64,4-3.36,4.43-9.52,7.83-13.53,4.29-5.07,12.06-5.39,17.44-9.29,6.15-4.46,8.45-14.71,4.49-21.19s-13-10.21-19.75-6.77c-5.9,3-9.76,11.34-13.13,17.05s-8,11.63-14.51,12.55c-5.24.73-11-1.89-15.64.72-3.5,2-4.88,6.29-7.52,9.34-2.35,2.71-5.65,4.36-8.79,6.09s-6.34,3.69-8.21,6.74-2,7.5.73,9.87" style="fill:#77AA51"></path><g style="opacity:0.4"><path d="M201.47,367.14c3.07,3.63,8.68,4.15,13.16,2.56s8.12-4.86,11.71-8,7.43-6.23,12-7.38c5.81-1.46,12.71.19,17.32-3.64,4-3.36,4.43-9.52,7.83-13.53,4.29-5.07,12.06-5.39,17.44-9.29,6.15-4.46,8.23-15.21,4.27-21.69s-12.37-9.71-19.14-6.27c-5.91,3-10.15,11.34-13.52,17.05s-8,11.63-14.51,12.55c-5.24.73-11-1.89-15.64.72-3.5,2-4.88,6.29-7.52,9.34-2.35,2.71-5.65,4.36-8.79,6.09s-6.34,3.69-8.21,6.74-2,7.5.73,9.87"></path></g><path d="M200.39,285.18s-3.73,65.19,2.76,109.91l19.58,60.66,16.6-4.78-10.72-76v-.3c.61-3.43,3-98.91,3-98.91Z" style="fill:#263238"></path><path d="M206.58,279.12l31.11,70a28.24,28.24,0,0,0,38.06,14.25l48.07-24.22-5.91-17.06-49.66,16.56-9.46-35.86a76.52,76.52,0,0,0-11.89-25.43c-4.29-5.93-9.41-11.06-14-10.34a42.78,42.78,0,0,0-9.24,3.33Z" style="fill:#263238"></path><path d="M269.33,337.88a27.7,27.7,0,0,1-2.86,4.34,29,29,0,0,1-3.25,4.06,28.23,28.23,0,0,1,2.86-4.34A29,29,0,0,1,269.33,337.88Z" style="fill:#455a64"></path><path d="M267.6,346.73a15.61,15.61,0,0,1,.08-3.79,15.2,15.2,0,0,1,.55-3.76,29.26,29.26,0,0,1-.63,7.55Z" style="fill:#455a64"></path><path d="M286.42,306.2c-5.34-10.78-21.84-8.52-30.17-20.54a69.34,69.34,0,0,0-18.55-18.25l0,0a5.87,5.87,0,0,1-3.42-6.46l4.39-16.34h0s7.73-12.46,13.41-19.06c3.46-4,23.88-39.59,23.88-39.59l-10.71-8.88S236,214.74,234.77,213.8c-.84-.67-2.35-.4-3.18-.18-2.53-1.09-4.52-1.77-4.52-1.77s-15.46-.61-18.81.16l-5.32,1.24h0s-6.22-1-6.3-1.63a2.42,2.42,0,0,0-3.4-1.05c-.92.6-10-15.61-14.47-23.76l.46-19.65-15.06.46-2.45,17.62a16,16,0,0,0,2.19,11.22c3.24,5.19,7.93,12.77,9.18,15.16,4.72,9,10,18.33,12.39,22.53,0,0,1.37,2.45,2.66,4.84l2.58,4.64c-.16,3-.48,7.34,1,10.82,1.7,4,4.22,20.95,4.42,24.78-.67,17.27-2.92,40.63-3.59,57.89-.25,6.47-2.49,13.59-.62,20.12,1.53,5.37,5.26,8.38,8.43,8.92,0,0-3.13-19.64,18.27-15.25,10.88,2.23,10-10.65,15.49-12,7.49-1.87,12.33,5,18.86-1.55a11.32,11.32,0,0,0,1.88-2.57c2.43-4.54,2.31-9.56,2.81-14.46.47-4.64,1.56-9.31,4.08-13.23,3.13-4.87,8.75-8.43,14.74-7.15a10.29,10.29,0,0,1,4.6,2.31c6.37,5.54,5.33,12.34,3.75,18.54a32.71,32.71,0,0,1-2.22,5.75s4.22-2.89,5-9.72C288.34,310.24,286.42,306.2,286.42,306.2Z" style="fill:#77AA51"></path><path d="M302.32,154.92c-.38-2.1-1.14-2.33-1.14-2.33a8.08,8.08,0,0,0,.58-4.92c-.4-.89-2.15.14-2.15.14s.16-3.88-.76-4.32c-.73-.35-6.54,1.26-8.94,1.94a4.3,4.3,0,0,0-1.78,1l-7.78,7.15-2,4.45-13.11,19,10.23,8.63L289.36,163l7.34-4.48c0,1.93,1.91,1.26,1.91,1.26S302.69,157,302.32,154.92Z" style="fill:#ffbe9d"></path><path d="M283.25,152.2a8.3,8.3,0,0,1,1.13-1.06l3.2-2.72v0h0l4.21-2,1.19-.56.62-.28.32-.15a1.32,1.32,0,0,1,.43-.09,1.14,1.14,0,0,1,1.16,1.16,3.32,3.32,0,0,1-.48,1.48,12,12,0,0,1-2.24,2.4c-.78.7-1.57,1.34-2.34,1.91a3.45,3.45,0,0,0-1.62,1.91,8.73,8.73,0,0,1-.78,2.26,6.59,6.59,0,0,1-2.4,2.49,5.34,5.34,0,0,1-.84.4c-.21.07-.32.1-.32.08s.4-.2,1.06-.65a6.85,6.85,0,0,0,2.17-2.5,8,8,0,0,0,.69-2.2,2.88,2.88,0,0,1,.66-1.24,7.9,7.9,0,0,1,1.09-.93c.76-.58,1.53-1.21,2.29-1.9a12.81,12.81,0,0,0,2.13-2.29,2.76,2.76,0,0,0,.41-1.25.61.61,0,0,0-.64-.61,1.31,1.31,0,0,0-.54.18l-.62.28-1.2.55-4.24,1.91,0,0-3.31,2.58A7.8,7.8,0,0,1,283.25,152.2Z" style="fill:#eb996e"></path><path d="M301.53,151.69s0,.27-.14.72a2.73,2.73,0,0,1-.45.76c-.27.26-.56.45-.89.71a23,23,0,0,1-2.46,1.59c-.47.27-1,.55-1.51.82a2.54,2.54,0,0,1-2,.35,1.55,1.55,0,0,1-.82-1.86,3.24,3.24,0,0,1,.92-1.59c.91-.67,1.73-1.2,2.41-1.65a3,3,0,0,0,1.22-1.38c.18-.42.25-.67.29-.66a1.47,1.47,0,0,1-.1.73,3,3,0,0,1-1.19,1.61c-.67.49-1.48,1.07-2.32,1.72a2.86,2.86,0,0,0-.74,1.35,1.05,1.05,0,0,0,.52,1.24,2.06,2.06,0,0,0,1.55-.32c.53-.26,1-.52,1.51-.78,1-.51,1.79-1,2.48-1.47.33-.22.68-.44.89-.61a2.77,2.77,0,0,0,.47-.65C301.41,151.92,301.49,151.67,301.53,151.69Z" style="fill:#eb996e"></path><path d="M297.88,155.25c.05,0,.15.11.35.19a1,1,0,0,0,.84-.2.23.23,0,0,1,.32.07.21.21,0,0,1,0,.28v0l-.91.93c-1.09,1.11-1.75,2.15-1.87,2.1a4.51,4.51,0,0,1,1.49-2.45,10.38,10.38,0,0,1,1-.93l.27.37a1.21,1.21,0,0,1-1.23.05C297.84,155.46,297.85,155.27,297.88,155.25Z" style="fill:#eb996e"></path><path d="M290.53,152.08a4.86,4.86,0,0,0,1.46.43,9,9,0,0,0,3.48-1.27,23,23,0,0,0,4.14-3.43,9.09,9.09,0,0,1-3.88,3.88,7.67,7.67,0,0,1-3.76,1.19C290.87,152.72,290.49,152.09,290.53,152.08Z" style="fill:#eb996e"></path><path d="M296.46,146.13c.11.1-.18.58-.65,1.07s-.92.81-1,.71.18-.57.64-1.06S296.36,146,296.46,146.13Z" style="fill:#eb996e"></path><path d="M342.73,189.26a3,3,0,0,1-.7.28,9.39,9.39,0,0,1-2.15.41,15.59,15.59,0,0,1-7.78-1.74c-3.13-1.38-6.3-3.94-10.15-6.13a18.72,18.72,0,0,0-6.45-2.35,36,36,0,0,0-7.44.2,14.8,14.8,0,0,1-7.49-1,15.25,15.25,0,0,1-5.51-4.4,19.61,19.61,0,0,1-3.11-5.57,28.8,28.8,0,0,1-1.35-5.38,55.84,55.84,0,0,1-.62-8c0-.94,0-1.68,0-2.17a4,4,0,0,1,0-.76,3.7,3.7,0,0,1,.06.75c0,.55.06,1.27.1,2.17a63.4,63.4,0,0,0,.78,7.93,22.67,22.67,0,0,0,4.47,10.71,14.79,14.79,0,0,0,5.35,4.23,14.37,14.37,0,0,0,7.24,1,35.45,35.45,0,0,1,7.55-.18,18.69,18.69,0,0,1,6.61,2.44c3.9,2.24,7,4.8,10.07,6.21a15.81,15.81,0,0,0,7.62,1.87A14.76,14.76,0,0,0,342.73,189.26Z" style="fill:#263238"></path><path d="M345.87,171.45s0,.06-.08.15a4.15,4.15,0,0,1-.29.42,5.54,5.54,0,0,1-1.5,1.26,8.74,8.74,0,0,1-7,.57,18.57,18.57,0,0,1-4.46-2.19c-1.51-.95-3-2.1-4.71-3.15a15.38,15.38,0,0,0-5.66-2.33,15.85,15.85,0,0,0-6.53.66c-2.21.59-4.36,1.33-6.53,1.68a12.23,12.23,0,0,1-6.3-.48,17,17,0,0,1-8.07-6.81,42.79,42.79,0,0,1-3.4-6.31c-.34-.77-.59-1.38-.75-1.79a4.22,4.22,0,0,1-.23-.64,2.75,2.75,0,0,1,.32.6c.22.44.5,1,.85,1.74A47,47,0,0,0,295,161a20.65,20.65,0,0,0,3.2,3.69,14.46,14.46,0,0,0,4.73,2.88A11.81,11.81,0,0,0,309,168c2.12-.34,4.25-1.08,6.49-1.68a16.35,16.35,0,0,1,6.74-.65,15.53,15.53,0,0,1,5.83,2.43c1.7,1.07,3.21,2.23,4.69,3.19a18.89,18.89,0,0,0,4.34,2.2,8.72,8.72,0,0,0,6.83-.39A7.09,7.09,0,0,0,345.87,171.45Z" style="fill:#263238"></path><path d="M180.18,130.51c-.92-1.93-3.19-6.56-3.82-6.83-.81-.34-3.21,2-3.21,2s-.33-1.7-1.13-1.45a6.94,6.94,0,0,0-2.82,3.16s-.58-.36-2.14.6-1,5.16-1,5.16.66,1.62,1.89.51l1.28,7.14L165,167.59l13.93-.42,1.49-25.88.15-9A3.44,3.44,0,0,0,180.18,130.51Z" style="fill:#ffbe9d"></path><path d="M179.63,138.62a5.55,5.55,0,0,1-.16-1.32c-.07-.85-.15-2.08-.24-3.59v0l-1.19-3.8c-.11-.36-.22-.72-.34-1.08l-.17-.56a1,1,0,0,0-.18-.44.5.5,0,0,0-.7,0,2.33,2.33,0,0,0-.56,1,10.72,10.72,0,0,0-.25,2.66c0,.88,0,1.73.08,2.54a8.37,8.37,0,0,1,0,1.23,2.43,2.43,0,0,1-.43,1.14,7.38,7.38,0,0,0-1,1.69,5.8,5.8,0,0,0-.37,2.8c.07.67.21,1,.16,1a2.52,2.52,0,0,1-.36-1,5.64,5.64,0,0,1,.22-3,7.3,7.3,0,0,1,1-1.79,3,3,0,0,0,.29-2.1,24,24,0,0,1-.11-2.59,10.18,10.18,0,0,1,.27-2.8,2.82,2.82,0,0,1,.68-1.17,1,1,0,0,1,1.45.08,1,1,0,0,1,.2.34l.09.3.16.55c.11.37.22.73.32,1.09.41,1.39.78,2.68,1.11,3.83v0c0,1.51.06,2.74.06,3.59A5.85,5.85,0,0,1,179.63,138.62Z" style="fill:#eb996e"></path><path d="M169.58,126.62s-.08.21-.21.57a2.81,2.81,0,0,0-.14.67c0,.23.08.57.12.91.11.7.26,1.52.47,2.42.12.46.24.93.37,1.41a1.75,1.75,0,0,0,.65,1.15.85.85,0,0,0,1-.36,2.41,2.41,0,0,0,.45-1.22c-.06-.89-.15-1.75-.21-2.46a2.59,2.59,0,0,1,.37-1.69c.22-.34.4-.48.42-.46s-.09.21-.25.56a2.69,2.69,0,0,0-.17,1.56c.1.69.23,1.51.32,2.48a2.9,2.9,0,0,1-.5,1.52,1.37,1.37,0,0,1-1.71.53,2.16,2.16,0,0,1-.91-1.48c-.12-.49-.24-1-.33-1.43a19.69,19.69,0,0,1-.37-2.48,6.84,6.84,0,0,1-.05-1,2.23,2.23,0,0,1,.25-.72C169.39,126.75,169.56,126.6,169.58,126.62Z" style="fill:#eb996e"></path><path d="M169.37,131s-.11.16-.4.12a1,1,0,0,1-.69-.82l.45,0a9.19,9.19,0,0,1,0,1.16c-.1,1.37-.63,2.42-.77,2.35a18.55,18.55,0,0,1,.25-2.4c0-.34.05-.68.08-1.11v0a.22.22,0,0,1,.24-.21.22.22,0,0,1,.21.19.87.87,0,0,0,.33.65C169.21,130.93,169.36,130.93,169.37,131Z" style="fill:#eb996e"></path><path d="M175.58,133.88c0,.05-.61.17-1.35-.44a6.52,6.52,0,0,1-1.4-3.1,7.55,7.55,0,0,1,.32-4.7,23,23,0,0,0,.19,4.6,7.76,7.76,0,0,0,1.15,2.94C175,133.75,175.6,133.8,175.58,133.88Z" style="fill:#eb996e"></path><path d="M176,126.71c.14,0,.21.49.16,1.07s-.21,1-.35,1-.22-.49-.17-1.06S175.87,126.7,176,126.71Z" style="fill:#eb996e"></path><path d="M223.92,152.62a3.43,3.43,0,0,1-.49.68,6.85,6.85,0,0,1-1.93,1.47,10,10,0,0,1-3.68,1,17.86,17.86,0,0,1-5-.42c-1.83-.36-3.81-.91-6-1.18a11,11,0,0,0-6.67,1,11.53,11.53,0,0,0-2.79,2.43,10,10,0,0,1-3.15,2.49,7.49,7.49,0,0,1-8-1.27c-1.08-1-1.92-2.12-2.93-3a5.65,5.65,0,0,0-3.53-1.55c-1.31-.12-2.63,0-3.94-.07a9.61,9.61,0,0,1-3.73-1,10.84,10.84,0,0,1-4.88-5.06,8.85,8.85,0,0,1-.54-6.08,12.35,12.35,0,0,1,2.37-4.48,12.72,12.72,0,0,1,2.83-2.57,9.06,9.06,0,0,1,2.17-1.06,3.76,3.76,0,0,1,.82-.19,11.32,11.32,0,0,0-2.88,1.42,12.79,12.79,0,0,0-2.71,2.58,12.11,12.11,0,0,0-2.24,4.39,8.39,8.39,0,0,0,.58,5.81,10.31,10.31,0,0,0,4.7,4.81,9.38,9.38,0,0,0,3.54.94c1.26.07,2.58-.07,4,.06a6.73,6.73,0,0,1,2,.48,6.89,6.89,0,0,1,1.78,1.18c1.06,1,1.91,2.1,2.94,3a7,7,0,0,0,7.48,1.19c2.41-1,3.62-3.65,5.91-4.87a11.32,11.32,0,0,1,7-1c2.2.28,4.17.86,6,1.24a17.77,17.77,0,0,0,4.94.49,10,10,0,0,0,3.62-.9A7.67,7.67,0,0,0,223.92,152.62Z" style="fill:#263238"></path><path d="M209.78,139.35a2.73,2.73,0,0,1-.3.49,8.46,8.46,0,0,1-1.07,1.25,10.16,10.16,0,0,1-5.38,2.62,9.61,9.61,0,0,1-4.19-.24c-1.46-.42-2.86-1.22-4.43-1.69a7.36,7.36,0,0,0-5,.32,22.56,22.56,0,0,0-4.78,2.81,24,24,0,0,1-4.89,2.91,7.72,7.72,0,0,1-5.29.41,6.59,6.59,0,0,1-4.54-7.14,7.67,7.67,0,0,1,1.51-3.11,8.3,8.3,0,0,1,1.9-1.78,7,7,0,0,1,1.47-.75,2.26,2.26,0,0,1,.56-.13,9.7,9.7,0,0,0-1.91,1,8.87,8.87,0,0,0-1.79,1.79,7.48,7.48,0,0,0-1.38,3,5.62,5.62,0,0,0,.82,3.82,6.31,6.31,0,0,0,3.5,2.79,7.28,7.28,0,0,0,5-.42,23.65,23.65,0,0,0,4.77-2.86,22.82,22.82,0,0,1,4.91-2.87,7.87,7.87,0,0,1,5.29-.3c1.64.51,3,1.32,4.43,1.74a9.4,9.4,0,0,0,4,.29,10.32,10.32,0,0,0,5.3-2.41A21.71,21.71,0,0,0,209.78,139.35Z" style="fill:#263238"></path><path d="M223.08,338.7a3.83,3.83,0,0,1-1.23.61,7.23,7.23,0,0,1-3.71,0c-1.55-.32-3.32-1-5.36-1.33a20.7,20.7,0,0,0-6.71,0,22.27,22.27,0,0,0-10.95,5.15,21.74,21.74,0,0,0-2.56,2.69l-.61.81-.22.27a1.91,1.91,0,0,1,.19-.3l.58-.83A20.6,20.6,0,0,1,195,343a22,22,0,0,1,11-5.24,20.29,20.29,0,0,1,6.78,0c2.07.35,3.83,1,5.36,1.38a7.4,7.4,0,0,0,3.66.1A6.67,6.67,0,0,0,223.08,338.7Z" style="fill:#fafafa"></path><path d="M244.69,326.37l-.26-.05c-.17,0-.41-.11-.74-.18a18.9,18.9,0,0,0-2.74-.43,18.65,18.65,0,0,0-16.2,6.86,20.47,20.47,0,0,0-1.61,2.27c-.17.28-.29.51-.38.65l-.14.23a14.72,14.72,0,0,1,2-3.24A18.35,18.35,0,0,1,241,325.57,14.71,14.71,0,0,1,244.69,326.37Z" style="fill:#fafafa"></path><path d="M193.74,259.19a4.75,4.75,0,0,1-.6-.95,10.49,10.49,0,0,1-.59-1.17,16,16,0,0,1-.67-1.61,25.38,25.38,0,0,1-1.2-4.39A26.23,26.23,0,0,1,191.1,240a24.88,24.88,0,0,1,1.52-4.29,15.84,15.84,0,0,1,.79-1.55,8.82,8.82,0,0,1,.68-1.13,4.68,4.68,0,0,1,.66-.9c.09.06-.8,1.38-1.8,3.73a29.07,29.07,0,0,0-1.39,4.25,31.39,31.39,0,0,0-.74,5.42,30.61,30.61,0,0,0,.34,5.46,28.76,28.76,0,0,0,1.06,4.34C193,257.76,193.83,259.14,193.74,259.19Z" style="fill:#263238"></path><path d="M238.63,225.14c.06.06-.62.64-1.55,1.71a17.5,17.5,0,0,0-4.22,10,21.93,21.93,0,0,1-.14,2.31,6.67,6.67,0,0,1-.22-2.33,15.36,15.36,0,0,1,1.19-5.53,15.07,15.07,0,0,1,3.12-4.72A6.38,6.38,0,0,1,238.63,225.14Z" style="fill:#263238"></path><path d="M231.28,223.53a8.82,8.82,0,0,1,1.95-8.95,20.89,20.89,0,0,0-1.72,4.32A21.76,21.76,0,0,0,231.28,223.53Z" style="fill:#263238"></path><path d="M196.27,222.17a3.14,3.14,0,0,1-.74-1.35,8.82,8.82,0,0,1-.49-3.68,8.94,8.94,0,0,1,1.05-3.57,3.36,3.36,0,0,1,.93-1.22,15.31,15.31,0,0,0-1.46,4.83A14.94,14.94,0,0,0,196.27,222.17Z" style="fill:#263238"></path><path d="M191.14,220a9,9,0,0,1,1.54-9.19,21.61,21.61,0,0,0-1.53,4.47A21.17,21.17,0,0,0,191.14,220Z" style="fill:#263238"></path><g style="opacity:0.30000000000000004"><path d="M219.8,343.24c.32,1.52,2.81,1.41,3.62.09s.46-3,.08-4.53c-3-12-6.08-24.1-11-35.48q.87,14.63,1.73,29.23a20.65,20.65,0,0,0,1.37,7.42c1.06,2.3,3.22,4.27,5.74,4.35"></path></g><g style="opacity:0.30000000000000004"><path d="M249.25,320.8a45,45,0,0,0-2.61-7.83c-2.88-6.71-6.15-13.47-12.24-17.78,4.48,12.75,9,24.78,12.71,37.79l.62-.62a5.9,5.9,0,0,0,1.49-2.51A16.83,16.83,0,0,0,249.25,320.8Z"></path></g><path d="M224.66,256.21a4.8,4.8,0,0,1-2.08.51,10.66,10.66,0,0,1-9.19-4.08,4.74,4.74,0,0,1-1-1.89c.08,0,.46.68,1.3,1.66a12,12,0,0,0,4,3,11.63,11.63,0,0,0,4.88,1C223.85,256.33,224.64,256.12,224.66,256.21Z" style="fill:#263238"></path><path d="M214.11,272.93a22.86,22.86,0,0,1,2.79-.64,48.85,48.85,0,0,0,12.87-4.75,23.41,23.41,0,0,1,2.54-1.33,11.75,11.75,0,0,1-2.35,1.65,38.66,38.66,0,0,1-6.27,3,37,37,0,0,1-6.72,1.79A12.21,12.21,0,0,1,214.11,272.93Z" style="fill:#263238"></path><path d="M232.89,264.5a17.07,17.07,0,0,1-10.12,3.3c0-.15,2.37-.41,5.16-1.33S232.81,264.37,232.89,264.5Z" style="fill:#263238"></path><g style="opacity:0.30000000000000004"><path d="M229.45,267c-5.49.1-11,.21-16.35,1.66-1.3.35-2.84,1.12-2.82,2.47A2.18,2.18,0,0,0,212,273a6.1,6.1,0,0,0,2.75-.1,83.49,83.49,0,0,0,12.69-3.53c1.14-.41,2.41-1,2.74-2.16Z"></path></g><path d="M218.36,321.23a3,3,0,0,1-1,.4,5.64,5.64,0,0,1-2.84-.13,40.39,40.39,0,0,1-3.95-1.46,22.91,22.91,0,0,0-5-1.26,24.09,24.09,0,0,0-9.26.5,25.72,25.72,0,0,0-2.7.85l-.72.28-.25.08a17.33,17.33,0,0,1,3.63-1.35,23.49,23.49,0,0,1,9.33-.57,23.12,23.12,0,0,1,5,1.29c1.48.57,2.77,1.19,3.92,1.5a5.79,5.79,0,0,0,2.78.19A5.88,5.88,0,0,0,218.36,321.23Z" style="fill:#fafafa"></path><path d="M239.87,309.88l-.24,0-.7-.1a8.21,8.21,0,0,0-1.09-.15c-.43,0-.92-.1-1.46-.1a21.51,21.51,0,0,0-3.8.18,24.45,24.45,0,0,0-4.53,1.08,26.09,26.09,0,0,0-4.21,2,23.59,23.59,0,0,0-3.07,2.24c-.42.34-.76.7-1.07,1a10.86,10.86,0,0,0-.77.79l-.47.52c-.11.12-.17.18-.18.17a16.84,16.84,0,0,1,2.39-2.59,21.61,21.61,0,0,1,3.08-2.29,24.21,24.21,0,0,1,4.24-2,23.71,23.71,0,0,1,4.56-1.07,21.61,21.61,0,0,1,3.84-.14A16.3,16.3,0,0,1,239.87,309.88Z" style="fill:#fafafa"></path><path d="M260.07,289.34s-.39,0-1.1.1a9.12,9.12,0,0,0-2.84.93,12.5,12.5,0,0,0-3.48,2.74,23.08,23.08,0,0,0-3,4.53c-.92,1.72-1.7,3.4-2.52,4.89a25,25,0,0,1-2.45,3.76,13.84,13.84,0,0,1-2.14,2.15,7.76,7.76,0,0,1-.92.63s.32-.24.87-.7a14.82,14.82,0,0,0,2.07-2.17,25.61,25.61,0,0,0,2.4-3.76c.8-1.49,1.58-3.17,2.51-4.9a22.5,22.5,0,0,1,3.08-4.55,12.36,12.36,0,0,1,3.55-2.75,8.69,8.69,0,0,1,2.9-.88A5.51,5.51,0,0,1,260.07,289.34Z" style="fill:#fafafa"></path><path d="M271.85,296.35a3.69,3.69,0,0,1-.42.11c-.27.06-.67.13-1.18.26a23.69,23.69,0,0,0-9.74,5A23,23,0,0,0,255.4,308a34,34,0,0,0-2.89,7.55,50.89,50.89,0,0,1-2.1,6.3,15.39,15.39,0,0,1-2.28,3.85,9.27,9.27,0,0,1-.82.9c-.2.2-.31.29-.31.29s.42-.41,1.07-1.24a15.94,15.94,0,0,0,2.21-3.85,54,54,0,0,0,2-6.3,33.73,33.73,0,0,1,2.89-7.6,23.28,23.28,0,0,1,5.18-6.26,23.58,23.58,0,0,1,5.6-3.55,22.78,22.78,0,0,1,4.24-1.43C271.27,296.42,271.85,296.35,271.85,296.35Z" style="fill:#fafafa"></path><path d="M249.08,277l-.62.14a14.44,14.44,0,0,0-1.74.48,19.92,19.92,0,0,0-5.74,3.27,58,58,0,0,0-7,6.93c-2.49,2.74-5.31,5.81-9.06,8a15.34,15.34,0,0,1-5.93,2,18.6,18.6,0,0,1-5.82-.42c-3.63-.79-6.83-1.88-9.64-2a12,12,0,0,0-6.45,1.15,9.41,9.41,0,0,0-2,1.42l.45-.45a7.37,7.37,0,0,1,1.47-1,12,12,0,0,1,6.49-1.23c2.84.09,6.06,1.17,9.68,1.94a18.57,18.57,0,0,0,5.76.41,15.08,15.08,0,0,0,5.85-2c3.71-2.14,6.52-5.19,9-7.91a57.33,57.33,0,0,1,7-6.93,19.36,19.36,0,0,1,5.81-3.23,12.94,12.94,0,0,1,1.75-.44C248.86,277,249.08,277,249.08,277Z" style="fill:#fafafa"></path><path d="M225,272.84a24.88,24.88,0,0,1-3.59,2.79,30.11,30.11,0,0,1-4.35,2.36,31.33,31.33,0,0,1-11.76,2.62,30.43,30.43,0,0,1-4.93-.28,24.85,24.85,0,0,1-4.44-1,1.21,1.21,0,0,1,.31.06l.88.21a12.52,12.52,0,0,0,1.4.29,18.85,18.85,0,0,0,1.87.3,31.84,31.84,0,0,0,4.91.24,35.81,35.81,0,0,0,6-.75,35.22,35.22,0,0,0,5.72-1.86,31.76,31.76,0,0,0,4.34-2.3c.61-.35,1.11-.74,1.57-1.06a13.58,13.58,0,0,0,1.13-.86l.71-.57A1.61,1.61,0,0,1,225,272.84Z" style="fill:#fafafa"></path><path d="M235.11,266.84a6.49,6.49,0,0,1-1,.32,18.12,18.12,0,0,0-2.3.87,18.63,18.63,0,0,0-2.17,1.16,8.83,8.83,0,0,1-.88.53,4,4,0,0,1,.8-.65,13.69,13.69,0,0,1,4.51-2.05A4.63,4.63,0,0,1,235.11,266.84Z" style="fill:#fafafa"></path><path d="M234.34,259.9l-.42,0c-.27,0-.66-.12-1.18-.16a24.09,24.09,0,0,0-4.37-.05,41.75,41.75,0,0,0-6.4,1.07c-2.38.57-5,1.33-7.7,2.05a43.87,43.87,0,0,1-7.87,1.35,22.39,22.39,0,0,1-6.49-.42,14.67,14.67,0,0,1-4.11-1.56,11.9,11.9,0,0,1-1.35-.88l.37.21a10.32,10.32,0,0,0,1,.6,15.22,15.22,0,0,0,4.1,1.49,23,23,0,0,0,6.45.37,43.89,43.89,0,0,0,7.83-1.37c2.73-.71,5.32-1.47,7.71-2a39.38,39.38,0,0,1,6.43-1,22.32,22.32,0,0,1,4.39.12C233.78,259.76,234.34,259.9,234.34,259.9Z" style="fill:#fafafa"></path><path d="M211.56,250.67a.53.53,0,0,1-.22,0,5.24,5.24,0,0,1-.62-.08,16.39,16.39,0,0,1-2.26-.52c-1.89-.54-4.35-1.68-7.1-2.8a18.62,18.62,0,0,0-7.38-1.55,10.21,10.21,0,0,0-2.27.32c-.52.14-.8.25-.81.23a5.82,5.82,0,0,1,.79-.31,9.53,9.53,0,0,1,2.29-.39,18,18,0,0,1,7.46,1.51c2.76,1.12,5.2,2.28,7.06,2.85a20.86,20.86,0,0,0,2.23.58Z" style="fill:#fafafa"></path><path d="M238.06,251.72a15.17,15.17,0,0,1-3.46-.39c-2.12-.4-4.93-1.45-8.06-2.38a18.67,18.67,0,0,0-8.26-.75,10.66,10.66,0,0,0-2.42.74c-.54.25-.83.42-.84.4a6,6,0,0,1,.81-.47,9.11,9.11,0,0,1,2.42-.81,18,18,0,0,1,8.34.69c3.16.94,5.94,2,8,2.44a20.92,20.92,0,0,0,2.51.43c.29,0,.53,0,.68.06Z" style="fill:#fafafa"></path><path d="M232,237.18s-.53.17-1.5.37a21.8,21.8,0,0,1-4.19.4,35.71,35.71,0,0,1-6.21-.54c-2.32-.38-4.84-.95-7.47-1.56a74.74,74.74,0,0,0-7.5-1.37,30.66,30.66,0,0,0-6.2-.14,20,20,0,0,0-4.11.77c-.48.12-.83.28-1.08.35a3.77,3.77,0,0,1-.38.12,13.3,13.3,0,0,1,1.44-.55,19.13,19.13,0,0,1,4.12-.84,30,30,0,0,1,6.23.1,69.2,69.2,0,0,1,7.52,1.36c2.64.6,5.15,1.18,7.46,1.57a36.81,36.81,0,0,0,6.18.58,23.62,23.62,0,0,0,4.17-.33c.5-.07.87-.17,1.12-.22Z" style="fill:#fafafa"></path><path d="M229.93,220.83a40.76,40.76,0,0,1-4.69,1.5A51.55,51.55,0,0,1,213.47,224a52.25,52.25,0,0,1-11.84-1.13,40.75,40.75,0,0,1-4.75-1.31l.33.08.95.25c.82.24,2,.53,3.5.83a53.34,53.34,0,0,0,23.54-.49c1.47-.37,2.66-.71,3.47-1l.93-.29A1.36,1.36,0,0,1,229.93,220.83Z" style="fill:#fafafa"></path><path d="M252.6,224.74a13.24,13.24,0,0,1-2.95-1,16.71,16.71,0,0,1-3-1.65,18.45,18.45,0,0,1-5.49-6.12,17.34,17.34,0,0,1-1.33-3.11,13.26,13.26,0,0,1-.62-3,.64.64,0,0,1,.06.21l.12.61a16.2,16.2,0,0,0,.58,2.18,19.32,19.32,0,0,0,1.36,3.06,20.76,20.76,0,0,0,2.38,3.32,20.46,20.46,0,0,0,3.05,2.73,18.64,18.64,0,0,0,2.9,1.68,15.76,15.76,0,0,0,2.1.82l.59.18Z" style="fill:#fafafa"></path><path d="M261.2,210.11a4.17,4.17,0,0,1-.48-.48c-.3-.32-.73-.77-1.28-1.32a49.47,49.47,0,0,0-4.55-4,46,46,0,0,0-5-3.36c-.67-.39-1.22-.69-1.6-.9a4.66,4.66,0,0,1-.58-.34,4.87,4.87,0,0,1,.62.27c.39.18,1,.47,1.64.84a40.59,40.59,0,0,1,5.08,3.33,39.61,39.61,0,0,1,4.53,4.05c.54.56,1,1,1.24,1.37A4.13,4.13,0,0,1,261.2,210.11Z" style="fill:#fafafa"></path><path d="M269,197.68a3.22,3.22,0,0,1-.41-.44L267.5,196c-.93-1.06-2.24-2.48-3.76-4s-3-2.79-4-3.71l-1.26-1.08a3.92,3.92,0,0,1-.45-.41,4.39,4.39,0,0,1,.5.35c.31.23.76.58,1.3,1,1.09.89,2.55,2.17,4.08,3.68s2.82,2.95,3.72,4c.45.54.81,1,1.05,1.29A2.67,2.67,0,0,1,269,197.68Z" style="fill:#fafafa"></path><path d="M242.81,237.39s-.32-.5-.87-1.28a17.5,17.5,0,0,0-2.48-2.78,16.75,16.75,0,0,0-3-2.14c-.84-.46-1.39-.69-1.38-.73a2.22,2.22,0,0,1,.4.13,9.59,9.59,0,0,1,1.05.47,14.5,14.5,0,0,1,5.57,5,10.88,10.88,0,0,1,.58,1A2.13,2.13,0,0,1,242.81,237.39Z" style="fill:#fafafa"></path><path d="M192.37,221.6a2.32,2.32,0,0,1-.13.47c-.1.31-.27.74-.5,1.26a16,16,0,0,1-2.41,3.76A15.77,15.77,0,0,1,186,230a12.78,12.78,0,0,1-1.18.68,1.9,1.9,0,0,1-.45.2s.61-.35,1.54-1a17.39,17.39,0,0,0,3.29-3,17.7,17.7,0,0,0,2.44-3.68C192.11,222.25,192.33,221.58,192.37,221.6Z" style="fill:#fafafa"></path><path d="M177.49,217a4.91,4.91,0,0,1,.36-.53c.25-.33.61-.8,1.08-1.37a48.63,48.63,0,0,1,3.93-4.23,47.49,47.49,0,0,1,4.42-3.71c.59-.44,1.08-.78,1.43-1a3.55,3.55,0,0,1,.55-.34,6.32,6.32,0,0,1-.5.41l-1.39,1.05c-1.16.91-2.73,2.21-4.36,3.76s-3,3.05-4,4.16l-1.12,1.33A4,4,0,0,1,177.49,217Z" style="fill:#fafafa"></path><path d="M183.16,195.17a4.13,4.13,0,0,1-.47.45c-.31.28-.77.67-1.34,1.15-1.15.95-2.78,2.22-4.64,3.53s-3.61,2.41-4.89,3.17c-.64.38-1.17.68-1.53.88a4.76,4.76,0,0,1-.58.29,3.66,3.66,0,0,1,.53-.36l1.5-.94c1.26-.79,3-1.91,4.85-3.21s3.49-2.56,4.66-3.48l1.39-1.09A3.65,3.65,0,0,1,183.16,195.17Z" style="fill:#fafafa"></path><path d="M178.77,186.81a3.35,3.35,0,0,1-.68.09l-1.85.16c-1.56.13-3.71.33-6.08.65s-4.49.73-6,1.09c-.76.18-1.37.34-1.79.46a3.46,3.46,0,0,1-.67.15l.64-.23c.42-.14,1-.32,1.79-.52a52.11,52.11,0,0,1,6-1.15c2.37-.32,4.53-.5,6.1-.6l1.85-.1Z" style="fill:#fafafa"></path><path d="M179.11,172.19a4.3,4.3,0,0,1-.62,0l-1.67,0c-1.42,0-3.38.07-5.53.2s-4.11.29-5.52.44l-1.67.18a3.44,3.44,0,0,1-.61,0,4,4,0,0,1,.6-.13c.39-.07,1-.15,1.66-.24,1.41-.19,3.36-.39,5.52-.51s4.13-.16,5.55-.14c.71,0,1.28,0,1.68,0A2.55,2.55,0,0,1,179.11,172.19Z" style="fill:#fafafa"></path><path d="M232,172.56c-.09,3.77,4.78,6.35,4.49,10.1-.13,1.62-1.22,3-1.51,4.6-.4,2.13.68,4.24,1,6.39.65,4.43-2.18,8.89-6.1,11.06s-8.68,2.33-13.08,1.46" style="fill:#263238"></path><path d="M201.77,169.8c0,2-1.42,3.74-2.85,5.18s-3,2.91-3.44,4.9c-.73,3.52,2.55,7,1.61,10.49-.49,1.86-2.13,3.28-2.52,5.17a6.55,6.55,0,0,0,1.64,5.15c1.13,1.48,2.56,1.36,3.55,2.94a15.19,15.19,0,0,0,4.44,4.45c3.76,2.37,8.62-.43,10.53-.87" style="fill:#263238"></path><path d="M232.59,174.77c.17-1.83-1.44-3.35-3.1-4.12s-3.54-1.14-5-2.26a23.75,23.75,0,0,1-3.17-3.67,11.29,11.29,0,0,0-19.27,4c-.81,2.56-.55,5.67,1.39,7.53,2.27,2.15,5.83,1.92,8.92,1.48s6.59-.84,9,1.1c1.47,1.18,2.25,3,3.09,4.68s1.92,3.42,3.66,4.14,4.22-.19,4.4-2.06" style="fill:#263238"></path><path d="M225.65,173.89l-16-5.13c-5.17-.88-9,5.31-9.69,10.51-.73,5.78-1.39,12.87-1,17.24.83,8.79,7.44,10.32,7.44,10.32s-.15,2.62-.33,5.66a9.37,9.37,0,0,0,8.63,9.87h0a9.36,9.36,0,0,0,10-8.46l3.43-36.73A3.08,3.08,0,0,0,225.65,173.89Z" style="fill:#ffbe9d"></path><path d="M201,185.73c.12.15,1-.42,2.21-.34s2,.73,2.18.59,0-.33-.42-.63a3.06,3.06,0,0,0-3.51-.21C201,185.4,200.89,185.66,201,185.73Z" style="fill:#263238"></path><path d="M212.34,186.7c.13.15,1-.42,2.22-.34s2,.73,2.18.59-.05-.33-.42-.63a3.06,3.06,0,0,0-3.51-.21C212.42,186.37,212.28,186.63,212.34,186.7Z" style="fill:#263238"></path><path d="M207.85,193.48a7.5,7.5,0,0,0-1.93-.48c-.3-.05-.59-.13-.63-.34a1.67,1.67,0,0,1,.27-.9l1.05-2.27a38.81,38.81,0,0,0,2.42-6,40.47,40.47,0,0,0-2.89,5.78c-.36.8-.7,1.56-1,2.29a1.83,1.83,0,0,0-.24,1.2.81.81,0,0,0,.48.48,2.15,2.15,0,0,0,.52.1A7.88,7.88,0,0,0,207.85,193.48Z" style="fill:#263238"></path><path d="M206.43,206.83A17.06,17.06,0,0,0,218,205.27c-.1,0-3.39,5-11.67,3.63Z" style="fill:#eb996e"></path><path d="M208.18,196.41a2.18,2.18,0,0,1,2-.69,2,2,0,0,1,1.32.82,1.25,1.25,0,0,1,0,1.44,1.44,1.44,0,0,1-1.6.3,4.6,4.6,0,0,1-1.47-1,1.27,1.27,0,0,1-.32-.38.39.39,0,0,1,0-.45" style="fill:#77AA51"></path><path d="M211.47,195.4c.08-.54,0-.87-.13-.87s-.28,1.28-1.46,2.14-2.55.62-2.57.8.29.28.88.33a3.3,3.3,0,0,0,2.14-.6" style="fill:#263238"></path><path d="M212.24,180.84c.1.33,1.31.25,2.7.51s2.52.72,2.72.44-.08-.46-.52-.8a4.83,4.83,0,0,0-4.14-.73C212.47,180.44,212.2,180.68,212.24,180.84Z" style="fill:#263238"></path><path d="M201.64,180.43c.2.28,1,0,2,.1s1.82.3,2,0,0-.42-.38-.7a2.94,2.94,0,0,0-3.28-.1C201.69,180,201.56,180.29,201.64,180.43Z" style="fill:#263238"></path><path d="M227.27,204.05c-2.43.34-2.57-.89-4.25-2.66a7.89,7.89,0,0,1-2-6.78c.4-2.12,1.69-4.23,1.07-6.3-.82-2.73-4.52-3.78-5.35-6.51-.48-1.59.15-3.37-.42-4.94a5.84,5.84,0,0,0-3.41-3,14.9,14.9,0,0,1-4.15-2.11c-1.18-1-1.83-2.88-1-4.17a82.35,82.35,0,0,1,18.74,5.78,7.39,7.39,0,0,1,3.61,2.66c.81,1.39.66,3.11.49,4.71l-2.52,23.39" style="fill:#263238"></path><path d="M233.82,186.63a6.7,6.7,0,0,1,12.79-1.55c1.06,2.54.46,5.5-.82,7.93-1.53,2.89-4.44,5.43-7.68,5.08-3.06-.32-5.36-3.16-6.06-6.15s-.16-6.11.39-9.13" style="fill:#263238"></path><path d="M234.8,198.65s.22-.12.49-.47a4.35,4.35,0,0,0,.76-1.71,8.5,8.5,0,0,0,.08-2.75c-.11-1-.39-2.13-.57-3.29a8.15,8.15,0,0,1,0-3.23c.24-1,.75-1.75,1-2.51a3.3,3.3,0,0,0,.17-1.85,1.17,1.17,0,0,0-.3-.62s.09.23.15.64a3.51,3.51,0,0,1-.27,1.74,22.88,22.88,0,0,0-1.08,2.51,8.16,8.16,0,0,0,0,3.38c.18,1.18.47,2.27.6,3.27a8.74,8.74,0,0,1,0,2.66A5.41,5.41,0,0,1,234.8,198.65Z" style="fill:#455a64"></path><path d="M235.57,188.21a4.1,4.1,0,0,0,1.25,1.39,7.66,7.66,0,0,0,8.6.67,4.17,4.17,0,0,0,1.45-1.18c0-.05-.57.44-1.58.94a8.23,8.23,0,0,1-4.25.85,8.37,8.37,0,0,1-4.06-1.5C236.06,188.72,235.62,188.16,235.57,188.21Z" style="fill:#455a64"></path><path d="M235.91,189.6a4.4,4.4,0,0,0,.66,1.41,9.56,9.56,0,0,0,6.08,4.18,4,4,0,0,0,1.55.1c0-.06-.58-.12-1.49-.37a10.86,10.86,0,0,1-5.92-4.06A12.38,12.38,0,0,0,235.91,189.6Z" style="fill:#455a64"></path><path d="M233,201.47l.1-.1a3.34,3.34,0,0,0,.27-.34,4.62,4.62,0,0,0,.66-1.48,5.42,5.42,0,0,0,0-2.58,4.92,4.92,0,0,0-1.86-2.85c-1-.79-2.3-1.38-3.09-2.59a2.64,2.64,0,0,1-.35-2.08,12.23,12.23,0,0,1,.9-2.21,6.51,6.51,0,0,0,.2-5.2,5.55,5.55,0,0,0-1.63-2.3,6.86,6.86,0,0,0-2.6-1.27c-.93-.28-1.87-.46-2.72-.78a5.34,5.34,0,0,1-2.24-1.4,3.86,3.86,0,0,1-.86-2.34,21.75,21.75,0,0,0-.25-2.56,8.75,8.75,0,0,0-2.1-4.26,6.89,6.89,0,0,0-3.59-2.06,5.54,5.54,0,0,0-3.4.3,5.45,5.45,0,0,0-2,1.57,4.45,4.45,0,0,0-.77,1.44,2,2,0,0,0-.11.55,5.31,5.31,0,0,1,1-1.89,5.24,5.24,0,0,1,2-1.47,5.31,5.31,0,0,1,3.25-.24,6.62,6.62,0,0,1,3.41,2,8.52,8.52,0,0,1,2,4.12,20,20,0,0,1,.24,2.52,4.21,4.21,0,0,0,.94,2.56,5.8,5.8,0,0,0,2.38,1.51c.9.33,1.84.52,2.75.78A6.57,6.57,0,0,1,228,180a5.22,5.22,0,0,1,1.53,2.14,6.15,6.15,0,0,1-.17,4.93,12.05,12.05,0,0,0-.91,2.28,3,3,0,0,0,.41,2.32c.88,1.31,2.23,1.88,3.19,2.63a4.75,4.75,0,0,1,1.82,2.69,5.41,5.41,0,0,1,0,2.49A5.78,5.78,0,0,1,233,201.47Z" style="fill:#455a64"></path><path d="M233.89,177.13a.93.93,0,0,0,.13-.4,1.84,1.84,0,0,0-.22-1.17,2.91,2.91,0,0,0-1.38-1.29,4.56,4.56,0,0,0-2.5-.24c-.92.12-1.89.43-2.94.56a3.84,3.84,0,0,1-3.11-.68,6.92,6.92,0,0,1-1.68-3.25A13.08,13.08,0,0,0,220.4,167a12,12,0,0,0-6.33-4.66,6.89,6.89,0,0,0-3.48-.12,5.36,5.36,0,0,0-2.65,1.49,4.05,4.05,0,0,0-1.11,2.25,4,4,0,0,0,.18,1.88,3,3,0,0,0,.59,1,1.33,1.33,0,0,0,.31.28,3.92,3.92,0,0,1-.76-1.36,4,4,0,0,1,1-3.9,5.18,5.18,0,0,1,2.53-1.37,6.59,6.59,0,0,1,3.31.15,11.87,11.87,0,0,1,6.12,4.54,13.38,13.38,0,0,1,1.75,3.61,7.07,7.07,0,0,0,1.8,3.39,3.24,3.24,0,0,0,1.68.75,5.76,5.76,0,0,0,1.71,0c1.08-.16,2-.48,2.93-.61a4.48,4.48,0,0,1,2.37.16,2.86,2.86,0,0,1,1.34,1.17,1.9,1.9,0,0,1,.27,1.09C233.93,177,233.87,177.12,233.89,177.13Z" style="fill:#455a64"></path><path d="M224.92,55.39a1.3,1.3,0,0,1-.15.17c-.14.12-.29.28-.49.46l-1.89,1.74c-.41.38-.89.77-1.36,1.26l-1.49,1.63c-.52.6-1.15,1.17-1.68,1.89l-1.71,2.27a25.79,25.79,0,0,0-1.68,2.63c-.28.47-.59.93-.85,1.43l-.76,1.54c-.26.53-.52,1.06-.78,1.61s-.46,1.13-.69,1.71c-.49,1.14-.91,2.36-1.33,3.61-1.71,5-3.19,10.66-6.1,16.09a48,48,0,0,1-10.73,13.41l-2.93,2.55c-1,.78-1.91,1.55-2.79,2.32a55.17,55.17,0,0,0-4.68,4.52,32.47,32.47,0,0,0-3.29,4.24,17.88,17.88,0,0,0-1.06,1.92q-.22.45-.42.87c-.1.29-.2.56-.29.83a16.86,16.86,0,0,0-.71,3.37.82.82,0,0,1,0-.23c0-.18,0-.4,0-.67l0-.5c0-.18.07-.37.11-.59a9.24,9.24,0,0,1,.36-1.45l.28-.84.4-.9a21.16,21.16,0,0,1,1-2,31.91,31.91,0,0,1,3.27-4.32,52.44,52.44,0,0,1,4.67-4.61c.88-.78,1.81-1.56,2.79-2.35l2.89-2.54A48.31,48.31,0,0,0,203.5,93.18c2.88-5.35,4.37-11,6.1-16,.44-1.25.86-2.47,1.37-3.63.23-.58.47-1.15.7-1.71l.8-1.62c.27-.53.53-1,.78-1.55s.59-1,.87-1.44a27.84,27.84,0,0,1,1.73-2.63l1.75-2.27c.55-.71,1.19-1.29,1.72-1.88l1.53-1.61c.49-.48,1-.86,1.4-1.23l2-1.67A5,5,0,0,1,224.92,55.39Z" style="fill:#263238"></path><path d="M261.27,52c5.27-3,9.81-7.57,11.73-13.3a20.15,20.15,0,0,0-4.17-18.86c-8.09-8.7-17.43-9.11-26.83-3.51-8.82,5.26-15.36,14.31-16.4,24.52-.58,5.67.73,12.18,5.53,15.24,3.74,2.38,8.55,2,12.92,1.32C250,56.43,256,54.94,261.27,52Z" style="fill:#77AA51"></path><path d="M227.87,52.55a12.12,12.12,0,0,0-3.69.59c-.38.14-.79.35-.89.73a.92.92,0,0,0,.66,1,2.72,2.72,0,0,0,1.3,0,9.71,9.71,0,0,0,.48,2.12,1.1,1.1,0,0,0,.57.77.78.78,0,0,0,.73-.16,2.26,2.26,0,0,0,.47-.63,14.74,14.74,0,0,0,1.29-3.13" style="fill:#77AA51"></path><path d="M227,57.62a2.26,2.26,0,0,0,.47-.63,14.74,14.74,0,0,0,1.29-3.13l-.92-1.31a12.12,12.12,0,0,0-3.69.59c-.38.14-.79.35-.89.73a.92.92,0,0,0,.66,1,2.72,2.72,0,0,0,1.3,0,9.71,9.71,0,0,0,.48,2.12,1.1,1.1,0,0,0,.57.77A.78.78,0,0,0,227,57.62Z" style="fill:#77AA51"></path><path d="M225.56,54.56c-.11-.09.27-.7,1-1.12s1.47-.43,1.49-.29-.57.36-1.24.74S225.67,54.66,225.56,54.56Z" style="fill:#263238"></path><path d="M226.91,54.85c-.13,0-.06-.56.32-1.06s.84-.72.93-.6-.2.48-.52.91S227.05,54.91,226.91,54.85Z" style="fill:#263238"></path><g style="opacity:0.4"><path d="M261.27,52c5.27-3,9.81-7.57,11.73-13.3a20.15,20.15,0,0,0-4.17-18.86c-8.09-8.7-17.43-9.11-26.83-3.51-8.82,5.26-15.36,14.31-16.4,24.52-.58,5.67.73,12.18,5.53,15.24,3.74,2.38,8.55,2,12.92,1.32C250,56.43,256,54.94,261.27,52Z" style="fill:#fff"></path></g><g style="opacity:0.4"><path d="M227,57.62a2.26,2.26,0,0,0,.47-.63,13.85,13.85,0,0,0,1.26-3,14,14,0,0,1-1-1.41,11.36,11.36,0,0,0-3.56.59c-.38.14-.79.35-.89.73a.92.92,0,0,0,.66,1,2.72,2.72,0,0,0,1.3,0,9.71,9.71,0,0,0,.48,2.12,1.1,1.1,0,0,0,.57.77A.78.78,0,0,0,227,57.62Z" style="fill:#fff"></path></g><path d="M293.67,89.28a1.76,1.76,0,0,1-.32.07l-1,.12a32,32,0,0,0-3.64.55,53.59,53.59,0,0,0-12.84,4.27c-5.23,2.35-11.16,5.77-17.91,9.26a88.72,88.72,0,0,1-10.9,4.86c-1,.39-2,.64-3,1a31.11,31.11,0,0,1-3.09.81,41.24,41.24,0,0,1-6.43,1,102,102,0,0,1-12.82.12c-4.13-.17-8.1-.33-11.9-.35a62.81,62.81,0,0,0-10.7.74,28.45,28.45,0,0,0-8.81,2.92,23.14,23.14,0,0,0-6.16,4.55,50.22,50.22,0,0,0-3.68,4.53c-.92,1.28-1.65,2.28-2.17,3l-.56.78c-.13.17-.2.26-.21.25a1.75,1.75,0,0,1,.16-.28l.53-.81c.46-.7,1.16-1.74,2.09-3A46.37,46.37,0,0,1,184,119a23,23,0,0,1,6.19-4.67,28.42,28.42,0,0,1,8.92-3,60.66,60.66,0,0,1,10.78-.79c3.8,0,7.79.15,11.91.31a102.77,102.77,0,0,0,12.75-.13,39.35,39.35,0,0,0,6.37-1,31,31,0,0,0,3.05-.79c1-.33,2-.58,3-1a90.77,90.77,0,0,0,10.85-4.8c6.75-3.46,12.7-6.86,18-9.17a52.15,52.15,0,0,1,12.95-4.14,26.33,26.33,0,0,1,3.67-.45l1-.08Z" style="fill:#263238"></path><path d="M281.71,93.59a2,2,0,0,0,.66-.3,13.35,13.35,0,0,0,2.44-2l-.17-1.47a11.1,11.1,0,0,0-3.27-1.16,1.18,1.18,0,0,0-1,.21.86.86,0,0,0,.08,1.11,2.51,2.51,0,0,0,1.06.58,9.43,9.43,0,0,0-.55,2,1,1,0,0,0,.12.88A.74.74,0,0,0,281.71,93.59Z" style="fill:#77AA51"></path><g style="opacity:0.4"><path d="M281.71,93.59a2,2,0,0,0,.66-.3,13.35,13.35,0,0,0,2.44-2l-.17-1.47a11.1,11.1,0,0,0-3.27-1.16,1.18,1.18,0,0,0-1,.21.86.86,0,0,0,.08,1.11,2.51,2.51,0,0,0,1.06.58,9.43,9.43,0,0,0-.55,2,1,1,0,0,0,.12.88A.74.74,0,0,0,281.71,93.59Z" style="fill:#fff"></path></g><path d="M281.87,90.44c-.05-.12.52-.47,1.33-.48s1.39.31,1.34.44-.63.07-1.33.08S281.92,90.58,281.87,90.44Z" style="fill:#263238"></path><path d="M282.84,91.28c-.09-.1.19-.5.72-.74s1-.2,1-.06-.37.32-.82.53S282.94,91.4,282.84,91.28Z" style="fill:#263238"></path><path d="M312.15,104.18c5.62-.08,11.37-1.82,15.48-5.65a18.75,18.75,0,0,0,5-17.23c-2.74-10.69-10.19-15.17-20.34-14.78-9.53.38-18.89,4.86-24.27,12.73-3,4.37-4.81,10.26-2.25,14.89,2,3.6,6.07,5.45,10,6.82C301,102.83,306.54,104.27,312.15,104.18Z" style="fill:#77AA51"></path><g style="opacity:0.4"><path d="M312.15,104.18c5.62-.08,11.37-1.82,15.48-5.65a18.75,18.75,0,0,0,5-17.23c-2.74-10.69-10.19-15.17-20.34-14.78-9.53.38-18.89,4.86-24.27,12.73-3,4.37-4.81,10.26-2.25,14.89,2,3.6,6.07,5.45,10,6.82C301,102.83,306.54,104.27,312.15,104.18Z" style="fill:#fff"></path></g><path d="M231.23,94.18a3.63,3.63,0,0,1-.61.3,13.5,13.5,0,0,0-1.7.84,21.1,21.1,0,0,0-5.33,4.49c-2,2.19-4,5.13-6.48,8.2a32.79,32.79,0,0,1-4.31,4.47,20.9,20.9,0,0,1-5.76,3.38,46.34,46.34,0,0,1-6.37,2c-2.08.51-4.13.92-6.06,1.26-3.86.67-7.35,1.5-9.81,3.15a26.12,26.12,0,0,0-5.16,4.7c-.54.63-.95,1.14-1.22,1.48a4.21,4.21,0,0,1-.43.51,2.42,2.42,0,0,1,.35-.57c.24-.37.62-.89,1.14-1.54a24.49,24.49,0,0,1,5.11-4.89c2.51-1.74,6.07-2.62,9.93-3.31,1.94-.35,3.95-.77,6-1.29a46.41,46.41,0,0,0,6.3-1.94,21,21,0,0,0,5.64-3.29,32.53,32.53,0,0,0,4.26-4.39c2.49-3,4.52-6,6.57-8.14a19.94,19.94,0,0,1,5.51-4.41,9.81,9.81,0,0,1,1.77-.77A4.86,4.86,0,0,1,231.23,94.18Z" style="fill:#263238"></path><path d="M267.92,88.84c5.67-4.16,10.26-10.09,11.69-17s-1.38-16.06-7.41-21.17c-10.53-8.91-21.36-8.09-31.42-.33-9.45,7.27-15.73,18.62-15.53,30.54.12,6.61,2.53,13.94,8.49,16.8,4.64,2.23,10.13,1.15,15.08-.26C255.57,95.52,262.26,93,267.92,88.84Z" style="fill:#77AA51"></path><g style="opacity:0.2"><path d="M274,64.6a2.24,2.24,0,0,1,2,.26,3.22,3.22,0,0,1,.67,4.45,2.18,2.18,0,0,1-1.86.84,2.92,2.92,0,0,1-1.82-.81,2.71,2.71,0,0,1-.89-1.61,2.75,2.75,0,0,1,.37-1.81A3,3,0,0,1,274,64.6Z" style="fill:#fff"></path></g><path d="M229.49,94.12a13.83,13.83,0,0,0-4.17,1.19c-.42.2-.86.5-.92,1a1.06,1.06,0,0,0,.89,1.07,3.09,3.09,0,0,0,1.5-.17,12.16,12.16,0,0,0,.85,2.39,1.3,1.3,0,0,0,.76.81,1,1,0,0,0,.83-.3,2.52,2.52,0,0,0,.45-.78,16.75,16.75,0,0,0,1-3.8" style="fill:#77AA51"></path><path d="M229.22,100.07a2.37,2.37,0,0,0,.46-.78,16.75,16.75,0,0,0,1-3.8l-1.24-1.37a13.83,13.83,0,0,0-4.17,1.19c-.42.2-.86.5-.92,1a1.06,1.06,0,0,0,.89,1.07,3.09,3.09,0,0,0,1.5-.17,12.16,12.16,0,0,0,.85,2.39,1.3,1.3,0,0,0,.76.81A.92.92,0,0,0,229.22,100.07Z" style="fill:#77AA51"></path><path d="M227.86,94.42a3.76,3.76,0,0,0,2.61,2.41l.07-.3.19-.88-1.38-1.52A9.93,9.93,0,0,0,227.86,94.42Z" style="opacity:0.30000000000000004"></path><path d="M227.11,96.75c-.12-.07.24-.82,1-1.4s1.62-.71,1.65-.58-.62.47-1.34,1S227.23,96.84,227.11,96.75Z" style="fill:#263238"></path><path d="M228.71,96.9c-.14,0-.11-.62.25-1.25s.86-.94.95-.84-.19.55-.5,1.1S228.85,96.94,228.71,96.9Z" style="fill:#263238"></path><g style="opacity:0.2"><path d="M259.84,86.93c-.23-.7.51-1.6,1.64-2.68l4.29-3.89,4.12-4.06c1.14-1.07,2.08-1.76,2.77-1.49s.91,1.49.44,3.29a14,14,0,0,1-10,9.46C261.28,87.92,260.06,87.6,259.84,86.93Z" style="fill:#fff"></path></g><path d="M246.68,71.05Z" style="fill:#fafafa"></path><path d="M246.68,71.05l.25-.63A2.85,2.85,0,0,0,246.68,71.05Z" style="fill:#fafafa"></path><path d="M251,69.2a3,3,0,0,0-4.31,1.85,3.19,3.19,0,0,0,.84,3.26A3.11,3.11,0,1,0,251,69.2Z" style="fill:#fafafa"></path><path d="M243.82,89.6s0,0,0,0Z" style="fill:#fafafa"></path><path d="M243.82,89.6l.25-.63A4.35,4.35,0,0,0,243.82,89.6Z" style="fill:#fafafa"></path><path d="M248.14,87.75a3,3,0,0,0-4.32,1.85,3.19,3.19,0,0,0,.84,3.26,3.11,3.11,0,1,0,3.48-5.11Z" style="fill:#fafafa"></path><path d="M261.55,67.45s0,0,0,0Z" style="fill:#fafafa"></path><path d="M261.55,67.45l.25-.63A2.85,2.85,0,0,0,261.55,67.45Z" style="fill:#fafafa"></path><path d="M265.86,65.6a3,3,0,0,0-4.31,1.85,3.19,3.19,0,0,0,.83,3.26,3.11,3.11,0,1,0,3.48-5.11Z" style="fill:#fafafa"></path><path d="M259.72,84.7s0,0,0,0Z" style="fill:#fafafa"></path><path d="M259.72,84.7l.25-.62A2.78,2.78,0,0,0,259.72,84.7Z" style="fill:#fafafa"></path><path d="M264,82.85a3,3,0,0,0-4.31,1.86,3.18,3.18,0,0,0,.83,3.25A3.11,3.11,0,1,0,264,82.85Z" style="fill:#fafafa"></path><path d="M261.4,52.05s0,0,0,0Z" style="fill:#fafafa"></path><path d="M261.4,52.05l.25-.62A2.78,2.78,0,0,0,261.4,52.05Z" style="fill:#fafafa"></path><path d="M265.71,50.2a3,3,0,0,0-4.31,1.86,3.18,3.18,0,0,0,.83,3.25,3.11,3.11,0,1,0,3.48-5.11Z" style="fill:#fafafa"></path><path d="M245.1,55.3s0,0,0,0Z" style="fill:#fafafa"></path><path d="M245.1,55.3l.25-.63A3.45,3.45,0,0,0,245.1,55.3Z" style="fill:#fafafa"></path><path d="M249.42,53.45a3,3,0,0,0-4.32,1.85,3.19,3.19,0,0,0,.84,3.26,3.11,3.11,0,1,0,3.48-5.11Z" style="fill:#fafafa"></path><path d="M231.8,69.28s0,0,0,0Z" style="fill:#fafafa"></path><path d="M231.8,69.28l.24-.63A3.41,3.41,0,0,0,231.8,69.28Z" style="fill:#fafafa"></path><path d="M236.11,67.42a3,3,0,0,0-4.32,1.86,3.17,3.17,0,0,0,.84,3.25,3.11,3.11,0,1,0,3.48-5.11Z" style="fill:#fafafa"></path><path d="M230.93,83.28Z" style="fill:#fafafa"></path><path d="M230.93,83.28l.25-.63A2.85,2.85,0,0,0,230.93,83.28Z" style="fill:#fafafa"></path><path d="M235.24,81.43a3,3,0,0,0-4.31,1.85,3.19,3.19,0,0,0,.84,3.26,3.11,3.11,0,1,0,3.47-5.11Z" style="fill:#fafafa"></path><path d="M470.43,79c5.79-4,10.57-9.81,12.19-16.66S481.7,46.24,475.8,41c-10.29-9.22-21.17-8.71-31.47-1.23-9.67,7-16.29,18.21-16.42,30.16-.07,6.62,2.13,14,8,17.07,4.59,2.36,10.12,1.45,15.12.17C457.87,85.38,464.64,83,470.43,79Z" style="fill:#77AA51"></path><g style="opacity:0.2"><path d="M477.21,54.93a2.2,2.2,0,0,1,2,.32,3.11,3.11,0,0,1,1.19,2.12,3.06,3.06,0,0,1-.65,2.35,2.16,2.16,0,0,1-1.88.79,2.94,2.94,0,0,1-1.8-.86,2.7,2.7,0,0,1-.42-3.45A3,3,0,0,1,477.21,54.93Z" style="fill:#fff"></path></g><path d="M431.78,83.23a14,14,0,0,0-4.21,1.08c-.43.19-.88.48-.95.94a1.07,1.07,0,0,0,.86,1.09,3,3,0,0,0,1.51-.13,12,12,0,0,0,.78,2.42,1.31,1.31,0,0,0,.74.83.89.89,0,0,0,.83-.27,2.38,2.38,0,0,0,.48-.77A16.28,16.28,0,0,0,433,84.65" style="fill:#77AA51"></path><path d="M431.34,89.19a2.38,2.38,0,0,0,.48-.77A16.28,16.28,0,0,0,433,84.65l-1.2-1.42a14,14,0,0,0-4.21,1.08c-.43.19-.88.48-.95.94a1.07,1.07,0,0,0,.86,1.09,3,3,0,0,0,1.51-.13,12,12,0,0,0,.78,2.42,1.31,1.31,0,0,0,.74.83A.89.89,0,0,0,431.34,89.19Z" style="fill:#77AA51"></path><path d="M430.14,83.49A3.76,3.76,0,0,0,432.68,86l.08-.3.21-.88-1.33-1.56A9.88,9.88,0,0,0,430.14,83.49Z" style="opacity:0.30000000000000004"></path><path d="M429.32,85.8c-.12-.07.26-.81,1.08-1.37s1.65-.67,1.68-.53-.65.44-1.38,1S429.44,85.89,429.32,85.8Z" style="fill:#263238"></path><path d="M430.92,86c-.14,0-.09-.63.28-1.24s.89-.93,1-.82-.2.55-.53,1.09S431.06,86,430.92,86Z" style="fill:#263238"></path><g style="opacity:0.2"><path d="M462.39,76.89c-.21-.7.56-1.58,1.72-2.63s2.75-2.35,4.4-3.78l4.25-4c1.17-1,2.13-1.71,2.81-1.42s.87,1.52.35,3.32a14,14,0,0,1-10.28,9.18C463.8,77.93,462.58,77.57,462.39,76.89Z" style="fill:#fff"></path></g><path d="M317.94,110.19a5.69,5.69,0,0,1-.67,1.93,18.77,18.77,0,0,1-3.5,4.33,70.37,70.37,0,0,1-6.3,5.31c-1.23.95-2.51,1.93-3.84,3a41.55,41.55,0,0,1-4.41,2.83c-3.07,1.8-6.08,3.48-8.13,5.74a15,15,0,0,0-3.25,7.31,10.61,10.61,0,0,0,.54,5.38c.48,1.2.94,1.78.89,1.81s-.13-.13-.33-.41a6.78,6.78,0,0,1-.75-1.32,10.45,10.45,0,0,1-.71-5.51,15,15,0,0,1,3.25-7.57c2.11-2.38,5.16-4.08,8.23-5.88a45.21,45.21,0,0,0,4.36-2.78c1.32-1,2.63-2,3.86-3a79.45,79.45,0,0,0,6.34-5.2,19.84,19.84,0,0,0,3.57-4.16C317.74,110.9,317.87,110.17,317.94,110.19Z" style="fill:#263238"></path><path d="M351.89,94.82c4.08-4.72,6.88-10.77,6.75-17A20.82,20.82,0,0,0,348,61c-10.88-5.62-20.1-2.76-27.27,6-6.73,8.17-9.93,19.24-7.38,29.51,1.41,5.71,4.95,11.57,10.67,12.87,4.46,1,9-1,13-3.22C342.52,103.05,347.81,99.53,351.89,94.82Z" style="fill:#77AA51"></path><path d="M319.66,107a12.48,12.48,0,0,0-3.37,1.86,1.32,1.32,0,0,0-.61,1,1,1,0,0,0,1,.74,2.73,2.73,0,0,0,1.27-.44,10.48,10.48,0,0,0,1.2,1.9,1.15,1.15,0,0,0,.82.55.82.82,0,0,0,.66-.42,2.08,2.08,0,0,0,.23-.77A14.57,14.57,0,0,0,321,108" style="fill:#77AA51"></path><path d="M320.62,112.22a2.08,2.08,0,0,0,.23-.77A14.57,14.57,0,0,0,321,108l-1.35-.95a12.48,12.48,0,0,0-3.37,1.86,1.32,1.32,0,0,0-.61,1,1,1,0,0,0,1,.74,2.73,2.73,0,0,0,1.27-.44,10.48,10.48,0,0,0,1.2,1.9,1.15,1.15,0,0,0,.82.55A.82.82,0,0,0,320.62,112.22Z" style="fill:#77AA51"></path><path d="M318.12,109.76c-.13,0,0-.77.61-1.44s1.27-.93,1.34-.8-.44.55-.95,1.14S318.26,109.82,318.12,109.76Z" style="fill:#263238"></path><path d="M319.54,109.58c-.14,0-.25-.53-.06-1.14s.57-1,.69-.91,0,.53-.19,1.06S319.69,109.58,319.54,109.58Z" style="fill:#263238"></path><g style="opacity:0.30000000000000004"><path d="M351.89,94.82c4.08-4.72,6.88-10.77,6.75-17A20.82,20.82,0,0,0,348,61c-10.88-5.62-20.1-2.76-27.27,6-6.73,8.17-9.93,19.24-7.38,29.51,1.41,5.71,4.95,11.57,10.67,12.87,4.46,1,9-1,13-3.22C342.52,103.05,347.81,99.53,351.89,94.82Z"></path></g><g style="opacity:0.30000000000000004"><path d="M320.62,112.22a2.08,2.08,0,0,0,.23-.77,14.18,14.18,0,0,0,.17-3.38,13.86,13.86,0,0,1-1.48-1,11.69,11.69,0,0,0-3.25,1.82,1.32,1.32,0,0,0-.61,1,1,1,0,0,0,1,.74,2.73,2.73,0,0,0,1.27-.44,10.48,10.48,0,0,0,1.2,1.9,1.15,1.15,0,0,0,.82.55A.82.82,0,0,0,320.62,112.22Z"></path></g><path d="M404.45,104.24a1.45,1.45,0,0,1-.33.06l-1,.13a31,31,0,0,0-3.77.58,56.07,56.07,0,0,0-13.26,4.51c-5.4,2.46-11.51,6-18.52,9.61a84.17,84.17,0,0,1-11.38,4.8c-1,.3-2.05.69-3.12.92s-2.13.51-3.22.72a52.82,52.82,0,0,1-6.7.76c-9.11.44-17.73-.73-25.56-.21A46.74,46.74,0,0,0,306.68,128,33.68,33.68,0,0,0,298,132.1a24.62,24.62,0,0,0-5.94,5.26,13.2,13.2,0,0,0-2.91,7.52c0,.63,0,1.17,0,1.61s.07.73.09,1a1.75,1.75,0,0,1,0,.34,1.52,1.52,0,0,1-.07-.33c0-.25-.09-.57-.15-1s0-1-.07-1.62a13.93,13.93,0,0,1,.28-2.2,13.72,13.72,0,0,1,2.56-5.49,24.54,24.54,0,0,1,6-5.39,34,34,0,0,1,8.76-4.26,47.22,47.22,0,0,1,11-1.89c7.89-.55,16.53.61,25.56.17a53.51,53.51,0,0,0,6.64-.75c1.07-.21,2.13-.48,3.18-.71s2.07-.61,3.09-.9a85.65,85.65,0,0,0,11.32-4.75c7-3.55,13.15-7.09,18.59-9.51a54,54,0,0,1,13.37-4.38,29.76,29.76,0,0,1,3.8-.49l1-.07A1.24,1.24,0,0,1,404.45,104.24Z" style="fill:#263238"></path><path d="M392.68,110.48a2.42,2.42,0,0,0,.78-.36,15.44,15.44,0,0,0,2.88-2.34l-.2-1.74a13.15,13.15,0,0,0-3.86-1.36,1.35,1.35,0,0,0-1.23.24,1,1,0,0,0,.1,1.31,3,3,0,0,0,1.25.69,11.52,11.52,0,0,0-.66,2.29,1.24,1.24,0,0,0,.15,1A.85.85,0,0,0,392.68,110.48Z" style="fill:#77AA51"></path><g style="opacity:0.4"><path d="M392.68,110.48a2.42,2.42,0,0,0,.78-.36,15.44,15.44,0,0,0,2.88-2.34l-.2-1.74a13.15,13.15,0,0,0-3.86-1.36,1.35,1.35,0,0,0-1.23.24,1,1,0,0,0,.1,1.31,3,3,0,0,0,1.25.69,11.52,11.52,0,0,0-.66,2.29,1.24,1.24,0,0,0,.15,1A.85.85,0,0,0,392.68,110.48Z" style="fill:#fff"></path></g><path d="M392.87,106.77c-.06-.13.63-.52,1.57-.53s1.63.35,1.58.48-.73,0-1.57,0S392.92,106.91,392.87,106.77Z" style="fill:#263238"></path><path d="M394,107.76c-.1-.11.25-.56.87-.84s1.18-.26,1.2-.12-.45.34-1,.59S394.11,107.87,394,107.76Z" style="fill:#263238"></path><path d="M428.59,123c6.63-.1,13.41-2.16,18.26-6.67A22.1,22.1,0,0,0,452.72,96c-3.23-12.61-12-17.9-24-17.43-11.24.44-22.28,5.73-28.63,15-3.52,5.15-5.68,12.11-2.65,17.56,2.35,4.25,7.16,6.43,11.74,8C415.44,121.37,422,123.08,428.59,123Z" style="fill:#77AA51"></path><g style="opacity:0.4"><path d="M428.59,123c6.63-.1,13.41-2.16,18.26-6.67A22.1,22.1,0,0,0,452.72,96c-3.23-12.61-12-17.9-24-17.43-11.24.44-22.28,5.73-28.63,15-3.52,5.15-5.68,12.11-2.65,17.56,2.35,4.25,7.16,6.43,11.74,8C415.44,121.37,422,123.08,428.59,123Z" style="fill:#fff"></path></g><path d="M334.57,147.41a3.25,3.25,0,0,1-.63.08l-1.81.11a36.32,36.32,0,0,1-6.68-.2,19,19,0,0,1-4.49-1.15,13.84,13.84,0,0,1-4.52-2.85,15.8,15.8,0,0,1-3.23-4.92,16.81,16.81,0,0,0-3.3-5.17,9.62,9.62,0,0,0-5.5-2.39,10.48,10.48,0,0,0-5.56.93,14,14,0,0,0-6.67,6.81,19.56,19.56,0,0,0-1.71,6.36c-.08.78-.1,1.39-.13,1.8a2.42,2.42,0,0,1,0,.63,4.53,4.53,0,0,1-.05-.63c0-.42,0-1,0-1.82a18.87,18.87,0,0,1,1.57-6.49,14.29,14.29,0,0,1,6.81-7.1,11,11,0,0,1,5.81-1,10.06,10.06,0,0,1,5.8,2.52,17,17,0,0,1,3.41,5.33,15.4,15.4,0,0,0,3.1,4.8,16,16,0,0,0,8.73,4,41.87,41.87,0,0,0,6.62.36l1.82,0A2.58,2.58,0,0,1,334.57,147.41Z" style="fill:#263238"></path><path d="M375.5,161c7.34-.89,14.62-4,19.47-9.53s7-15.44,4.14-23.24c-5.05-13.61-15.41-18.44-28.64-16.53-12.42,1.8-24,9-30,20-3.3,6.12-4.88,14.08-.89,19.78,3.1,4.44,8.7,6.3,14,7.55C360.72,160.72,368.16,161.85,375.5,161Z" style="fill:#77AA51"></path><g style="opacity:0.2"><path d="M393.59,141.88a2.17,2.17,0,0,1,1.63,1.26,3.33,3.33,0,0,1,0,2.53,3.24,3.24,0,0,1-1.71,1.87,2.13,2.13,0,0,1-2.05-.14,2.84,2.84,0,0,1-1.17-1.64,3,3,0,0,1,1.3-3.43A2.9,2.9,0,0,1,393.59,141.88Z" style="fill:#fff"></path></g><path d="M337.53,146a14.55,14.55,0,0,0-4.44-1.06,1.51,1.51,0,0,0-1.34.41,1.11,1.11,0,0,0,.26,1.44,3.45,3.45,0,0,0,1.47.62A12.19,12.19,0,0,0,333,150a1.38,1.38,0,0,0,.29,1.14,1,1,0,0,0,.9.15,2.45,2.45,0,0,0,.82-.49,16.87,16.87,0,0,0,2.92-2.93" style="fill:#77AA51"></path><path d="M334.21,151.29a2.45,2.45,0,0,0,.82-.49,16.87,16.87,0,0,0,2.92-2.93l-.42-1.9a14.55,14.55,0,0,0-4.44-1.06,1.51,1.51,0,0,0-1.34.41,1.11,1.11,0,0,0,.26,1.44,3.45,3.45,0,0,0,1.47.62A12.19,12.19,0,0,0,333,150a1.38,1.38,0,0,0,.29,1.14A1,1,0,0,0,334.21,151.29Z" style="fill:#77AA51"></path><path d="M335.88,145.4A4,4,0,0,0,337,149l.21-.23.63-.72-.48-2.1A9.65,9.65,0,0,0,335.88,145.4Z" style="opacity:0.30000000000000004"></path><path d="M334,147.15c-.07-.12.65-.61,1.69-.73s1.84.18,1.81.31-.82.09-1.75.21S334.05,147.29,334,147.15Z" style="fill:#263238"></path><path d="M335.37,148.12c-.1-.09.24-.62.88-1s1.27-.44,1.31-.3-.47.4-1,.74S335.48,148.22,335.37,148.12Z" style="fill:#263238"></path><g style="opacity:0.2"><path d="M369.07,155.05c.14-.73,1.28-1.14,2.89-1.51s3.7-.77,6-1.33,4.3-1.21,5.9-1.64,2.79-.6,3.25,0,0,1.78-1.34,3.17a14.95,14.95,0,0,1-14,3.5C369.89,156.63,368.93,155.73,369.07,155.05Z" style="fill:#fff"></path></g><path d="M355.16,160a3.79,3.79,0,0,1,0-.38c0-.31,0-.67-.05-1.09-.05-1-.11-2.39-.18-4a81.71,81.71,0,0,0-1.5-13.11,38.58,38.58,0,0,0-4.73-12.24,28.12,28.12,0,0,0-2.33-3.25c-.29-.37-.55-.64-.7-.83a3.57,3.57,0,0,1-.24-.29s.38.36,1,1.07a25.77,25.77,0,0,1,2.39,3.22,37.34,37.34,0,0,1,4.81,12.28,78.16,78.16,0,0,1,1.45,13.14c.06,1.69.09,3.06.11,4,0,.42,0,.78,0,1.09S355.16,160,355.16,160Z" style="fill:#fafafa"></path><path d="M375.56,160.56s0-.17-.06-.5-.08-.86-.14-1.43c-.1-1.24-.3-3-.62-5.23s-.78-4.81-1.42-7.68-1.5-6-2.56-9.22-2.28-6.22-3.46-8.92-2.38-5-3.46-7-2-3.51-2.63-4.57c-.3-.48-.54-.89-.75-1.22s-.25-.43-.25-.43,1.59,2.25,3.76,6.15c1.09,1.94,2.29,4.31,3.51,7s2.4,5.7,3.48,8.93,1.9,6.36,2.55,9.24,1.09,5.49,1.38,7.7C375.48,157.8,375.56,160.56,375.56,160.56Z" style="fill:#fafafa"></path><path d="M391.08,155.8s0-.17,0-.47.08-.82.13-1.35.13-1.3.17-2.13.12-1.78.11-2.83a63.61,63.61,0,0,0-.3-7.35,70.46,70.46,0,0,0-1.53-8.88,69.59,69.59,0,0,0-2.78-8.57,62.78,62.78,0,0,0-3.17-6.65c-.48-.93-1-1.73-1.41-2.45s-.81-1.32-1.14-1.8l-.75-1.13c-.16-.26-.24-.41-.24-.41l.28.38.77,1.11c.34.48.75,1.07,1.18,1.79s.95,1.51,1.44,2.44a59.63,59.63,0,0,1,3.21,6.65,66.1,66.1,0,0,1,2.81,8.59,67.33,67.33,0,0,1,1.52,8.91,58.9,58.9,0,0,1,.25,7.38c0,1.05-.09,2-.14,2.83s-.12,1.55-.2,2.13-.12,1-.17,1.34S391.08,155.8,391.08,155.8Z" style="fill:#fafafa"></path><path d="M351.13,96.45a7.55,7.55,0,0,1-.22.84l-.73,2.39c-.31,1-.83,2.26-1.37,3.71-.27.72-.65,1.45-1,2.25q-.29.6-.57,1.23l-.68,1.25a39.1,39.1,0,0,1-8.35,10.74,44,44,0,0,1-6.49,4.8c-2.37,1.48-4.93,2.83-7.49,4.28-5.2,3-10.89,4.06-15.85,5.16a66.09,66.09,0,0,0-7,1.81,23.59,23.59,0,0,0-5.66,2.69,17.23,17.23,0,0,0-3.9,3.38,10.61,10.61,0,0,0-1.92,3.37,12,12,0,0,0-.49,3.29l0-.22c0-.18,0-.39,0-.65a9.1,9.1,0,0,1,.37-2.48,10.52,10.52,0,0,1,1.88-3.5,17.89,17.89,0,0,1,3.92-3.5,23.87,23.87,0,0,1,5.73-2.79,63.22,63.22,0,0,1,7-1.87c5-1.13,10.59-2.18,15.69-5.14,2.58-1.46,5.13-2.8,7.49-4.27a43.56,43.56,0,0,0,6.43-4.72,39.56,39.56,0,0,0,8.35-10.56c.24-.42.46-.83.69-1.23l.58-1.21c.36-.79.75-1.51,1-2.23.56-1.43,1.11-2.63,1.45-3.66s.62-1.77.82-2.35A4.36,4.36,0,0,1,351.13,96.45Z" style="fill:#263238"></path><path d="M388.3,77.83c4.34-5.53,7.17-12.48,6.68-19.49S389.33,43.24,382.15,40c-12.54-5.75-22.75-2-30.35,8.14-7.14,9.55-10.14,22.17-6.73,33.59,1.9,6.34,6.19,12.75,12.7,13.9,5.07.9,10.07-1.62,14.46-4.31C378.21,87.59,384,83.35,388.3,77.83Z" style="fill:#77AA51"></path><g style="opacity:0.2"><path d="M387.63,52.85a2.22,2.22,0,0,1,2-.3,3.09,3.09,0,0,1,1.76,1.68,3,3,0,0,1,.08,2.43A2.17,2.17,0,0,1,389.93,58a3,3,0,0,1-2-.29,2.68,2.68,0,0,1-1.42-3.16A3,3,0,0,1,387.63,52.85Z" style="fill:#fff"></path></g><path d="M352.71,93.27a14.12,14.12,0,0,0-3.7,2.27,1.47,1.47,0,0,0-.62,1.17,1.06,1.06,0,0,0,1.15.79,3.11,3.11,0,0,0,1.4-.57A12.49,12.49,0,0,0,352.39,99a1.37,1.37,0,0,0,1,.57.91.91,0,0,0,.71-.51,2.44,2.44,0,0,0,.23-.88,16.67,16.67,0,0,0,0-3.93" style="fill:#77AA51"></path><path d="M354.06,99.07a2.44,2.44,0,0,0,.23-.88,16.67,16.67,0,0,0,0-3.93l-1.57-1a14.12,14.12,0,0,0-3.7,2.27,1.47,1.47,0,0,0-.62,1.17,1.06,1.06,0,0,0,1.15.79,3.11,3.11,0,0,0,1.4-.57A12.49,12.49,0,0,0,352.39,99a1.37,1.37,0,0,0,1,.57A.91.91,0,0,0,354.06,99.07Z" style="fill:#77AA51"></path><path d="M351.22,94a3.77,3.77,0,0,0,3.17,1.61v-.3l-.06-.9-1.74-1.09A8.26,8.26,0,0,0,351.22,94Z" style="opacity:0.30000000000000004"></path><path d="M351.13,96.45c-.14,0,0-.86.63-1.64s1.36-1.12,1.43-1-.48.62-1,1.32S351.27,96.49,351.13,96.45Z" style="fill:#263238"></path><path d="M352.71,96.16c-.14,0-.27-.58-.1-1.27s.57-1.14.69-1.07,0,.58-.18,1.2S352.86,96.16,352.71,96.16Z" style="fill:#263238"></path><g style="opacity:0.2"><path d="M380,78.17c-.4-.61.07-1.68.87-3l3.07-4.91,2.88-5c.81-1.34,1.53-2.25,2.26-2.18s1.28,1.19,1.32,3.06a14,14,0,0,1-7.08,11.79C381.66,78.74,380.39,78.75,380,78.17Z" style="fill:#fff"></path></g><path d="M392.07,71.32l-.5-.07L390.14,71a22.48,22.48,0,0,0-2.26-.3c-.88-.08-1.89-.23-3-.24l-1.75-.08c-.61,0-1.25,0-1.91,0-1.32,0-2.72.12-4.19.24a57.82,57.82,0,0,0-9.45,1.8,56.91,56.91,0,0,0-9,3.49c-1.31.69-2.57,1.31-3.68,2-.56.35-1.12.66-1.62,1l-1.45,1c-.94.61-1.71,1.26-2.42,1.8s-1.29,1-1.76,1.46l-1.08,1c-.25.22-.39.32-.39.32s.12-.13.36-.35.63-.59,1.06-1,1-.94,1.74-1.49,1.47-1.21,2.4-1.83l1.45-1c.5-.35,1.06-.66,1.62-1,1.11-.72,2.37-1.36,3.68-2A52.22,52.22,0,0,1,377,70.46c1.48-.1,2.89-.23,4.21-.21.66,0,1.3,0,1.91,0l1.76.09c1.12,0,2.13.18,3,.28a22,22,0,0,1,2.26.33l1.42.27C391.9,71.27,392.07,71.32,392.07,71.32Z" style="fill:#fafafa"></path><path d="M392.2,51.14l-.52,0-1.51-.17c-.65-.09-1.45-.18-2.38-.22s-2-.16-3.17-.14l-1.84,0c-.64,0-1.31.06-2,.09-1.38,0-2.84.21-4.39.37a65.13,65.13,0,0,0-9.86,2.12,63.86,63.86,0,0,0-9.35,3.78c-1.37.74-2.69,1.41-3.85,2.16-.59.36-1.17.69-1.7,1l-1.52,1c-1,.65-1.8,1.33-2.54,1.9a23.71,23.71,0,0,0-1.85,1.52l-1.14,1-.41.33s.12-.13.38-.36l1.12-1A21,21,0,0,1,347.5,63c.74-.58,1.55-1.27,2.53-1.93L351.54,60c.53-.36,1.11-.69,1.7-1.06,1.16-.76,2.48-1.44,3.85-2.18a63.81,63.81,0,0,1,9.38-3.81,62.9,62.9,0,0,1,9.9-2.11c1.55-.15,3-.33,4.41-.36.69,0,1.36-.07,2-.07l1.85,0c1.18,0,2.24.11,3.17.17a23.69,23.69,0,0,1,2.38.26l1.5.21C392,51.1,392.2,51.14,392.2,51.14Z" style="fill:#fafafa"></path><path d="M384.67,42.27l-.32-.06-.91-.19c-.78-.18-1.93-.38-3.36-.58a45.68,45.68,0,0,0-5-.38,50,50,0,0,0-6.17.33,48.61,48.61,0,0,0-6.07,1.21A42.31,42.31,0,0,0,358,44.21c-1.34.54-2.4,1-3.12,1.39l-.83.41-.3.13A32.94,32.94,0,0,1,358,44.07a43.91,43.91,0,0,1,4.8-1.66,42.54,42.54,0,0,1,12.3-1.54,42.62,42.62,0,0,1,5.05.43A33,33,0,0,1,384.67,42.27Z" style="fill:#fafafa"></path><path d="M379,86.12h-.29l-.81,0a28.38,28.38,0,0,0-3-.07,32.11,32.11,0,0,0-4.42.41,34.76,34.76,0,0,0-5.26,1.34,35.18,35.18,0,0,0-5,2.2,31.35,31.35,0,0,0-3.72,2.41,29,29,0,0,0-2.32,1.9l-.6.54-.22.19a23.61,23.61,0,0,1,3.05-2.75,29.25,29.25,0,0,1,3.72-2.46,31.22,31.22,0,0,1,10.28-3.56,30.42,30.42,0,0,1,4.44-.37A24.09,24.09,0,0,1,379,86.12Z" style="fill:#fafafa"></path></g><g id="freepik--Balloon--inject-2"><path d="M298.61,223.28l.33-.07,1-.14a14.23,14.23,0,0,1,3.76.17,15.85,15.85,0,0,1,5.55,2.1,17.13,17.13,0,0,1,3,2.27,16,16,0,0,1,2.57,3.31,19.27,19.27,0,0,1,2.16,9.26c.12,3.43-.24,7.1.34,10.87a15.46,15.46,0,0,0,1.87,5.47,15.27,15.27,0,0,0,4,4.49A22.57,22.57,0,0,0,335,265.35a42.88,42.88,0,0,0,12.77-1.29c4.07-.93,7.92-2.13,11.66-3.07a57.19,57.19,0,0,1,10.8-1.81,27.47,27.47,0,0,1,9.48,1,19.06,19.06,0,0,1,10.85,8.17,13.89,13.89,0,0,1,1.42,3.48l.18,1a3.06,3.06,0,0,1,.05.33,15.52,15.52,0,0,0-1.83-4.66,18.88,18.88,0,0,0-10.78-7.92,27.22,27.22,0,0,0-9.35-.94,57.63,57.63,0,0,0-10.7,1.85c-3.72.94-7.58,2.15-11.67,3.1a43,43,0,0,1-12.92,1.31,23,23,0,0,1-12.13-4.46,15.34,15.34,0,0,1-6.05-10.29c-.57-3.86-.18-7.53-.29-10.93a19,19,0,0,0-2-9.09,16.57,16.57,0,0,0-2.48-3.25,17.72,17.72,0,0,0-2.87-2.27,16,16,0,0,0-5.44-2.14A16.73,16.73,0,0,0,298.61,223.28Z" style="fill:#263238"></path><path d="M388.2,271.7a2.47,2.47,0,0,0,.69.51,15.36,15.36,0,0,0,3.45,1.38l1.42-1a13.22,13.22,0,0,0-.68-4c-.15-.41-.38-.86-.81-1a1,1,0,0,0-1.09.72,2.88,2.88,0,0,0,0,1.43,11.09,11.09,0,0,0-2.33.54,1.22,1.22,0,0,0-.84.63A.87.87,0,0,0,388.2,271.7Z" style="fill:#77AA51"></path><g style="opacity:0.4"><path d="M388.2,271.7a2.47,2.47,0,0,0,.69.51,15.36,15.36,0,0,0,3.45,1.38l1.42-1a13.22,13.22,0,0,0-.68-4c-.15-.41-.38-.86-.81-1a1,1,0,0,0-1.09.72,2.88,2.88,0,0,0,0,1.43,11.09,11.09,0,0,0-2.33.54,1.22,1.22,0,0,0-.84.63A.87.87,0,0,0,388.2,271.7Z" style="fill:#fff"></path></g><path d="M391.54,270.06c.08-.11.75.31,1.22,1.12s.49,1.6.35,1.62-.38-.63-.8-1.36S391.44,270.18,391.54,270.06Z" style="fill:#263238"></path><path d="M391.23,271.55c0-.13.61-.05,1.15.35s.8.91.68,1-.5-.23-1-.58S391.18,271.69,391.23,271.55Z" style="fill:#263238"></path><path d="M394.67,309.17c3.29,5.75,8.38,10.68,14.67,12.74A22.08,22.08,0,0,0,430,317.19c9.47-8.93,9.84-19.18,3.62-29.43-5.82-9.62-15.8-16.71-27-17.77-6.21-.58-13.34.9-16.65,6.19-2.57,4.12-2.15,9.38-1.34,14.17C389.7,296.89,391.37,303.42,394.67,309.17Z" style="fill:#77AA51"></path><g style="opacity:0.4"><path d="M394.67,309.17c3.29,5.75,8.38,10.68,14.67,12.74A22.08,22.08,0,0,0,430,317.19c9.47-8.93,9.84-19.18,3.62-29.43-5.82-9.62-15.8-16.71-27-17.77-6.21-.58-13.34.9-16.65,6.19-2.57,4.12-2.15,9.38-1.34,14.17C389.7,296.89,391.37,303.42,394.67,309.17Z" style="fill:#fff"></path></g></g></svg>