<svg xmlns="http://www.w3.org/2000/svg" viewBox="0 0 500 500"><g id="freepik--background-complete--inject-2"><path d="M473.15,180.47h0c-2.06-9.88-9.48-34.32-13.53-43.48-22.28-52.19-62.88-82.69-119-95.22-66.32-14.8-154.71,7.7-189.86,65.85-15,24.83-18.22,59.64-38.81,80.09-13.06,13-30.17,21.1-44.17,33.06C28.85,254,15.94,321.51,37.19,368.09s73,83.08,122.62,95.63,91.49,12.89,141-.14c58.24-15.32,84.65-43.58,110.94-75.77,22-26.9,43.28-63.62,53.68-96.76C477.24,253.42,480.63,216.39,473.15,180.47Z" style="fill:#f5f5f5"></path><path d="M126.88,341.06a5,5,0,0,0,.43,4.81,14.77,14.77,0,0,0,3.48,3.62,7.46,7.46,0,0,0,2.6,14.6c-2.54,2.58-.75,7.47,2.62,8.78s7.28-.18,10-2.6a6.81,6.81,0,0,0,6.08,5.06,6.74,6.74,0,0,0,4.59-1.55,3.81,3.81,0,0,0,.72-5c-3.24-5-11.85-17.13-19-24.75-1.5-1.61-3.68-4.47-5.8-5S127.89,339.11,126.88,341.06Z" style="fill:#fff;fill-rule:evenodd"></path><path d="M133.28,352.47a18.63,18.63,0,0,1-3-2.93,7.75,7.75,0,0,0-4.78,8.31,7.53,7.53,0,0,0,3.12,4.73,6.77,6.77,0,0,1-.53-1.65A7.73,7.73,0,0,1,133.28,352.47Z" style="fill:#e0e0e0;fill-rule:evenodd"></path><path d="M134.38,371.87c-.74-1.83,1.72-7.43,3.11-8.83a7.81,7.81,0,0,1-4.1,1C131.93,366,130.85,367.9,134.38,371.87Z" style="fill:#e0e0e0;fill-rule:evenodd"></path><path d="M126.78,341a5,5,0,0,0,.42,4.81,11.45,11.45,0,0,0,2.38,2.68,4.88,4.88,0,0,1-.21-4.41c1-2,3.61-2.62,5.73-2.07s4.31,3.41,5.8,5c.81.87,1.63,1.79,2.46,2.75-1.7-2.08-3.42-4.07-5.05-5.83-1.49-1.6-3.67-4.46-5.8-5S127.79,339,126.78,341Z" style="fill:#e0e0e0;fill-rule:evenodd"></path><path d="M126.88,341.06a5,5,0,0,0,.43,4.81,14.77,14.77,0,0,0,3.48,3.62,7.46,7.46,0,0,0,2.6,14.6c-2.54,2.58-.75,7.47,2.62,8.78s7.28-.18,10-2.6a6.81,6.81,0,0,0,6.08,5.06,6.74,6.74,0,0,0,4.59-1.55,3.81,3.81,0,0,0,.72-5c-3.24-5-11.85-17.13-19-24.75-1.5-1.61-3.68-4.47-5.8-5S127.89,339.11,126.88,341.06Z" style="fill:#e0e0e0;fill-rule:evenodd"></path><path d="M333.86,397.47a5,5,0,0,0,4.83-.13,14.91,14.91,0,0,0,3.83-3.26,7.46,7.46,0,0,0,14.73-1.7c2.41,2.7,7.41,1.22,8.92-2.07s.26-7.28-2-10.12a6.81,6.81,0,0,0,5.42-5.75,6.68,6.68,0,0,0-1.27-4.67,3.81,3.81,0,0,0-4.95-1c-5.24,2.93-17.82,10.78-25.87,17.4-1.7,1.39-4.68,3.39-5.37,5.48S332,396.34,333.86,397.47Z" style="fill:#fff;fill-rule:evenodd"></path><path d="M345.64,391.78a17.35,17.35,0,0,1-3.11,2.83,7.76,7.76,0,0,0,8,5.29,7.55,7.55,0,0,0,4.92-2.83,7,7,0,0,1-1.69.43A7.72,7.72,0,0,1,345.64,391.78Z" style="fill:#e0e0e0;fill-rule:evenodd"></path><path d="M365.07,391.87c-1.86.63-7.3-2.17-8.62-3.64a7.8,7.8,0,0,1,.8,4.15C359.05,394,360.9,395.16,365.07,391.87Z" style="fill:#e0e0e0;fill-rule:evenodd"></path><path d="M333.75,397.57a5.08,5.08,0,0,0,4.83-.13,11.58,11.58,0,0,0,2.82-2.21,4.89,4.89,0,0,1-4.41-.06c-1.89-1.13-2.39-3.76-1.71-5.85s3.67-4.09,5.36-5.48c.91-.75,1.89-1.52,2.9-2.29-2.19,1.58-4.28,3.16-6.13,4.69s-4.68,3.39-5.36,5.48S331.87,396.44,333.75,397.57Z" style="fill:#e0e0e0;fill-rule:evenodd"></path><path d="M333.86,397.47a5,5,0,0,0,4.83-.13,14.91,14.91,0,0,0,3.83-3.26,7.46,7.46,0,0,0,14.73-1.7c2.41,2.7,7.41,1.22,8.92-2.07s.26-7.28-2-10.12a6.81,6.81,0,0,0,5.42-5.75,6.68,6.68,0,0,0-1.27-4.67,3.81,3.81,0,0,0-4.95-1c-5.24,2.93-17.82,10.78-25.87,17.4-1.7,1.39-4.68,3.39-5.37,5.48S332,396.34,333.86,397.47Z" style="fill:#e0e0e0;fill-rule:evenodd"></path><path d="M405.61,183.28a5.07,5.07,0,0,0-.59-4.79,15,15,0,0,0-3.61-3.5,7.46,7.46,0,0,0-3.09-14.5c2.45-2.66.5-7.5-2.91-8.69s-7.27.43-9.88,2.94a6.83,6.83,0,0,0-6.25-4.85,6.75,6.75,0,0,0-4.53,1.7,3.8,3.8,0,0,0-.55,5c3.41,4.94,12.42,16.72,19.78,24.1,1.55,1.56,3.82,4.34,6,4.82S404.66,185.27,405.61,183.28Z" style="fill:#fff;fill-rule:evenodd"></path><path d="M398.83,172.1a18.2,18.2,0,0,1,3.11,2.83,7.76,7.76,0,0,0,4.5-8.47,7.51,7.51,0,0,0-3.28-4.62,6.59,6.59,0,0,1,.58,1.63A7.71,7.71,0,0,1,398.83,172.1Z" style="fill:#e0e0e0;fill-rule:evenodd"></path><path d="M397.07,152.75c.8,1.8-1.47,7.48-2.81,8.93a7.8,7.8,0,0,1,4.06-1.19C399.71,158.55,400.74,156.59,397.07,152.75Z" style="fill:#e0e0e0;fill-rule:evenodd"></path><path d="M405.72,183.38a5.07,5.07,0,0,0-.59-4.79,11.94,11.94,0,0,0-2.47-2.6,4.91,4.91,0,0,1,.36,4.4c-.94,2-3.52,2.74-5.66,2.26s-4.42-3.26-6-4.82c-.83-.83-1.69-1.73-2.55-2.66,1.78,2,3.56,4,5.25,5.65s3.82,4.34,6,4.82S404.77,185.37,405.72,183.38Z" style="fill:#e0e0e0;fill-rule:evenodd"></path><path d="M405.61,183.28a5.07,5.07,0,0,0-.59-4.79,15,15,0,0,0-3.61-3.5,7.46,7.46,0,0,0-3.09-14.5c2.45-2.66.5-7.5-2.91-8.69s-7.27.43-9.88,2.94a6.83,6.83,0,0,0-6.25-4.85,6.75,6.75,0,0,0-4.53,1.7,3.8,3.8,0,0,0-.55,5c3.41,4.94,12.42,16.72,19.78,24.1,1.55,1.56,3.82,4.34,6,4.82S404.66,185.27,405.61,183.28Z" style="fill:#e0e0e0;fill-rule:evenodd"></path><path d="M272.9,109.15a5,5,0,0,0-4.07-2.59,14.89,14.89,0,0,0-5,.57,7.46,7.46,0,0,0-13.16-6.83c-.5-3.59-5.47-5.15-8.56-3.27s-4.28,5.88-4,9.49a6.84,6.84,0,0,0-7.72,1.74,6.7,6.7,0,0,0-1.55,4.59,3.81,3.81,0,0,0,3.53,3.62c6,.5,20.8,1,31.18,0,2.18-.21,5.78-.2,7.51-1.55S273.83,111.14,272.9,109.15Z" style="fill:#fff;fill-rule:evenodd"></path><path d="M260,107.29a17.36,17.36,0,0,1,4.16-.61,7.76,7.76,0,0,0-3.68-8.86,7.55,7.55,0,0,0-5.66-.4,6.81,6.81,0,0,1,1.64.58A7.73,7.73,0,0,1,260,107.29Z" style="fill:#e0e0e0;fill-rule:evenodd"></path><path d="M243.89,96.35c1.91.52,4.85,5.88,5.12,7.84a7.73,7.73,0,0,1,1.66-3.89C250.05,98,249.2,96,243.89,96.35Z" style="fill:#e0e0e0;fill-rule:evenodd"></path><path d="M273.05,109.13a5.06,5.06,0,0,0-4.08-2.59,11.32,11.32,0,0,0-3.57.26,4.87,4.87,0,0,1,3.63,2.51c.93,2-.13,4.46-1.86,5.81s-5.32,1.34-7.51,1.55c-1.17.11-2.41.2-3.68.27,2.69-.08,5.32-.23,7.7-.46,2.19-.2,5.78-.19,7.51-1.54S274,111.12,273.05,109.13Z" style="fill:#e0e0e0;fill-rule:evenodd"></path><path d="M272.9,109.15a5,5,0,0,0-4.07-2.59,14.89,14.89,0,0,0-5,.57,7.46,7.46,0,0,0-13.16-6.83c-.5-3.59-5.47-5.15-8.56-3.27s-4.28,5.88-4,9.49a6.84,6.84,0,0,0-7.72,1.74,6.7,6.7,0,0,0-1.55,4.59,3.81,3.81,0,0,0,3.53,3.62c6,.5,20.8,1,31.18,0,2.18-.21,5.78-.2,7.51-1.55S273.83,111.14,272.9,109.15Z" style="fill:#e0e0e0;fill-rule:evenodd"></path><rect x="111.09" y="179.8" width="27.3" height="10.06" transform="translate(123.32 -38.15) rotate(33.65)" style="fill:#e0e0e0"></rect><polygon points="134.89 191.36 139.08 184.44 140.73 190.16 142.37 195.9 136.53 197.09 130.69 198.28 134.89 191.36" style="fill:#e0e0e0"></polygon><rect x="134.02" y="149.05" width="27.3" height="10.06" transform="translate(110.12 -56.01) rotate(33.65)" style="fill:#e0e0e0"></rect><polygon points="157.82 160.61 162.02 153.68 163.66 159.41 165.31 165.14 159.47 166.34 153.63 167.53 157.82 160.61" style="fill:#e0e0e0"></polygon><path d="M101.24,246.58l5,2.68a1,1,0,0,1,0,1.75l-5,2.8a1,1,0,0,0-.39.4l-2.68,5a1,1,0,0,1-1.74,0l-2.8-5a1,1,0,0,0-.4-.4l-5-2.67a1,1,0,0,1,0-1.75l5-2.8a.94.94,0,0,0,.39-.4l2.68-5a1,1,0,0,1,1.75,0l2.8,5A.89.89,0,0,0,101.24,246.58Z" style="fill:#e0e0e0"></path><path d="M61.42,292.12,64,293.48a.51.51,0,0,1,0,.89l-2.54,1.43a.41.41,0,0,0-.19.2l-1.37,2.57a.51.51,0,0,1-.89,0L57.59,296a.58.58,0,0,0-.21-.2l-2.57-1.36a.51.51,0,0,1,0-.89l2.54-1.43a.48.48,0,0,0,.2-.2l1.36-2.57a.51.51,0,0,1,.89,0l1.43,2.54A.48.48,0,0,0,61.42,292.12Z" style="fill:#e0e0e0"></path><path d="M282.14,437.9l5,2.68a1,1,0,0,1,0,1.75l-5,2.8a1,1,0,0,0-.39.4l-2.68,5a1,1,0,0,1-1.74,0l-2.8-5a1.07,1.07,0,0,0-.4-.39l-5-2.68a1,1,0,0,1,0-1.74l5-2.8a.94.94,0,0,0,.39-.4l2.68-5a1,1,0,0,1,1.75,0l2.8,5A.94.94,0,0,0,282.14,437.9Z" style="fill:#e0e0e0"></path><path d="M362,439.7l2.57,1.36a.51.51,0,0,1,0,.89L362,443.38a.48.48,0,0,0-.2.2l-1.37,2.57a.51.51,0,0,1-.89,0l-1.42-2.53a.45.45,0,0,0-.21-.2l-2.57-1.37a.51.51,0,0,1,0-.89l2.54-1.42a.58.58,0,0,0,.2-.21l1.36-2.56a.51.51,0,0,1,.89,0l1.43,2.54A.64.64,0,0,0,362,439.7Z" style="fill:#e0e0e0"></path><path d="M364.39,123.05l2.57,1.37a.51.51,0,0,1,0,.89l-2.54,1.43a.48.48,0,0,0-.2.2l-1.36,2.57a.51.51,0,0,1-.89,0L360.55,127a.48.48,0,0,0-.2-.2l-2.57-1.36a.51.51,0,0,1,0-.89l2.54-1.43a.48.48,0,0,0,.2-.2l1.36-2.57a.51.51,0,0,1,.89,0l1.43,2.54A.41.41,0,0,0,364.39,123.05Z" style="fill:#e0e0e0"></path><path d="M418.64,323.93l5,2.68a1,1,0,0,1,0,1.75l-5,2.8a.94.94,0,0,0-.39.4l-2.68,5a1,1,0,0,1-1.75,0l-2.8-5a1,1,0,0,0-.4-.39l-5-2.68a1,1,0,0,1,0-1.74l5-2.8a1,1,0,0,0,.39-.4l2.68-5a1,1,0,0,1,1.74,0l2.8,5A.94.94,0,0,0,418.64,323.93Z" style="fill:#e0e0e0"></path><path d="M188.11,103l5,2.68a1,1,0,0,1,0,1.75l-5,2.8a1,1,0,0,0-.39.4l-2.68,5a1,1,0,0,1-1.74,0l-2.8-5a1,1,0,0,0-.4-.39l-5-2.68a1,1,0,0,1,0-1.74l5-2.8a.94.94,0,0,0,.39-.4l2.68-5a1,1,0,0,1,1.75,0l2.8,5A.94.94,0,0,0,188.11,103Z" style="fill:#e0e0e0"></path><path d="M291.73,72.85l3,1.61a.6.6,0,0,1,0,1.05l-3,1.69a.59.59,0,0,0-.23.24l-1.62,3a.6.6,0,0,1-1.05,0l-1.69-3a.62.62,0,0,0-.24-.24l-3-1.62a.6.6,0,0,1,0-1l3-1.69a.56.56,0,0,0,.24-.24l1.62-3a.6.6,0,0,1,1.05,0l1.69,3A.62.62,0,0,0,291.73,72.85Z" style="fill:#e0e0e0"></path><path d="M422.94,277.06l2.57,1.36a.51.51,0,0,1,0,.89L423,280.74a.48.48,0,0,0-.2.2l-1.36,2.57a.51.51,0,0,1-.89,0L419.1,281a.48.48,0,0,0-.2-.2l-2.57-1.36a.51.51,0,0,1,0-.89l2.54-1.43a.41.41,0,0,0,.19-.2l1.37-2.57a.51.51,0,0,1,.89,0l1.42,2.54A.58.58,0,0,0,422.94,277.06Z" style="fill:#e0e0e0"></path></g><g id="freepik--Earth--inject-2"><path d="M320,110.25c-.87,2.64-1.75,5.27-2.62,7.91q-3.56,10.74-7.13,21.5l-10.5,31.69q-6.42,19.38-12.85,38.78-7,21.23-14.08,42.47l-14.16,42.74q-6.63,20-13.25,40-5.61,16.89-11.2,33.78-4,12.11-8,24.21c-1.27,3.83-2.64,7.65-3.82,11.51l-.16.49c-.51,1.53,1.91,2.19,2.41.66.87-2.63,1.75-5.26,2.62-7.9l7.13-21.5,10.5-31.69q6.42-19.39,12.85-38.78,7-21.24,14.08-42.48l14.16-42.73,13.26-40,11.19-33.78q4-12.1,8-24.21c1.27-3.84,2.65-7.65,3.82-11.51,0-.17.11-.33.16-.49.51-1.53-1.91-2.19-2.41-.67Z" style="fill:#263238"></path><path d="M314.08,116.82,321,112l1-.68-1.84-.75,2.28,7.79.33,1.12a1.25,1.25,0,0,0,2.41-.67l-2.28-7.79-.33-1.12a1.26,1.26,0,0,0-1.84-.74L313.81,114l-1,.68a1.28,1.28,0,0,0-.45,1.71,1.26,1.26,0,0,0,1.71.45Z" style="fill:#263238"></path><path d="M337.36,87.82l-6.08,18.75-4.37-1.42-5-12.67-3.24,10-5.2-1.69L319.52,82l4.37,1.41,5,12.67,3.24-10Z" style="fill:#263238"></path><path d="M229.72,401.51l-6.95,4.75-1,.68,1.84.75-2.25-7.8-.32-1.12a1.25,1.25,0,0,0-2.41.67c.75,2.6,1.5,5.19,2.24,7.79l.33,1.13a1.26,1.26,0,0,0,1.83.74l7-4.76,1-.68a1.27,1.27,0,0,0,.45-1.71,1.25,1.25,0,0,0-1.71-.44Z" style="fill:#263238"></path><path d="M227,420.69,224,424a12.47,12.47,0,0,0-5.57-3.88c-2.19-.72-3.25-.39-3.55.52-1,3,10.38,4.31,8.08,11.26-1.1,3.34-4.72,5.17-10.28,3.34a14.68,14.68,0,0,1-6.26-3.87l2.93-3.39a11.66,11.66,0,0,0,4.71,3.15c2.22.73,3.27.25,3.58-.69.94-2.86-10.38-4.22-8.11-11.12,1.08-3.26,4.72-5.14,10.28-3.31A15.56,15.56,0,0,1,227,420.69Z" style="fill:#263238"></path><circle cx="264.94" cy="258.52" r="132" transform="translate(-105.2 263.06) rotate(-45)" style="fill:#455a64"></circle><path d="M292.09,130.77a.43.43,0,0,0-.17-.09,5.92,5.92,0,0,0-.87-.19c-.08,0-1.08,0-1.08,0s-.12,0-.12,0,.2.36,1.54.43C292.13,131,292.17,130.86,292.09,130.77Z" style="fill:#263238"></path><path d="M290.49,129.09a3.38,3.38,0,0,0,.62,0s0,0-.07,0a7.12,7.12,0,0,0-.73-.17c-.09,0-.21,0-.2,0S290.31,129.06,290.49,129.09Z" style="fill:#263238"></path><path d="M294.56,130a2.63,2.63,0,0,0,.63.23s.34.09.85.18c0,0,.59.11.7.11s0,0-.1-.07a35,35,0,0,0-4-1l1,.31A4.5,4.5,0,0,1,294.56,130Z" style="fill:#263238"></path><path d="M292.19,129.62l0,0a4.67,4.67,0,0,1,.86.2c.26.07.62.17.82.21H294a.46.46,0,0,0-.14-.07,14.34,14.34,0,0,0-4.48-.9,19.47,19.47,0,0,0,2.76.66A.18.18,0,0,1,292.19,129.62Z" style="fill:#263238"></path><path d="M294,130.79h.16l.29,0,.52,0a.3.3,0,0,0,.12,0s0,0-.06,0a4.86,4.86,0,0,0-1.44-.16h0c0,.07,0,.07-.28.16A4,4,0,0,0,294,130.79Z" style="fill:#263238"></path><path d="M287.38,130.61a.47.47,0,0,0-.12-.07,3.25,3.25,0,0,0-.37-.11,6.43,6.43,0,0,0-1.36-.11h0a6.23,6.23,0,0,0,1.56.37C287.27,130.7,287.45,130.69,287.38,130.61Z" style="fill:#263238"></path><path d="M286.79,132.94c0-.06,0-.12-.29-.27l-.14-.07-1.27-.64a8.84,8.84,0,0,0-2.95-.57s0,0,0,0,.26.17.32.34,0,.3-.12.32a11.09,11.09,0,0,1-2-.05c-.16,0-.17,0-.23-.08.15-.34.57-.17.77-.41a3.89,3.89,0,0,0-1.78-.17s-.08.05-.09.09c-.11.25-.14.53-.27.77a1.17,1.17,0,0,1-.12.31c-.12.15-.34.22-.44.4a.35.35,0,0,0,0,.11c0,.5,3.62,1,4.82.82.26,0,1.35-.55,1.06-.76a5.45,5.45,0,0,0-1.05-.45c.88.06,1.73.3,2.6.36C285.54,133,286.74,133,286.79,132.94Z" style="fill:#263238"></path><path d="M279.83,127.35c1.44.35,2.93.3,4.37.6a9.32,9.32,0,0,0-1.67-.14l5.17.75a1.07,1.07,0,0,0,.47,0,.3.3,0,0,0-.16-.08A82,82,0,0,0,278,127c.59.35,1.27.17,1.9.31Z" style="fill:#263238"></path><path d="M274,134.9l0,0a.85.85,0,0,0-.35-.05,18.36,18.36,0,0,1-2.22.13c-1.24-.14-1.62-.18-1.75-.09a.06.06,0,0,0,0,0c0,.06.12.09.36.21s.41.21.44.3-.12.32,0,.49a2.47,2.47,0,0,0,.55.35,5.2,5.2,0,0,0,2.74.73c.31-.07.49-1.13.49-1.14A1.48,1.48,0,0,0,274,134.9Z" style="fill:#263238"></path><path d="M280.77,130.36a1.09,1.09,0,0,0-.28-.15,3.91,3.91,0,0,0-2-.31s0,0,0,0,.18.09.23.18,0,.08-.22.18-.44.22-.24.29a7.67,7.67,0,0,0,1.77,0C280.71,130.57,280.91,130.5,280.77,130.36Z" style="fill:#263238"></path><path d="M358.47,185c0-1.44-.65-2.79-.6-4.24a13.28,13.28,0,0,1,.83-2.52c.24-1,.55-1.09,1.3-1.19,1-.14.82-.68.17-2.31-2.09-5.33-2.08-5.41-2-6.18l.19-.11.26.08c-.27-2-3.26-2.92-2.17-5.46-.07-.14-.16-.34-.24-.49.1-.08.23-.19.34-.26l.18.08c-.45-.46-1.85-1.7-1.86-1.72a15.54,15.54,0,0,0-2.62-1.72c-1-.51-1.26-1.63-2.06-2.3-1.11-.93-3.64-2.91-4.69-3.65-1.93-1.34-1.93-1.34-2.26-1.37h0a20.16,20.16,0,0,0-3.21-2h0s0,0-.06,0,0,0,0,0l.06.06a8.27,8.27,0,0,1,1.39,1.38L340,150a11.92,11.92,0,0,0-1.42-1,38,38,0,0,0-9.79-4.3c.1.22.1.22.78.75-1,.23-2.66-.46-3.54-.83a44.73,44.73,0,0,0-4.89-1.73c-2.08.57.13,3,.17,3,6.71,4.48,6.73,4.61,6.88,5.35,0,.05.4,5.63-1.95,6.67-1,.42-1,.45-1,.56-.23.44.21.83.09,1.26-.18.65-.83,1.06-.93,1.75,1,.46,2.34.11,3,1.34,1.11,2.08-.74,2.84-.76,2.84-1.35.28-2.59-.75-3.94-.3a5.13,5.13,0,0,0-2.57,2.41c-.18.48-1.77,12.75,0,15.4,5.05,5.78,5.29,5.73,6,5.6,1.18-.21,6.48-4.8,6.53-4.85.78-.68,1-1.85,2.08-2.27.55-.21.59-.2,2.43.51,5.78,2.23,5.78,2.23,6.59,1.44s1.31-1.27,2.48-1c2.85.56,5.32,2.24,8.17,2.78a26.15,26.15,0,0,0,3.5.71S358.46,186,358.47,185Z" style="fill:#263238"></path><path d="M292.78,149.32q1.11-.69.36-1.11s-1.65-.71-2.37-.3c-.41.24-.55,1.58-.43,1.89C290.61,150.58,292.76,149.33,292.78,149.32Z" style="fill:#263238"></path><path d="M317.32,137.68c-.39-.11-.78-.24-1.18-.37,1.15.54,5,2.12,5.58,2.37a63.05,63.05,0,0,1-6.8-2.69,1.78,1.78,0,0,0-.94-.23,2.52,2.52,0,0,1-1.25.63c-.72-1-4.25-1.5-4.41-1.5.14.26.43.42.53.71l-.11.08a7.1,7.1,0,0,0,1.81.71c-2.55-.42-2.58-.82-2.59-1.08-1.39-1-1.87-.57-2.09-.35-1.17-.09-2.22-.82-3.43-.68a.81.81,0,0,1,0,.15,9,9,0,0,0,2,1.13c1.21.61,2.71.59,3.66,1.74a.87.87,0,0,1-.62.13c.64.75,4,1.46,4.25.69a3,3,0,0,0-.22-.28,11.26,11.26,0,0,1,3.23.32c2.59,1.17,4,1,4.16.78l-.08-.12c2.43,1,3.54,1.52,4.49,1.59a1.75,1.75,0,0,0-.55-.35l6,2.26c-1.31-.75-1.39-.8-1.86-1.11,1.37.58,2.66,1.31,4,1.91-1.1-.85-3.1-2.05-3.12-2.06s-5-2.7-6.25-3.08a.59.59,0,0,0,.07.29,2.06,2.06,0,0,1-.84-.58c-.29-.29-4.78-2.32-5.53-2.15C315.32,136.78,315.35,136.84,317.32,137.68Z" style="fill:#263238"></path><path d="M293.75,131.52c-.19,0-.35.15-.53.19a4.44,4.44,0,0,1-1.05,0l.46-.26c.06-.05.14-.07.2-.14a1.47,1.47,0,0,0-1.15-.21l.13.1,0,0a11.25,11.25,0,0,1-2.14-.49c.05.1.19.07.24.19-.17.08-.17.08-.18.11s.06.09,1.9.75a8.09,8.09,0,0,0-2.75-.15v0s2.13.68,2.42.73a9.49,9.49,0,0,0,1.77-.06.21.21,0,0,1-.12.14s0,0,0,0c.74-.07.74-.07,2.59-.13.4,0,.43,0,.51-.05a.32.32,0,0,0-.17-.12s-1.79-.71-2-.74A.06.06,0,0,0,293.75,131.52Z" style="fill:#263238"></path><path d="M300.58,155.57c.72.48.75,3.52.75,3.55,0,.75,0,1.51.38,1.71,1.07.55,5.25-1.92,5.29-2a1.61,1.61,0,0,0,.36-.33l-5.63-6.88a10.91,10.91,0,0,1,2.81.55c1,.24,1.46.36,1.58.16.32-.54-.3-4.68-1.32-5.78-.46-.49-1.13-.76-1.44-1.39s.42-1.49-.27-2.12a13.81,13.81,0,0,0-3.85-1.57c-1.38-.44-1.38-.44-1.54-.59.06-.22.12-.46,1.27-2.06a8.26,8.26,0,0,0-2.29-1.57c-2.43-1.12-12.57-.77-12,.92s5.09,3.94,5.82,4.09c.18-.39.3-.65,2.16.5,1.58,1,2.07.8,2.4.67a15.41,15.41,0,0,1,.51,2c.08.93-.27,1.82-.24,2.74,0,1.17,1.45,2.15.46,3.45,0,0-2.58,2.7-7.57.76-1.49-.58-2.75-1.68-4.37-2a1.35,1.35,0,0,0-1.36,1c.07.37.72,1,3.4,2,2.05.72,2.05.72,3.95,4.24-.42.07-.42.07-1.93-.4.2,1,4.34,5.93,5.78,6.16.08-.18.08-.18-.08-.51a27.23,27.23,0,0,1-.68-3.92,7.21,7.21,0,0,1,2.4,3.58c.08.28.15.48.27.52.68.26,3.21-1.1,3.13-1.9-.18-1.74-2.07-3-1.4-5C297.84,154.55,300.56,155.56,300.58,155.57Z" style="fill:#263238"></path><path d="M285.84,128.42a2.26,2.26,0,0,0,1,.26,1.63,1.63,0,0,0,.3,0h0l-.06,0A6.2,6.2,0,0,0,285.84,128.42Z" style="fill:#263238"></path><path d="M319.08,163.32l1.21.6a.91.91,0,0,0,.59,0,.37.37,0,0,0,.17-.31c0-.23-.12-.43-.13-.65a.43.43,0,0,1,.1-.28,0,0,0,0,0,0,0s-.06-.2-.46-.44-2.49-.53-2.11.49A1.34,1.34,0,0,0,319.08,163.32Z" style="fill:#263238"></path><path d="M303,142.19h0a6,6,0,0,0-2.29-2.49c-1.07-.58-1.27.29-1.19.64C299.81,141.48,303,142.19,303,142.19Z" style="fill:#263238"></path><path d="M299.48,131.58a8.23,8.23,0,0,0-1.2-.3l.16.07a3.41,3.41,0,0,1,1,.6c-.17.14-.4,0-.56.09,0,.13,1,.43,1.11.44a5.64,5.64,0,0,0,2.06-.17c-.09-.14-.27-.11-.38-.2.26-.12.5.09.76,0,0,0,0,0-.09-.06a18.5,18.5,0,0,0-2.72-.73c.14.19.41.18.58.34C300.18,131.78,300,131.75,299.48,131.58Z" style="fill:#263238"></path><path d="M292.12,132.85c-.31,0-.41,0-.25.41s.9.73,1.84.69c.54,0,1.74-.19,1.45-.45a.34.34,0,0,0-.14-.09A19.2,19.2,0,0,0,292.12,132.85Z" style="fill:#263238"></path><path d="M304.92,134.94v0l-.08,0-.08,0c-.53-.2-1.07-.35-1.58-.56s-1.18-.52-1.79-.75a4.87,4.87,0,0,0-.8-.26,17.11,17.11,0,0,0,2.63,1.38,3.59,3.59,0,0,0,1.49.3Z" style="fill:#263238"></path><path d="M300.82,132.93s0,0,0,0c.17.1,2.11.63,2.67.76.26.05.32.05.39,0s-.1-.15,0-.24.09-.07.1-.13,0,0,0,0a.09.09,0,0,0,0-.08.31.31,0,0,0-.2-.14,1.65,1.65,0,0,0-.32,0,5.25,5.25,0,0,1-1.48,0C301.3,132.84,301.09,132.78,300.82,132.93Z" style="fill:#263238"></path><path d="M305.9,133.38a8.25,8.25,0,0,0,1.48.27.29.29,0,0,0-.12-.07s-1.3-.47-1.71-.56-.45.11-.45.11S305.47,133.29,305.9,133.38Z" style="fill:#263238"></path><path d="M308.49,134.63c.55.21.71.29.81.46l-.05,0a3.85,3.85,0,0,1-.92-.29,16.72,16.72,0,0,0-2-.66c-.4,0-.67.26-.6.4s0,0,1,.41c.37.15.63.47,1,.6.94.31,1.94.32,2.9.56.59.14,1.13.47,1.73.58a.33.33,0,0,0,.14,0s0,0-.27-.36v0a1.55,1.55,0,0,1,.31.06c.83.19.85.17.91.11s-.14-.1-.16-.2c.2-.05.46.08.59-.17.25-.06.49.05.74,0a1.13,1.13,0,0,0-.13-.1,43.56,43.56,0,0,0-4.73-1.51,1.75,1.75,0,0,0,.46.26,3.93,3.93,0,0,1-1.25-.42,3.12,3.12,0,0,0-1.73-.31A6.64,6.64,0,0,0,308.49,134.63Z" style="fill:#263238"></path><path d="M294.66,134.89c.07.05,8.11,5.09,11.61,4.68,1-.12-.31-1.22-.33-1.23a35.54,35.54,0,0,0-5.82-2.27c-.81-.23-.85-1.19-.6-1.23s.23,0,.51.13c1.47.6,1.17-.24,1.05-.35-.3-.26-.72-.29-1.05-.48s-.62-.63-1-.87a7.69,7.69,0,0,0-.77-.42,2.87,2.87,0,0,0-1.41.24,1.54,1.54,0,0,0,.54.26c.42.14,1,.34,1.05.47s-1.09.56-1.15.57c-.63.06-1.24-.21-1.87-.09C294.19,134.54,294.45,134.74,294.66,134.89Z" style="fill:#263238"></path><path d="M281.37,127.71h0c-.33,0-3.09-.43-3.28-.38C278.19,127.39,278.29,127.47,281.37,127.71Z" style="fill:#263238"></path><path d="M264.41,127.34s0,0,0,.07a.31.31,0,0,0,.17,0c.93.06,1.86,0,2.8,0,1.69.09,3.36.38,5.05.43.39,0,.39,0,1.18-.33,0,0,0-.06,0-.09a4.73,4.73,0,0,0-1.39-.25c.46,0,.46,0,.65-.18,0,0,0,0,0-.06l-.16-.06c-1.79-.49-1.79-.49-11.53-.24a5.3,5.3,0,0,0-2.65.6l0,.06C260.52,127.77,262.47,127.33,264.41,127.34Z" style="fill:#263238"></path><path d="M277.14,128.2a5.14,5.14,0,0,0,1.47.34c2.64.4,3.9.73,3.9.73a22.79,22.79,0,0,0,2.31.7c.63.12,3.25.26,3.28.26.5,0,.56,0,.64,0a1.41,1.41,0,0,0-.62-.27c-.75-.11-1.52-.05-2.27-.16,1.14-.13,2.29-.06,3.43-.23l-.08,0s-3-.57-3.3-.33-.93.5-2.85-.39v-.06l.23,0h.08c.41-.07,1.27.37,1.23-.21,0,0-6-1.31-6.54-.74a24.62,24.62,0,0,0,3,.5,4.1,4.1,0,0,1-1.44,0c.06,0,.07.05.79.17a7.78,7.78,0,0,1,1.24.32,34.12,34.12,0,0,1-4.09-.74C277.13,127.87,277,128.05,277.14,128.2Z" style="fill:#263238"></path><path d="M256.65,129.54c.26.32.71.23,1,.48a.28.28,0,0,0,0,.09c-.43.27-1,.21-1.41.4a21.62,21.62,0,0,0,7,1.22,5.18,5.18,0,0,1,1.61.1.25.25,0,0,0,0,.09c-.35.15-.35.15-.41.2a7.91,7.91,0,0,0,1,1.35c1.31.46,1.31.46,3.21.12l.1,0c-.1-.11-.1-.11-1.47-.34a3.13,3.13,0,0,1,2.66.34c.24.21.31.23.45.24s.91-.07,1.16-.57c-.3-.74-.06-1.52.51-1.65s4.9-1.13,5-1.39c-.07-.14-.17-.24-.25-.37a.78.78,0,0,1,.05-.14h-.05c-1.72.07-3.39.74-5.15.49.27-.59.92-.35,1.34-.59l0-.14a12.3,12.3,0,0,1-1.89-.43c.32-.12.67-.07,1-.22a.28.28,0,0,0,0-.09c-.83-.32-1.75-.19-2.6-.45a18,18,0,0,1,2.54-.11c-.44-.28-8.47-1-8.84-.25a1.28,1.28,0,0,1,.11.27c-.23.1-.24.1-1.17,0-1.57-.19-1.71-.1-1.83.06a.42.42,0,0,0,.18.17c.68.35,1.47.33,2.16.66.49.23.77.74,1.26,1a8.65,8.65,0,0,1-2.95-.68C257.48,128,256.25,129,256.65,129.54Z" style="fill:#263238"></path><path d="M275.56,155.21c.27-.17,0-.35-.18-.46a3.13,3.13,0,0,0-1.34-.4c-.56.14-.89.7-.84.9C273.3,155.74,275.18,155.44,275.56,155.21Z" style="fill:#263238"></path><path d="M277.29,150.63a.55.55,0,0,0,.31,0,.77.77,0,0,0,.3-.71c0-.3-.2-.58-.23-.88a10.82,10.82,0,0,0,0-1.61,1.53,1.53,0,0,0-.08-.26c-.18-.47-.62-.75-.8-1.22-.11-.3.12-.6,0-.9a.12.12,0,0,0-.09-.08,14.19,14.19,0,0,0-2.69.58l-.93.32-2.57.95c.63.58.63.58.42,1s-.27.49-.2.53a3.69,3.69,0,0,0,1,0,6.28,6.28,0,0,1,3.49.61C276,149.4,276.38,150.32,277.29,150.63Z" style="fill:#263238"></path><path d="M272.87,152a9.08,9.08,0,0,0-2.54-.85c-.47,0-1,.59-.93.84.13.47,2.88.82,3.63.57C273.27,152.46,273.44,152.3,272.87,152Z" style="fill:#263238"></path><path d="M203.41,233.13c-.76-.21-1.13.94-.87,1.34s1.43,1.7,1.88,1.06A2.34,2.34,0,0,0,203.41,233.13Z" style="fill:#263238"></path><path d="M289.08,193.21c1.38-.37,2.14-.72,2.27-1.07a.64.64,0,0,0-.1-.13,9.75,9.75,0,0,0-3.63.26c-1.83.41-3.51,1.27-5.33,1.71-1,.23-2,.15-2.94.43-.37.11-.28.29-.23.39s.07.15,2.65,2.53a25.67,25.67,0,0,1,3.5,3.7,3.71,3.71,0,0,0,.39.48c.42.38,1.24.29,1.32,1.09a2,2,0,0,1-.47,1.12c-.22.31-.1.45,0,.51.49.29,1.7-.13,2.32-.81a8.14,8.14,0,0,0,1.37-5.23c-.07-.85-.07-.85-2-1.77-.58-.27-.61-.46-.4-1,.39-1,.31-1.24.13-1.62-.09-.21-.05-.26.14-.36A6.57,6.57,0,0,1,289.08,193.21Z" style="fill:#263238"></path><path d="M361.93,203.64s.07-.08.09-.13a2.58,2.58,0,0,0-.28-1.49c-.05-.08-.11-.18-.17-.26-.49-.66-1.28-1-1.7-1.76-.3-.52-.29-1.2-.83-1.59-.72-.32-1.48-.51-2.2-.84s-1.28-.84-2-1.09c-.47-.16-.56.5-1,.44s-.51-.65-.95-.71l-.24,0c-.52.42-.52,1.38-1.44,1.4a10.41,10.41,0,0,1-.49-2.91c.24-1.32-1.4-3.54-2.35-3.53-.2.61.45,1,.44,1.5-.7.56-1.43-.18-2.14,0,.08.28.81.7,1.24.92.74.39,2.24,2.71.36,2.76,0,1,1.07,1,1.5,1.57s.29.83-.1,1.34c0,.22.12.36,1.37,1.14a9.13,9.13,0,0,1,1.32.9c.52.46.84,1.11,1.37,1.57l.22.19a12.43,12.43,0,0,0,2.29,1.17c1.65.74,4.95.86,5.19.33.16-.35.06-.73.2-1.08C361.76,203.5,361.76,203.5,361.93,203.64Z" style="fill:#263238"></path><path d="M207.2,232.12c0,1.26,3.56,4.49,4,4.11.22-.22-.27-9.6-.29-9.67a7.38,7.38,0,0,0-4.16-4.57,9,9,0,0,0-3.93-.47c.06.35,1.39,1.1,2.81,1.31,2,.29,2.62,1.47,2.51,1.79-.18.08-.53.13-.78-.48h-.08c-.47.72.43,1.88,1,2.65,1.1,1.42,1,1.78.57,2.87a3.68,3.68,0,0,0-.3,1.47,1.89,1.89,0,0,1-.1.86C208.12,232.48,207.62,232,207.2,232.12Z" style="fill:#263238"></path><path d="M209.61,241.47c.22.52-.65,1-.14,1.5.89.85,1.8-.54,2.7,0a2.59,2.59,0,0,1,.43.41,46.26,46.26,0,0,0,3.79,3.49c.14.07.24.12.34,0,.36-.42.29-1.06.75-1.41,1.43-1.11-5.16-7.22-5.66-7.5a.41.41,0,0,0-.24-.05c-.08.1-.08.1-.06.28a2.52,2.52,0,0,1-1,2.64c-.22,0-.71-.52-1.39-1.25-1.24-1.34-1.42-1.41-1.52-1.44s0,.08,0,.11C208.05,239.48,209.12,240.29,209.61,241.47Z" style="fill:#263238"></path><path d="M274.93,187c-.78-.25.08,1.5.26,1.86,1.15,2.27,2.5,1.84,2.52,1.84C278.32,190.4,275.68,187.43,274.93,187Z" style="fill:#263238"></path><path d="M213.53,136.6l.09,0h0Z" style="fill:#263238"></path><path d="M247.14,319.59c.3-.57.18-1.24.47-1.81.44-.85,2.22-1.09,1.66-2.3-.41-.86-1.45-.88-2-1.54-1.78-2.15-1.74-5.12-3.3-7.36-2.34-3.34-5.08-6.36-7.59-9.57-1.29-2.07.18-4.29,0-6.36-.93-2.72-.78-5.84-1.89-8.52-1.44-3.5-5-5.49-6.39-9.06-1.07-2.82-.8-6-2.17-8.74a5.4,5.4,0,0,0-.84-1.22c-9.33-9.83-16.7-17.59-24.17-10-1.39-4.67-12.2-7.43-7.4-12.06a11.39,11.39,0,0,0,3.36-6.18c-1.48-3.15-5-3.8-7.31-5.9,2.92-2.06,2.92-2.06,3.31-3.78a18.39,18.39,0,0,0,5.17-3.63c-.14-.77-1.67-7.3-9.79,1.31-1.35-1.2-3.81.08-4.71-2.11-2.11-5.15-1.25-8.93-.54-10.73.87-2.22,3.48-2.45,4.77-4.18.83-1.11-.22-2.78,1.13-3.73,1.75-1.22,7.09-1.93,8.2-1.93,2,0,6,4.87,6,4.92l.71,0a12.06,12.06,0,0,0-.65-1.92l.53-.44c1.4.19,9.59,5.51,9.61,5.55,1.92,4.32-3.69,7.38-2,11.67,6.79-1,3.53-9.17,7.27-12.62s8.71-1.31,13-2.15l0,0c0-.2,0-.45,0-.65l.44-.44.59.23c.15-.17.36-.38.52-.55l-.34-.54,6.61-6.91c-.8,1.16-3.44,4.53-3.45,4.54.54,0,.54,0,4.7-4.65a7.31,7.31,0,0,1-.34,2.23c1.58-.63,2.54-2.32,4.36-2.52.05,0,6.33,1,6.64,1.32,3.43-3.55,3.43-3.55,7.19-3.89.35.3.35.3,9.5,1.57l-.56.28a4.25,4.25,0,0,0,1,1.11l-.43.55c-5.67-.26-5.67-.26-6.3.46,2.43,2,13.48,3.48,14.8-1-1.6-.12-2.64,1.13-4,1.59-.63-.86-1.15-1.56-1.57-2.15a2.36,2.36,0,0,0,1.52,0l0,0v0a.55.55,0,0,0-.22-.14,3.61,3.61,0,0,1-1.6-1.52,1,1,0,0,1,.2-1.34c.13-.15.12-.18.11-.2h0a2.33,2.33,0,0,0-1.18,1.36c-.6-1.18-.39-1.79.14-3.23a2.72,2.72,0,0,1-.66-1.9c1.62.68,2.78,1.17,4.11.05-.16-1.21-.16-1.21-14.3-2.67,11.85-1.71,11.85-1.71,20.16,1.5.71,2.23,10.24,4.18,12.77,3.1.31-1.09.31-1.1,1.76-1.93l.12-.66-1.43-1.69-.48-.38A8.55,8.55,0,0,0,287.7,185c.05-.18.11-.43.15-.61,1.16-.36,1.5-.25,4.15.55h0a1.07,1.07,0,0,0,.5,0c.27-.17-.25-2.78-2.65-3.81-.54-.24-.54-.24-.72-.5.16-.49.81-.67.83-1.26,0-.8-.84-1.25-.82-2.05,0-.34.27-.44.89-.62.91-.27.91-.27,1.29-2.74.95-6.2.95-6.2-2-4.87-.46.21-.27.94-.85,1s-1-.73-1.68-.54c-1.56.45-1.56.45-1.82.35-1.63-.63-1.72-2.41-2.66-3.56.08-.51,2.36-2.51,3.49-2.53-.49-.74-1.46-1-1.93-1.74-.11-.18-.13-.36-.06-.88,0-.17.08-.58-1.15-2.42a1.72,1.72,0,0,0-.66-.66c-1.83-.77-3.19-2.37-5.15-2.91-.83,1.61-3.53,1.53-3.51,3.91-.76.51-1.83,0-2.51.81s-.27,2.17-.94,3.1c0,0-2.78,3.7-5.24,2.56-.54-.25-1.83-.73-2.2.21a3.31,3.31,0,0,1-1,0c-2.19,1.67-2.85,5.37-6.53,5.16.14-1.73-.93-3.1-1.39-4.65,1.85-1.21,2.08-2,2.36-3,.26,0,.71,0,1,0,0-.11.21-.27.26-.38a5.57,5.57,0,0,0-.58-.51c-.24-1.72-2.1-1.79-2.94-2.9s-.55-2.65-1.29-3.81a4.41,4.41,0,0,0-.49-.63c-.81-.89-2-.72-3-1.13-.1-.45-.1-.45,1.22-2.88.46-.85.46-.85-1.2-2.37,1.38-2.6,10.19-2.39,14-2.31.29-.94-.76-1.24-.93-2,5.28,2.79,5.28,2.79,10.11,2-2-1.08-2.46-1.31-3.27-3.28,2.21.73,3.58,3.55,6.47,2.55a1.52,1.52,0,0,0-.37-.57s1.68-.37,2.14.9c3.85,1.26,3.85,1.26,5.18,1.18a3,3,0,0,0,.94-.19c.75-.29.67-1.29,1.39-1.61s1.26.25,1.91.15a5.61,5.61,0,0,0,1-.56c0-.05-.52-4.61-4.23-1.61-2.26-.31-6.23,2.46-6.8-.71,1-1,3.88.06,3.69-1.89-1.56-.48-3,.35-4.5.45.26-.78,2.74-1.42,2.76-1.43s0-.07-1.09-1c4.22-1.55,4.22-1.55,4.51-1.91l-.13-.43c2.36-.82,2.36-.82,9.62.13a2.55,2.55,0,0,0-.95-.64c-4.71-2.18-15.93,1.1-16,1.14s-.05.27-.08.38c.43.33.92.57,1.36.87l-.14.31a5.54,5.54,0,0,0-2.13-.21l-.18.21h0l.21.26c-2,.79-4.23-.16-6.18.91-.12-1.18-.12-1.18,2.11-1.53-.56-.72-.56-.72-4.23-.71-.2,0-1.33-.1-4-2.42,0-.41.33-.73.34-1.14-2.71-1.19-4.42-.4-7.81,1.17.27-.85,1.28-.95,1.7-1.64-1.37-.76-3.16-.54-4.33-1.78,1-.11,2,.37,2.9-.31l-.08-.34c-.43-.08-.5-.09-1.29-.86a3.54,3.54,0,0,0,0-.72,5.37,5.37,0,0,0-2.22-.14,5.29,5.29,0,0,1,.76-.27,7.14,7.14,0,0,0-1.47.08,7.45,7.45,0,0,1,2.42-.75c-2.54.2-2.54.2-7,.39h0c1.49-.15,3-.17,4.48-.3a57.2,57.2,0,0,0-7.36.47,4.15,4.15,0,0,1,.68-.22l-6.69,1.22a47.28,47.28,0,0,0-5.4,1.33,187.65,187.65,0,0,0-22.29,8.28c-.42.29-2.23,1.79-2.66,2.07,0,.22-.05.5-.08.71a43.45,43.45,0,0,0-5.3,4.2,5.24,5.24,0,0,0-1.46,2.42,2.09,2.09,0,0,0-.41-.46c-.1-.1-.15-.16-.15-.23s0-.09.1-.38.25-.63.17-.72a0,0,0,0,1,0,0,6.15,6.15,0,0,0-1.57,2.08c-.37.93.25,1.25.26,1.25a.77.77,0,0,0,.65-.11,1.61,1.61,0,0,0,.46-.4c.1-.12.17-.26.26-.39l0,0a7.19,7.19,0,0,1-1.29,2.65c-.14-.34-.35-.81-.51-1.15-6.34,1.5-23.11,20.69-23.89,26.11.24.26.24.26-2.54,13.43-.34-.26-.79-.58-1.13-.82-.36,1.61-.39,10.12-.39,10.19.8-.25,1.63-.51,1.83-4.67.09-1.89.2-4,3.76-12,.88,3.11.33,4.26-.36,5.72a10.77,10.77,0,0,0-1.15,3.14c-.21,2-.12,4-.24,6-.16,2.59,1.08,5.08.6,7.69-.38,2.11-2.32,3.82-1.59,6.21a4.83,4.83,0,0,0,.52,1,19.85,19.85,0,0,0,1,1.8c1.33,1.72,2.82,3.31,4.17,5s4,2.18,4.89,4.43c2.13,5.17,2.13,5.17,3.36,6.36l.61.61c5.36,5.53,2,14.92,8.81,19.82,6.74-2.6,4,4.67,2.48,7.92-.48,1-.48,1-5,3.35-.06.05-6.74,5.32-7,7.07,0,.29-.11.67-.13,1-.34,4.89,1.69,20.57,1.71,20.69.71,3.56,3.31,6.27,4.31,9.69.77,2.61.16,6.07-1.72,9.77-.08.17-8.57,18.06-9.15,31-.73,16.4,7.44,20.89,7.52,20.92-4.18-9-4.18-9-1.22-11.49-.16-1.79-.16-1.79,1.94-8.27.36.13.36.13,1.64,1.2.1-.15.1-.15.23-3.59,2.07-.14,2.08-.14,2.66-1.07h.43c1.65,2.42,3.81,1.19,3.89-.08l.06-1.39c5,3.71,16.44-6.59,16.55-6.7,1.9-1,4.46-.42,5.48-.14,2.32.64,3.94-1.4,6.06-1.56a2.12,2.12,0,0,1,1.83.69c.65.66.7.71,1.33.1,1.37-1.34,2.41-2.95,3.65-4.4.69-.8.87-2,2.06-2.43,1.39-.45,1.9-.62,1.93-1.59a2,2,0,0,1,.13-.59c5.3,1.72,10.25-1.61,10.29-1.65A1,1,0,0,0,247.14,319.59Z" style="fill:#263238"></path><path d="M218.52,249.28c-.86-.05-.7,1.25-.1,1.9a6.49,6.49,0,0,0,2.37,1.37c.1-.05.13-.34-.75-1.61S218.83,249.42,218.52,249.28Z" style="fill:#263238"></path><path d="M363,241.44a11.39,11.39,0,0,1,1.31.12c.5.1.88.61,1.46.43.33-.1.67-.66,1-1.67A4.37,4.37,0,0,0,367,239c0-.68.15-.85.72-1.16a1.75,1.75,0,0,0,.84-.85,2,2,0,0,0,0-1.37,3.23,3.23,0,0,0-.24-.58c-.23-.46-.56-.85-.8-1.31a1.31,1.31,0,0,1-.19-.58c0-.06,0-.07-.05-.09s-3-1.33-2.12.68a.86.86,0,0,0,.28.39,1.12,1.12,0,0,1-.32,0,5.6,5.6,0,0,0-2.2-.18,1.27,1.27,0,0,0-.95.67,1.17,1.17,0,0,0,.09,1c.19.39.57.6.82.92a.39.39,0,0,1-.11.06,14,14,0,0,0-2.46,1.74c-.57.52-.76.83-.75,1.23C359.55,240.22,361.27,241.28,363,241.44Z" style="fill:#263238"></path><path d="M364.31,287a.47.47,0,0,0,.35.06s.84-.16.86-.18c.18-.15,0-.55-.52-1s-1.6-1.14-1.57-.42A3.19,3.19,0,0,0,364.31,287Z" style="fill:#263238"></path><path d="M370,241.48c-.12-.07-.15,0-.2.13l.67.62A2.63,2.63,0,0,0,370,241.48Z" style="fill:#263238"></path><path d="M394.12,270.57a16.88,16.88,0,0,1,1.08,6.62c.39-3.39,1-7.88,1.25-11.27.41-13.7.42-14-.22-21.32l-.89-7.57v0c0-.27-.09-.54-.14-.8a29.25,29.25,0,0,0,.32,3.73,12.12,12.12,0,0,1-.39-1.34,13.48,13.48,0,0,0,.44,3.74l-.25,0c-1.07-4.71-1.33-9.56-2.46-14.26.77,2.09.87,4.38,1.91,6.39.16-1-1.31-8.44-2.89-12.57a19.33,19.33,0,0,1-1.26-3.75,4.48,4.48,0,0,1,.28.47,8.69,8.69,0,0,0-.46-1.4h-.25a13.09,13.09,0,0,1-1.06-2.73c.09.15.21.34.31.48.2-.76-1.48-4-1.63-4.21a2.75,2.75,0,0,0-.07,1.24c-.67-1-.38-2.34-1-3.37-.15.55.15,1.09,0,1.63-.89.47-.89.47-1.18,1-.43.72-1.21,6.07-1.22,6.12-.31,3.64-1,4.43-1.11,4.51-2,2-2,2-4,1.93-.7,0-.82.14-1,.91,0,.11-2.75,10.39,1.39,11.36,1.33.31,2.1-1.69,2.47-2.65.11.38,1.34,10,1,12.54-.15,1.19-.29,2.32.54,3a7.7,7.7,0,0,0,2.4-3.64c.54-3.2,1-3.23,2.07-3.32.45-.52.54-.78-.22-3-.53-1.58-.53-1.58-.15-5.14.15-1.35,2-1.77,1.82-3.29-.41-4-.41-4-.37-4.16s.07-.26.09-.38l.24-.08c.61.9,1.92,4.81,1.68,5.53l-.24-.15c-1.56,6.34-1.56,6.34-1,9.75.47,3,3.31,4.79,3.81,7.75a5,5,0,0,1-.59-1l-.25,0a8.75,8.75,0,0,0-.09.88,25.78,25.78,0,0,0-2.36-3.24c-.09,2.49.64,5,.14,7.45-1.1-.93.11-2.64-1.19-3.5l-.27.1s-.6,3.61-.59,3.9,0,2.3-.48,2.78c-.65-.61-.65-.61-.81-.68-.26.14-.48.35-.74.5a2.18,2.18,0,0,1,0,.25l0,0c-3-2.72-3-2.72-3.29-2.43l-.66-.07a10.3,10.3,0,0,0-1.76-2.68l1.33,1.48a4.05,4.05,0,0,0-1.69-2.37c-.44-.32-.55-.39-.67-2.69-.1-1.69,0-3.95,1-5.17.42-.5,1.35-3.3.82-3.81-.07-.06-1.73-1.37-2.08-.33a47.83,47.83,0,0,0-.77,8.77,4.8,4.8,0,0,1,0,1.36c-.14,0-.17,0-.7-.24l-1.2-.65c-.52-1.73-1.53-3.28-1.77-5.1a12.6,12.6,0,0,0-.31-2.81,7,7,0,0,0-2-3h0c1.1-.07,4.21-2.28,2.51-3.72a7.13,7.13,0,0,0-1-.65c-1.23-.72-1.45-.85-1.23-1.15.44-.59,2.28-.9,1.5-1.59,0,0-2.21-1.66-3.13-1.14-.09,0-.14.19-.18.27-.43.77-.39,1.69-.81,2.46s-1.2.82-1.42,1.57c.12.2.52.44,1.74.46.44,0,.83,0,.94.27.45,1-1.13,1.18-1.34,2a3.09,3.09,0,0,0,.73,3.2c1,1.33,1.14,1.49,1.25,1.84-.12.23-.4.35-.44.64-.13.88.15,1.76-.05,2.64s-.86-.23-1.23-1c-.16-.31-.16-.31-.83-.93-.36,1.06.26,2.2-.25,3.24-.28.56-.93.47-1.82.27-.24-.05-.6-.13-.66.14s0,.7,1.59,1.86c.66.49,2,1.5,1.76,2a3.88,3.88,0,0,0-1.29-.56.6.6,0,0,0-.07.18,1.11,1.11,0,0,0-.69-.11c-.57,0-1,.47-1.54.57s-1.36,0-2,.1a1,1,0,0,0-.08.14c.13.17.16.2,1.81,1.19a3.71,3.71,0,0,1-.79.58c-1.57-1.36-1.68-1.76-2-2.83a12.64,12.64,0,0,0-.13,1.51l-.59.4a10,10,0,0,1-1.43-.49c-.4-1.12-.4-1.12-1.65-2.15l-.61.32.33,1.77-.69,0c6,8.11-1.2,14.87-1.3,14.91-3.37-3-6-6.79-9.25-9.92a7.33,7.33,0,0,0,0,1.48c-.08.09-7.11,9.92-6.16,11.23-2.63,2.68-2.63,2.68-2.9,2.9,2.64,1.75,3.18,2.11,4.06,3.18a20.08,20.08,0,0,0-.9,2l7.32,2.61c1.76,1.05,3.75-.67,3.95-2.72,3.91-3.1,4-3.08,7.1-2.16,2.44-3.06,2.44-3.06,2.86-3.07,1.83-.05,1.54,2.09,2.58,2.91,2.25-.94,3.88-1.42,4.37,1a155.52,155.52,0,0,1,.12,16.12,2.57,2.57,0,0,0-.77,1.35c0,.35.5.56.29,1s-.57.62-.74,1a.53.53,0,0,0,.09.6.32.32,0,0,0,.12.1c-.68,1.12-1.49.66-4.52-1.1a22.42,22.42,0,0,0,.47,5.1c1-.7,1.13-2,2-2.83l.45.46c.93-.3,1.7-.93,2.61-1.28l0-.1A1.37,1.37,0,0,0,372,294a2.71,2.71,0,0,0,.24-.35c.23-.41.37-.87.6-1.29l.06-.08c0,.4,0,.88,0,1.25a3.21,3.21,0,0,0,.41-1.81,6,6,0,0,0,.41-.62c.4-.7.24-.94,0-1.14a1.63,1.63,0,0,0-.46-.23c0-.69,0-1.54-.08-2.61l.48-.38a1.31,1.31,0,0,0,0,.27s.07,1.7.11,1.77c.27.06,1.28-1.61,1.73-2.53a13.38,13.38,0,0,0,.55-1.36l.19,4.46c0,.07,0,.07-2.9,8.56l-1.94,7.59a11.5,11.5,0,0,0,.93-1,26.17,26.17,0,0,0,2.25-4.49c2.43-4.87,2.43-4.87,3.09-4.86a5.13,5.13,0,0,1,.85,4.4,8.51,8.51,0,0,0,1.23-.65l.58.4c3.5-3.43,3.35-8.87,6.8-12.32a1.86,1.86,0,0,1,.95.82l-.59.3a4.75,4.75,0,0,0,.43,2c-.37.81-.37.81-1.36,1.71a26.26,26.26,0,0,1-.32,2.81c2.68.37,1.39-3.66,3.16-4.79.95.46.88.85.63,1.67l-.66.28c-.07.68-.07.68-.93,2.66l-.66.21c-1.22,4.31-.2,9.21-3.37,13l-.66-.11c-.76-2.3,2.07-5.77-1-7.11a2.18,2.18,0,0,1-1.13.64c-.22-.34-.55-.78-.8-1.1a2.48,2.48,0,0,0-.19,1.26c-1,0-1.54-.89-2.43-1.07a8.18,8.18,0,0,0-1,1.13l.38.53c-1.27,2.15-3.63,6.17-2.81,10.09l.67-.09.39-.54c.28,1.27-.32,2.57.16,3.83a5.47,5.47,0,0,0,1.06-.86,3.54,3.54,0,0,0,.42,1.26c-5.39,7.73-6.21,8.92-8.59,10.29-1-.92-1-1.29-.52-2.6a1.88,1.88,0,0,0-1.2-.32c-3.34-3,1-7.93-2.66-10.87-1.64.69-2.21,2.54-3.67,3.43l-.67-.19c-.32-1.16-2.69-14.89-2.51-16.31.05-.45.72-.8,1.14-1,1-.36,1-.36,4.06-5a18.47,18.47,0,0,0-.84-2.2c-1.14,0-1.14,0-3.58-3a6.43,6.43,0,0,0-1.43.32c-2.68-4.52-9.11-2.72-11.91-7-.39-.37-.47-.43-.54-.49-1.26-.63-1.69-.84-1.76-3.18a3,3,0,0,0-.11-.32,7.36,7.36,0,0,0-.82.06c-1.42.32-1.85,2-3.24,2.34-1.75.42-3.38-.89-5.13-.32-.52.17-.9.89-1.26,1.3-3.88,4.48-3.88,4.48-5.61,4.11a17.45,17.45,0,0,0-5.21-.15c-1.57.58-13.69,5.5-13.69,5.51-2.08,2.22-2.06,5.46-3.84,7.82-1.5,2-5,.74-5.9,3.7-1.33,4.43-1.95,9-2.94,13.51-.41,1.89.85,10.48,1.86,11.13,5,3.19,10.86,4.94,15.23,9.18a1.25,1.25,0,0,1,.26.6c.3,1.39-1.33,2.21-1.06,3.59s1.62,1.84,2.32,2.86c-.83,2.33-.83,2.33-3,3.52-6,3.32-6,3.32-6.77,5-1.23,2.64-2.93,6.25-11,10.75-3.74,2.07-8,2.38-12,3.83-3.65,1.35-6.32,4.38-9.89,5.88-13.91,5.82-14.21,5.87-15.9,6.1a8.2,8.2,0,0,0-3.59,1.23c2.26,3.25,7.63,3.6,9.4,3.71l7.15.35,9.49-.11c2.39-.34,4.58-1.53,7-1.73,2.78-.23,5.5.73,8.28.45,6.65-.68,15.83-5.15,16.9-5.77,4.28-2.45,13.62-4,16.36-4.45,4.38-.77,12.87-5.15,15.75-7.22-.45-.67-.45-.67-1.67-1.26,0-.51,0-.51,3.85-4.41,1.42-1.45,2.28-3.29,3.48-4.89,3.11-4.16,7.09-7.61,9.93-12l9-13.77c-.05.6-.05.6-1.24,2.68a2.63,2.63,0,0,0,1.4-.58c-5,11.83-15.4,19.42-22.71,29.43,1.46.33,1.46.33,1.86.81,7.59-3.9,7.59-3.9,8.34-4.58l-.54.51,1-.92.33-.31,2.07-2c.93-.93,2.1-2.1,5.08-5.42-.16.18-.29.36-.43.51,2.51-2.92,5.67-6.56,7.92-9.49,2.14-3.1,5.09-7.16,7.09-10.35L378,325c1.12-2.9,1.35-3.32,6.43-12.7,0,0,0,.11,0,.15,5.41-13.94,5.41-13.94,5.78-14.53V298a82,82,0,0,0,3.06-10.88l1.92-10A18.25,18.25,0,0,0,394.12,270.57Zm-18.51-23.69c.06,0,.08,0,.45.48-.21-.16-.38-.31-.53-.43h0Zm.21,37.8-.07.06a7,7,0,0,0-.82,1.19,1,1,0,0,1-.85.45.43.43,0,0,0-.43.24s0,0,0,.05c-.83-1.56-1.45-2.89.57-12.49a2.27,2.27,0,0,1,1.29,0l.45,10.47A.26.26,0,0,0,375.82,284.68Z" style="fill:#263238"></path><g style="opacity:0.4"><path d="M390.37,294.75c-20.8,69.51-89.83,109.2-160,90.48,48-46,85.67-180.89,74.83-252.38C369.6,150.59,411.17,225.25,390.37,294.75Z"></path></g><path d="M171,177.61c.32.27-2.78,4.21-7.12,11l-1.68,2.67c-.58.93-1.12,1.93-1.73,3-1.22,2-2.37,4.26-3.62,6.6a142.09,142.09,0,0,0-12,32.27c-.57,2.59-1.16,5-1.55,7.37-.21,1.16-.45,2.28-.61,3.36s-.31,2.13-.46,3.12c-1.12,8-1.34,13-1.76,13s-.74-5-.07-13.18c.09-1,.2-2.08.3-3.19s.31-2.25.47-3.44c.3-2.38.82-4.89,1.34-7.54a132.57,132.57,0,0,1,4.9-16.88,130.32,130.32,0,0,1,7.28-16c1.33-2.35,2.57-4.6,3.9-6.6.65-1,1.25-2,1.88-2.92l1.85-2.61C167.2,181,170.82,177.41,171,177.61Z" style="fill:#fff"></path></g><g id="freepik--Clouds--inject-2"><path d="M313.15,229.8a5.89,5.89,0,0,0-4.7-3.12,17.28,17.28,0,0,0-5.84.53,8.72,8.72,0,0,0-15.2-8.3c-.49-4.2-6.25-6.15-9.91-4s-5.15,6.76-4.92,11a8,8,0,0,0-9.05,1.84A7.87,7.87,0,0,0,261.6,233a4.45,4.45,0,0,0,4,4.32c7,.73,24.26,1.72,36.4.82,2.56-.18,6.75-.08,8.81-1.61S314.18,232.15,313.15,229.8Z" style="fill:#fff;fill-rule:evenodd"></path><path d="M298.08,227.3a21.3,21.3,0,0,1,4.87-.61,9,9,0,0,0-4.07-10.42,8.72,8.72,0,0,0-6.59-.62,7.78,7.78,0,0,1,1.89.73A9,9,0,0,1,298.08,227.3Z" style="fill:#e0e0e0;fill-rule:evenodd"></path><path d="M279.6,214.13c2.21.65,5.51,7,5.78,9.28.74-3.3,2-4.5,2-4.5C286.75,216.2,285.8,213.8,279.6,214.13Z" style="fill:#e0e0e0;fill-rule:evenodd"></path><path d="M313.32,229.78a5.89,5.89,0,0,0-4.7-3.12,13.59,13.59,0,0,0-4.17.2,5.76,5.76,0,0,1,4.17,3c1,2.35-.25,5.21-2.31,6.74s-6.25,1.43-8.81,1.61c-1.37.11-2.82.18-4.3.24,3.14,0,6.21-.14,9-.35,2.56-.18,6.75-.08,8.81-1.61S314.35,232.13,313.32,229.78Z" style="fill:#e0e0e0;fill-rule:evenodd"></path><path d="M313.15,229.8a3.62,3.62,0,0,1,.4,1.35,5.78,5.78,0,0,1-1.08,3.82,6.49,6.49,0,0,1-2.11,2,9.86,9.86,0,0,1-3.34,1c-1.23.18-2.55.24-3.95.32s-2.87.21-4.42.27c-6.22.3-13.63.24-21.84-.15q-3.09-.15-6.31-.38l-3.25-.26-1.65-.16a4.76,4.76,0,0,1-4-3.1,6.45,6.45,0,0,1,0-3.54,7.9,7.9,0,0,1,1.59-3.2,7.49,7.49,0,0,1,2.92-2.14,8.18,8.18,0,0,1,6.61,0l-.37.25a15,15,0,0,1,1.12-6.61,9.48,9.48,0,0,1,4.32-4.8,7.66,7.66,0,0,1,6.17-.08,6.72,6.72,0,0,1,2.5,1.76,5.21,5.21,0,0,1,1.21,2.73l-.42-.1a9.08,9.08,0,0,1,6.36-3.62,8.53,8.53,0,0,1,6.43,1.77,9.33,9.33,0,0,1,3.11,5.13,8.75,8.75,0,0,1-.37,5.21l-.17-.2a20,20,0,0,1,5-.58,7.36,7.36,0,0,1,3.56,1,5.07,5.07,0,0,1,1.68,1.59,2.88,2.88,0,0,1,.36.71s-.12-.24-.42-.67a5.32,5.32,0,0,0-1.7-1.49,7.26,7.26,0,0,0-3.49-.93,21,21,0,0,0-4.9.64l-.26.06.1-.25a8.54,8.54,0,0,0,.31-5,9,9,0,0,0-3-4.9,8.16,8.16,0,0,0-6.14-1.66,8.72,8.72,0,0,0-6,3.46l-.35.5-.07-.6a5.27,5.27,0,0,0-3.43-4.11,7.16,7.16,0,0,0-5.77.09,9,9,0,0,0-4.07,4.55,14.44,14.44,0,0,0-1.07,6.38l0,.43-.39-.18a7.7,7.7,0,0,0-6.19,0,7.22,7.22,0,0,0-2.72,2,7.44,7.44,0,0,0-1.48,3,5.88,5.88,0,0,0,0,3.25,4.16,4.16,0,0,0,2.06,2.32,4.41,4.41,0,0,0,1.5.45l1.65.16,3.24.27q3.21.23,6.29.39c8.2.41,15.6.51,21.8.26,1.55,0,3-.17,4.42-.23s2.72-.11,3.93-.28a9.41,9.41,0,0,0,3.26-.89,6.37,6.37,0,0,0,2.07-1.9,5.76,5.76,0,0,0,1.13-3.7A8.46,8.46,0,0,0,313.15,229.8Z" style="fill:#263238"></path><path d="M446.43,84.35a5.9,5.9,0,0,0-4.7-3.13,17.28,17.28,0,0,0-5.84.53,8.72,8.72,0,0,0-15.2-8.3c-.49-4.2-6.25-6.15-9.91-4s-5.15,6.77-4.92,11a8,8,0,0,0-9.05,1.84,7.89,7.89,0,0,0-1.93,5.31,4.44,4.44,0,0,0,4,4.32c7,.74,24.26,1.72,36.4.83,2.55-.19,6.75-.09,8.81-1.62S447.46,86.69,446.43,84.35Z" style="fill:#fff;fill-rule:evenodd"></path><path d="M431.36,81.84a21.3,21.3,0,0,1,4.87-.61,9,9,0,0,0-4.07-10.42,8.82,8.82,0,0,0-6.59-.62,7.78,7.78,0,0,1,1.89.73A9,9,0,0,1,431.36,81.84Z" style="fill:#e0e0e0;fill-rule:evenodd"></path><path d="M412.88,68.67c2.21.66,5.51,7,5.78,9.28.74-3.3,2-4.5,2-4.5C420,70.74,419.08,68.35,412.88,68.67Z" style="fill:#e0e0e0;fill-rule:evenodd"></path><path d="M446.6,84.33a5.9,5.9,0,0,0-4.7-3.13,13.29,13.29,0,0,0-4.17.21,5.71,5.71,0,0,1,4.17,3c1,2.34-.26,5.2-2.31,6.73s-6.25,1.43-8.81,1.62c-1.37.1-2.82.17-4.3.23,3.14,0,6.21-.14,9-.34,2.55-.19,6.75-.09,8.81-1.62S447.63,86.67,446.6,84.33Z" style="fill:#e0e0e0;fill-rule:evenodd"></path><path d="M446.43,84.35a3.6,3.6,0,0,1,.4,1.34,5.77,5.77,0,0,1-1.08,3.82,6.29,6.29,0,0,1-2.11,2,9.86,9.86,0,0,1-3.34,1c-1.23.18-2.55.25-3.95.32s-2.87.21-4.42.27c-6.22.3-13.63.24-21.84-.15-2.06-.1-4.16-.22-6.31-.38l-3.25-.26-1.65-.15a4.81,4.81,0,0,1-4-3.11,6.45,6.45,0,0,1,0-3.54,7.9,7.9,0,0,1,1.59-3.2,7.59,7.59,0,0,1,2.92-2.14,8.18,8.18,0,0,1,6.61,0l-.37.25a15,15,0,0,1,1.12-6.61A9.48,9.48,0,0,1,411,69a7.66,7.66,0,0,1,6.17-.08,6.61,6.61,0,0,1,2.49,1.76,5.15,5.15,0,0,1,1.22,2.73l-.42-.1a9.11,9.11,0,0,1,6.36-3.62,8.51,8.51,0,0,1,6.43,1.78,9.27,9.27,0,0,1,3.11,5.12,8.75,8.75,0,0,1-.37,5.21l-.17-.2a20,20,0,0,1,5-.58,7.26,7.26,0,0,1,3.57,1,5,5,0,0,1,1.68,1.58,2.82,2.82,0,0,1,.36.72s-.12-.25-.42-.67a5.21,5.21,0,0,0-1.7-1.5,7.26,7.26,0,0,0-3.49-.93,20.88,20.88,0,0,0-4.9.64l-.26.06.1-.25a8.46,8.46,0,0,0,.3-5,8.89,8.89,0,0,0-3-4.9,8.16,8.16,0,0,0-6.14-1.66,8.72,8.72,0,0,0-6,3.46l-.36.5-.06-.6a5.26,5.26,0,0,0-3.43-4.1,7.12,7.12,0,0,0-5.77.08A8.93,8.93,0,0,0,407.19,74a14.4,14.4,0,0,0-1.07,6.37l0,.43-.39-.18a7.71,7.71,0,0,0-6.19,0,7.19,7.19,0,0,0-2.72,2,7.41,7.41,0,0,0-1.48,3,5.76,5.76,0,0,0,0,3.24,4.24,4.24,0,0,0,3.56,2.77l1.65.16,3.24.27c2.14.16,4.24.28,6.29.39,8.2.42,15.6.51,21.8.26,1.55,0,3-.17,4.42-.23s2.72-.11,3.93-.27a9.7,9.7,0,0,0,3.26-.9,6.37,6.37,0,0,0,2.07-1.9,5.76,5.76,0,0,0,1.13-3.7A7.79,7.79,0,0,0,446.43,84.35Z" style="fill:#263238"></path><path d="M385.47,343.38a5.89,5.89,0,0,0-4.69-3.12,17.31,17.31,0,0,0-5.85.53,8.72,8.72,0,0,0-15.2-8.3c-.48-4.2-6.25-6.15-9.91-4s-5.14,6.77-4.92,11a8,8,0,0,0-9,1.84,7.87,7.87,0,0,0-1.93,5.31,4.45,4.45,0,0,0,4,4.32c7,.73,24.26,1.72,36.4.82,2.56-.18,6.75-.08,8.81-1.61S386.51,345.73,385.47,343.38Z" style="fill:#fff;fill-rule:evenodd"></path><path d="M370.41,340.88a21.16,21.16,0,0,1,4.87-.61,9.06,9.06,0,0,0-4.08-10.43,8.77,8.77,0,0,0-6.59-.61,8.09,8.09,0,0,1,1.9.72A9,9,0,0,1,370.41,340.88Z" style="fill:#e0e0e0;fill-rule:evenodd"></path><path d="M351.92,327.71c2.21.65,5.51,7,5.78,9.28.74-3.3,2-4.5,2-4.5C359.07,329.78,358.12,327.38,351.92,327.71Z" style="fill:#e0e0e0;fill-rule:evenodd"></path><path d="M385.64,343.36a5.89,5.89,0,0,0-4.69-3.12,13.67,13.67,0,0,0-4.18.2,5.76,5.76,0,0,1,4.17,3c1,2.35-.25,5.21-2.31,6.74s-6.25,1.43-8.81,1.61c-1.37.1-2.82.18-4.3.24,3.15,0,6.21-.14,9-.35,2.56-.18,6.75-.08,8.81-1.61S386.68,345.71,385.64,343.36Z" style="fill:#e0e0e0;fill-rule:evenodd"></path><path d="M385.47,343.38a3.62,3.62,0,0,1,.4,1.35,5.82,5.82,0,0,1-1.07,3.82,6.53,6.53,0,0,1-2.12,2,9.87,9.87,0,0,1-3.33,1c-1.23.18-2.56.24-4,.32s-2.87.21-4.42.27c-6.22.3-13.63.24-21.84-.15-2.05-.1-4.16-.23-6.3-.38l-3.26-.26-1.65-.16a4.78,4.78,0,0,1-1.68-.49,4.71,4.71,0,0,1-2.31-2.61,6.27,6.27,0,0,1,0-3.54,7.61,7.61,0,0,1,4.5-5.35,8.22,8.22,0,0,1,6.61,0l-.37.25a14.8,14.8,0,0,1,1.13-6.61,9.42,9.42,0,0,1,4.31-4.8,7.65,7.65,0,0,1,6.18-.08,6.77,6.77,0,0,1,2.49,1.76,5.06,5.06,0,0,1,1.21,2.73l-.42-.1a9.1,9.1,0,0,1,6.36-3.62,8.53,8.53,0,0,1,6.43,1.77,9.3,9.3,0,0,1,3.11,5.13,8.71,8.71,0,0,1-.37,5.2l-.16-.19a19.87,19.87,0,0,1,5-.58,7.32,7.32,0,0,1,3.56,1,5.23,5.23,0,0,1,1.69,1.59,3,3,0,0,1,.35.71s-.12-.24-.42-.67a5.38,5.38,0,0,0-1.69-1.49,7.3,7.3,0,0,0-3.5-.93,21,21,0,0,0-4.9.64l-.26.06.1-.26a8.42,8.42,0,0,0,.31-5,8.9,8.9,0,0,0-3-4.9,8.16,8.16,0,0,0-6.14-1.66,8.72,8.72,0,0,0-6,3.46l-.35.5-.07-.6a5.24,5.24,0,0,0-3.43-4.11,7.16,7.16,0,0,0-5.77.09,8.89,8.89,0,0,0-4.06,4.55,14.31,14.31,0,0,0-1.08,6.38l0,.43-.39-.18a7.7,7.7,0,0,0-6.19,0,7.22,7.22,0,0,0-2.72,2,7.44,7.44,0,0,0-1.48,3,6,6,0,0,0,0,3.25,4.23,4.23,0,0,0,2.06,2.32,4.47,4.47,0,0,0,1.51.45l1.64.16,3.24.27q3.21.23,6.29.39c8.2.41,15.6.51,21.8.26,1.56-.05,3-.17,4.43-.23s2.71-.12,3.93-.28a9.35,9.35,0,0,0,3.25-.89,6.27,6.27,0,0,0,2.07-1.9,5.78,5.78,0,0,0,1.13-3.71A6.35,6.35,0,0,0,385.47,343.38Z" style="fill:#263238"></path><path d="M138.57,427.48a7.34,7.34,0,0,0-5.85-3.89,21.6,21.6,0,0,0-7.27.66,10.86,10.86,0,0,0-18.93-10.34c-.61-5.22-7.78-7.65-12.34-5s-6.41,8.43-6.12,13.68a10,10,0,0,0-11.28,2.29,9.82,9.82,0,0,0-2.4,6.62,5.54,5.54,0,0,0,5,5.37c8.68.92,30.21,2.14,45.32,1,3.19-.24,8.41-.11,11-2S139.86,430.4,138.57,427.48Z" style="fill:#fff;fill-rule:evenodd"></path><path d="M119.81,424.36a26.62,26.62,0,0,1,6.07-.76,11.27,11.27,0,0,0-5.08-13,10.93,10.93,0,0,0-8.21-.76,9.51,9.51,0,0,1,2.36.9A11.22,11.22,0,0,1,119.81,424.36Z" style="fill:#e0e0e0;fill-rule:evenodd"></path><path d="M96.8,408c2.74.82,6.86,8.71,7.19,11.56.92-4.11,2.53-5.61,2.53-5.61C105.7,410.54,104.52,407.56,96.8,408Z" style="fill:#e0e0e0;fill-rule:evenodd"></path><path d="M138.78,427.46a7.35,7.35,0,0,0-5.85-3.9,16.55,16.55,0,0,0-5.2.26,7.11,7.11,0,0,1,5.2,3.77c1.29,2.92-.32,6.48-2.88,8.39s-7.78,1.78-11,2c-1.72.13-3.52.22-5.36.29,3.91,0,7.73-.17,11.2-.43,3.19-.23,8.41-.1,11-2S140.07,430.38,138.78,427.46Z" style="fill:#e0e0e0;fill-rule:evenodd"></path><path d="M138.57,427.48a4.53,4.53,0,0,1,.48,1.67,7.22,7.22,0,0,1-1.34,4.75,7.9,7.9,0,0,1-2.63,2.49,12.58,12.58,0,0,1-4.14,1.19c-1.53.22-3.18.3-4.92.39s-3.58.26-5.51.33c-7.74.36-17,.29-27.19-.2-2.56-.13-5.17-.28-7.85-.47l-4-.33-2-.19a6,6,0,0,1-2.07-.62,5.77,5.77,0,0,1-2.85-3.21,7.92,7.92,0,0,1,0-4.37,9.7,9.7,0,0,1,2-4A9.5,9.5,0,0,1,80,422.3a10.19,10.19,0,0,1,8.19,0l-.37.25a18.22,18.22,0,0,1,1.39-8.2,11.65,11.65,0,0,1,5.34-5.95,9.46,9.46,0,0,1,7.64-.1,8.13,8.13,0,0,1,3.08,2.18,6.23,6.23,0,0,1,1.5,3.37l-.42-.11a11.29,11.29,0,0,1,7.87-4.49,10.61,10.61,0,0,1,8,2.2,11.53,11.53,0,0,1,3.86,6.36,10.85,10.85,0,0,1-.46,6.46l-.16-.2a25,25,0,0,1,6.17-.73,9.12,9.12,0,0,1,4.43,1.25,6.51,6.51,0,0,1,2.1,2,4,4,0,0,1,.45.88s-.15-.31-.52-.84a6.49,6.49,0,0,0-2.11-1.87,9,9,0,0,0-4.36-1.17,25.4,25.4,0,0,0-6.1.79l-.26.06.09-.25a10.55,10.55,0,0,0,.4-6.27,11.23,11.23,0,0,0-3.77-6.14,10.16,10.16,0,0,0-7.68-2.07,10.87,10.87,0,0,0-7.55,4.33l-.35.48-.07-.59a5.85,5.85,0,0,0-1.4-3.11,7.72,7.72,0,0,0-2.91-2,9,9,0,0,0-7.23.1,11.2,11.2,0,0,0-5.09,5.7,17.87,17.87,0,0,0-1.35,8l0,.43-.39-.18a9.61,9.61,0,0,0-7.76,0,9,9,0,0,0-3.42,2.5A9.23,9.23,0,0,0,74.92,429a7.35,7.35,0,0,0,0,4.08,5.35,5.35,0,0,0,2.6,2.93,5.5,5.5,0,0,0,1.89.56l2,.2,4,.33q4,.3,7.83.49c10.21.51,19.43.63,27.15.31,1.94-.06,3.76-.21,5.51-.29s3.38-.15,4.9-.35a12,12,0,0,0,4.06-1.12,7.85,7.85,0,0,0,2.58-2.38,7.26,7.26,0,0,0,1.41-4.63A8.27,8.27,0,0,0,138.57,427.48Z" style="fill:#263238"></path><path d="M73.93,241.07a4.27,4.27,0,0,0-3.4-2.26,12.63,12.63,0,0,0-4.23.39,6.31,6.31,0,0,0-11-6c-.35-3-4.52-4.46-7.17-2.92s-3.73,4.9-3.56,7.95A5.78,5.78,0,0,0,38,239.55a5.65,5.65,0,0,0-1.4,3.85,3.22,3.22,0,0,0,2.92,3.12,181.23,181.23,0,0,0,26.35.6c1.85-.14,4.89-.06,6.37-1.17S74.68,242.77,73.93,241.07Z" style="fill:#fff;fill-rule:evenodd"></path><path d="M63,239.26a15.1,15.1,0,0,1,3.53-.44,6.56,6.56,0,0,0-2.95-7.55,6.35,6.35,0,0,0-4.78-.44,6.22,6.22,0,0,1,1.38.52A6.53,6.53,0,0,1,63,239.26Z" style="fill:#e0e0e0;fill-rule:evenodd"></path><path d="M49.64,229.72c1.6.48,4,5.07,4.18,6.72a6.57,6.57,0,0,1,1.47-3.25C54.82,231.22,54.13,229.49,49.64,229.72Z" style="fill:#e0e0e0;fill-rule:evenodd"></path><path d="M74.05,241.06a4.26,4.26,0,0,0-3.4-2.26,9.6,9.6,0,0,0-3,.15,4.09,4.09,0,0,1,3,2.19c.75,1.7-.19,3.77-1.67,4.87s-4.53,1-6.38,1.17c-1,.08-2,.13-3.12.17,2.28,0,4.5-.1,6.52-.25,1.85-.13,4.89-.06,6.38-1.17S74.8,242.76,74.05,241.06Z" style="fill:#e0e0e0;fill-rule:evenodd"></path><path d="M73.93,241.07a2.57,2.57,0,0,1,.3,1,4.19,4.19,0,0,1-.77,2.79,4.64,4.64,0,0,1-1.54,1.47,7.2,7.2,0,0,1-2.42.71c-.89.13-1.86.17-2.87.23s-2.08.16-3.2.2c-4.5.22-9.87.19-15.82-.09-1.48-.07-3-.16-4.56-.27l-2.36-.19-1.19-.11a3.63,3.63,0,0,1-1.24-.37,3.51,3.51,0,0,1-1.72-1.93,4.79,4.79,0,0,1,0-2.6,5.56,5.56,0,0,1,3.3-3.92,6,6,0,0,1,4.85,0l-.37.24a10.75,10.75,0,0,1,.82-4.81,6.91,6.91,0,0,1,3.16-3.51,5.6,5.6,0,0,1,4.52-.06,4.21,4.21,0,0,1,2.72,3.31l-.41-.11a6.66,6.66,0,0,1,4.64-2.64,6.23,6.23,0,0,1,4.7,1.3,6.78,6.78,0,0,1,2.26,3.75,6.26,6.26,0,0,1-.28,3.79l-.16-.2a14.61,14.61,0,0,1,3.6-.41,5.33,5.33,0,0,1,2.59.75,3.69,3.69,0,0,1,1.22,1.16,2.25,2.25,0,0,1,.25.52,4.11,4.11,0,0,0-1.55-1.55,5.35,5.35,0,0,0-2.52-.65,14.5,14.5,0,0,0-3.53.47l-.26.06.09-.26a6,6,0,0,0,.22-3.61A6.4,6.4,0,0,0,64.21,232a5.81,5.81,0,0,0-4.41-1.18,6.24,6.24,0,0,0-4.32,2.48l-.35.49-.07-.6a3.74,3.74,0,0,0-2.44-2.91,5.14,5.14,0,0,0-4.12.06,6.38,6.38,0,0,0-2.91,3.26,10.3,10.3,0,0,0-.77,4.59l0,.43-.39-.18a5.48,5.48,0,0,0-4.42,0A5.13,5.13,0,0,0,37,242a4.21,4.21,0,0,0,0,2.31,3,3,0,0,0,2.52,2l1.19.12,2.35.19c1.55.12,3.06.21,4.55.29,5.93.3,11.29.38,15.77.2,1.13,0,2.19-.12,3.21-.16s2-.08,2.84-.19a6.82,6.82,0,0,0,2.34-.64,4.62,4.62,0,0,0,1.5-1.36,4.25,4.25,0,0,0,.83-2.67A6.43,6.43,0,0,0,73.93,241.07Z" style="fill:#263238"></path><path d="M482.22,258.77a4.25,4.25,0,0,0-3.4-2.27,12.65,12.65,0,0,0-4.23.39,6.31,6.31,0,0,0-11-6c-.35-3-4.53-4.46-7.18-2.92s-3.72,4.9-3.56,7.95a5.78,5.78,0,0,0-6.55,1.33,5.72,5.72,0,0,0-1.4,3.85,3.22,3.22,0,0,0,2.92,3.12,179.82,179.82,0,0,0,26.35.6c1.85-.14,4.89-.06,6.38-1.17S483,260.46,482.22,258.77Z" style="fill:#fff;fill-rule:evenodd"></path><path d="M471.32,257a15,15,0,0,1,3.52-.44,6.55,6.55,0,0,0-2.95-7.55,6.32,6.32,0,0,0-4.77-.44,6.14,6.14,0,0,1,1.37.52A6.53,6.53,0,0,1,471.32,257Z" style="fill:#e0e0e0;fill-rule:evenodd"></path><path d="M457.93,247.41c1.6.48,4,5.07,4.19,6.73a6.47,6.47,0,0,1,1.47-3.26C463.11,248.91,462.42,247.18,457.93,247.41Z" style="fill:#e0e0e0;fill-rule:evenodd"></path><path d="M482.34,258.75a4.26,4.26,0,0,0-3.4-2.26,9.61,9.61,0,0,0-3,.15,4.14,4.14,0,0,1,3,2.19c.75,1.7-.18,3.77-1.67,4.87s-4.53,1-6.38,1.17c-1,.08-2,.13-3.11.17,2.27,0,4.49-.1,6.51-.24,1.85-.14,4.89-.07,6.38-1.18S483.09,260.45,482.34,258.75Z" style="fill:#e0e0e0;fill-rule:evenodd"></path><path d="M482.22,258.77a2.26,2.26,0,0,1,.3,1,4.22,4.22,0,0,1-.76,2.79,4.74,4.74,0,0,1-1.54,1.47,7.33,7.33,0,0,1-2.43.71c-.89.13-1.85.18-2.86.23s-2.08.16-3.21.2c-4.5.22-9.87.19-15.81-.09-1.49-.07-3-.16-4.57-.27l-2.35-.19-1.2-.11a3.63,3.63,0,0,1-1.24-.37,3.46,3.46,0,0,1-1.71-1.93,4.69,4.69,0,0,1,0-2.6,5.82,5.82,0,0,1,1.16-2.35,5.75,5.75,0,0,1,2.14-1.57,6,6,0,0,1,4.85,0l-.37.25a10.91,10.91,0,0,1,.82-4.82,7,7,0,0,1,3.16-3.51,5.63,5.63,0,0,1,4.53-.06,4.24,4.24,0,0,1,2.72,3.31l-.42-.11A6.66,6.66,0,0,1,468,248.1a6.19,6.19,0,0,1,4.7,1.31,6.8,6.8,0,0,1,2.27,3.74,6.42,6.42,0,0,1-.28,3.79l-.17-.2a14.64,14.64,0,0,1,3.61-.41,5.33,5.33,0,0,1,2.59.75,3.74,3.74,0,0,1,1.21,1.16,2.18,2.18,0,0,1,.25.53,3.93,3.93,0,0,0-1.54-1.56,5.35,5.35,0,0,0-2.52-.65,14.57,14.57,0,0,0-3.54.47l-.26.06.1-.26a6,6,0,0,0,.21-3.6,6.39,6.39,0,0,0-2.17-3.52,5.79,5.79,0,0,0-4.4-1.18,6.2,6.2,0,0,0-4.32,2.48l-.36.49-.06-.6a3.73,3.73,0,0,0-2.45-2.91,5.14,5.14,0,0,0-4.12.06,6.42,6.42,0,0,0-2.91,3.26,10.44,10.44,0,0,0-.77,4.59l0,.43-.39-.18a5.52,5.52,0,0,0-4.42,0,5.09,5.09,0,0,0-3,3.56,4.21,4.21,0,0,0,0,2.31,3,3,0,0,0,1.46,1.65,3.08,3.08,0,0,0,1.06.31l1.19.12,2.35.19c1.55.12,3.07.21,4.55.29,5.93.3,11.29.38,15.78.2,1.12,0,2.18-.11,3.2-.16s2-.08,2.84-.19a6.87,6.87,0,0,0,2.35-.64,4.59,4.59,0,0,0,1.49-1.36,4.25,4.25,0,0,0,.83-2.67A6.07,6.07,0,0,0,482.22,258.77Z" style="fill:#263238"></path><path d="M164.74,277.61a5.87,5.87,0,0,0-4.69-3.13,17.23,17.23,0,0,0-5.84.53,8.72,8.72,0,0,0-15.2-8.3c-.49-4.2-6.26-6.15-9.91-4s-5.15,6.77-4.92,11a8,8,0,0,0-9.06,1.84,7.89,7.89,0,0,0-1.93,5.31,4.45,4.45,0,0,0,4,4.32c7,.74,24.27,1.72,36.4.83,2.56-.19,6.76-.09,8.81-1.62S165.78,280,164.74,277.61Z" style="fill:#fff;fill-rule:evenodd"></path><path d="M149.68,275.1a21.23,21.23,0,0,1,4.87-.61,9,9,0,0,0-4.07-10.42,8.79,8.79,0,0,0-6.6-.62,7.7,7.7,0,0,1,1.9.73A9,9,0,0,1,149.68,275.1Z" style="fill:#e0e0e0;fill-rule:evenodd"></path><path d="M131.2,261.93c2.2.66,5.51,7,5.77,9.28.74-3.3,2-4.5,2-4.5C138.35,264,137.4,261.61,131.2,261.93Z" style="fill:#e0e0e0;fill-rule:evenodd"></path><path d="M164.91,277.59a5.87,5.87,0,0,0-4.69-3.13,13.37,13.37,0,0,0-4.18.21,5.73,5.73,0,0,1,4.18,3c1,2.34-.26,5.2-2.31,6.73s-6.26,1.43-8.81,1.62c-1.38.1-2.82.17-4.31.23,3.15,0,6.21-.14,9-.35,2.56-.18,6.76-.08,8.81-1.61S166,279.93,164.91,277.59Z" style="fill:#e0e0e0;fill-rule:evenodd"></path><path d="M164.74,277.61a3.3,3.3,0,0,1,.4,1.34,5.81,5.81,0,0,1-1.07,3.82,6.43,6.43,0,0,1-2.12,2,9.74,9.74,0,0,1-3.33,1c-1.23.18-2.56.25-4,.32s-2.88.21-4.43.27c-6.21.3-13.63.24-21.84-.15-2.05-.1-4.15-.22-6.3-.38l-3.25-.26-1.65-.15a4.81,4.81,0,0,1-4-3.11,6.45,6.45,0,0,1,0-3.54,7.88,7.88,0,0,1,1.58-3.2,7.74,7.74,0,0,1,2.92-2.14,8.2,8.2,0,0,1,6.62,0l-.37.25a14.82,14.82,0,0,1,1.12-6.61,9.46,9.46,0,0,1,4.31-4.8,7.69,7.69,0,0,1,6.18-.08A6.69,6.69,0,0,1,138,264a5.15,5.15,0,0,1,1.22,2.73l-.42-.1a9.11,9.11,0,0,1,6.35-3.62,8.56,8.56,0,0,1,6.44,1.77,9.39,9.39,0,0,1,3.11,5.13,8.75,8.75,0,0,1-.38,5.21l-.16-.2a20,20,0,0,1,5-.58,7.4,7.4,0,0,1,3.57,1,5.07,5.07,0,0,1,1.68,1.59,3,3,0,0,1,.35.72s-.12-.25-.42-.67a5.16,5.16,0,0,0-1.69-1.5,7.3,7.3,0,0,0-3.5-.93,20.87,20.87,0,0,0-4.89.64l-.27.06.1-.25a8.38,8.38,0,0,0,.31-5,8.9,8.9,0,0,0-3-4.9,8.15,8.15,0,0,0-6.14-1.66,8.7,8.7,0,0,0-6,3.46l-.36.5-.06-.6a5.26,5.26,0,0,0-3.44-4.1,7.12,7.12,0,0,0-5.77.08,9,9,0,0,0-4.06,4.55,14.32,14.32,0,0,0-1.07,6.38l0,.43-.39-.18a7.71,7.71,0,0,0-6.19,0,7,7,0,0,0-2.73,2,7.41,7.41,0,0,0-1.48,3,5.94,5.94,0,0,0,0,3.24,4.32,4.32,0,0,0,3.57,2.77l1.64.16,3.25.27q3.21.22,6.29.39c8.19.42,15.6.51,21.8.26,1.55,0,3-.17,4.42-.23s2.72-.11,3.93-.27a9.58,9.58,0,0,0,3.25-.9,6.17,6.17,0,0,0,2.07-1.9A5.84,5.84,0,0,0,165,279,6.22,6.22,0,0,0,164.74,277.61Z" style="fill:#263238"></path></g><g id="freepik--Moon--inject-2"><path d="M459.6,385.2c9.53,16.75,6.06,39.07-14.11,50.55A37,37,0,1,1,459.6,385.2Z" style="fill:#e0e0e0"></path><path d="M459.6,385.2s-.13-.16-.35-.5l-1-1.47-.71-1.09c-.28-.39-.62-.79-1-1.23l-1.15-1.43c-.39-.52-.92-1-1.42-1.51a35.2,35.2,0,0,0-8.48-6.49,37,37,0,0,0-13.38-4.41l-2-.24c-.67-.05-1.35,0-2-.07s-1.38-.07-2.08,0l-2.12.15-1.08.08-1.07.18-2.19.37c-.73.14-1.44.38-2.18.57l-1.1.3-.55.15-.54.21a33.27,33.27,0,0,0-4.33,1.84c-.71.37-1.44.7-2.14,1.1L406.71,373c-.34.23-.7.44-1,.68l-1,.78c-.65.52-1.33,1-2,1.57a40.36,40.36,0,0,0-3.57,3.7A39.08,39.08,0,0,0,396,384c-.47.75-.88,1.55-1.32,2.33-.21.4-.46.77-.63,1.19l-.54,1.25a38.59,38.59,0,0,0-1.87,5.16c-.21.91-.41,1.81-.61,2.73l-.15.68-.09.7-.18,1.4-.17,1.41,0,1.42,0,1.43,0,.72.05.72q.1,1.42.21,2.88l.48,2.87a39.22,39.22,0,0,0,4.15,11,36.85,36.85,0,0,0,17.1,15.33,39.61,39.61,0,0,0,5.28,1.89l2.7.61a10,10,0,0,0,1.35.22l1.35.17a35.12,35.12,0,0,0,10.61-.33l1.28-.21c.42-.09.83-.22,1.24-.33l2.46-.67,2.35-.9c.39-.16.79-.29,1.16-.46l1.11-.56,2.18-1.1,2-1.29,1-.64.5-.32.46-.36,1.84-1.44.91-.71L453,430l1.63-1.56c.55-.51,1-1.12,1.46-1.66s1-1.1,1.39-1.67.81-1.18,1.2-1.76a14.8,14.8,0,0,0,1.12-1.75q.48-.92,1-1.8c.16-.3.34-.58.47-.89l.37-.91a35.41,35.41,0,0,0,2.89-13.78,41.67,41.67,0,0,0-.39-5.8,41.16,41.16,0,0,0-1.08-4.78c-.21-.7-.39-1.37-.59-2s-.46-1.18-.67-1.7-.4-1-.57-1.47-.41-.81-.58-1.16l-.78-1.58c-.17-.36-.25-.55-.25-.55s.1.17.29.53.47.88.82,1.56c.18.35.39.73.6,1.16s.38.93.59,1.46.45,1.09.7,1.7.39,1.29.61,2a40,40,0,0,1,1.12,4.79,39,39,0,0,1,.42,5.83,35.38,35.38,0,0,1-2.84,13.9l-.38.93c-.13.31-.31.59-.46.89l-1,1.82a15.14,15.14,0,0,1-1.12,1.78c-.4.58-.8,1.18-1.2,1.78s-.93,1.11-1.4,1.68-.92,1.17-1.47,1.68l-1.64,1.58-.83.8-.91.72-1.86,1.46-.47.37-.5.32-1,.64-2.06,1.31-2.2,1.12-1.12.56c-.38.18-.78.31-1.17.47l-2.37.91-2.49.69c-.42.11-.83.24-1.26.33l-1.29.22a35.57,35.57,0,0,1-10.73.35l-1.37-.17a10.73,10.73,0,0,1-1.36-.23l-2.73-.61a38.59,38.59,0,0,1-5.34-1.9,37.31,37.31,0,0,1-17.31-15.51,39.89,39.89,0,0,1-4.2-11.18l-.48-2.9-.21-2.92-.05-.72,0-.73,0-1.44,0-1.44.18-1.43.17-1.41.09-.71.16-.69c.2-.93.41-1.85.61-2.76a42.58,42.58,0,0,1,1.9-5.22l.55-1.26c.17-.42.43-.81.64-1.21.45-.79.86-1.59,1.34-2.35a37.79,37.79,0,0,1,3.17-4.27,39.74,39.74,0,0,1,3.61-3.72c.65-.56,1.33-1.07,2-1.6l1-.78c.33-.24.7-.45,1-.68l2.09-1.33c.71-.4,1.45-.74,2.16-1.11a34.5,34.5,0,0,1,4.38-1.84l.54-.21.56-.16,1.12-.3c.74-.18,1.46-.43,2.2-.56l2.2-.37,1.09-.18,1.09-.08,2.14-.14a21,21,0,0,1,2.1,0c.69,0,1.38,0,2.06.07l2,.25a37.13,37.13,0,0,1,13.46,4.5,35.17,35.17,0,0,1,8.48,6.59,19.67,19.67,0,0,1,1.42,1.53l1.13,1.45c.35.45.69.85,1,1.24l.7,1.11.93,1.5C459.5,385,459.6,385.2,459.6,385.2Z" style="fill:#263238"></path><g style="opacity:0.1"><path d="M439,381.32l-1-.8a1,1,0,0,1-.29-.3,1.87,1.87,0,0,1-.09-.46,1.16,1.16,0,0,0-1.26-.94c-.22-.57-.27-1.18-.47-1.76a1.77,1.77,0,0,0-1.22-1.24,3.28,3.28,0,0,1-.7-.1,3.12,3.12,0,0,1-.61-.49c-.7-.53-1.91-.24-2.36-1a5.52,5.52,0,0,0-.26-.55,1.36,1.36,0,0,0-.65-.39,3.85,3.85,0,0,0-2.71-.28,4.75,4.75,0,0,1-.91.38c-.37.06-.76-.08-1.1.07s-.37.28-.59.29a.91.91,0,0,1-.44-.16,4.56,4.56,0,0,0-2.82-.63,1.78,1.78,0,0,1,.36-.19c.1,0,.2,0,.3-.08a1.24,1.24,0,0,0,.63-.4l-.06-.11c-.13.09-.31,0-.43-.09a.72.72,0,0,0-.41-.22,2,2,0,0,0-.23.06c-.33.08-.63-.2-1-.21a1.13,1.13,0,0,0-.32.06,3.86,3.86,0,0,0-1.3.72.43.43,0,0,0-.11.12.41.41,0,0,0,0,.22.83.83,0,0,0,.44.6,1.32,1.32,0,0,0,.81.06l.08,0a1.57,1.57,0,0,0-.43.53,1.16,1.16,0,0,0,.1,1.23c-.32.21-.67-.29-1.05-.33a1,1,0,0,0-.71.42l-.78.87-.91-.26a.78.78,0,0,0-.45,0,1.43,1.43,0,0,0-.36.29.8.8,0,0,1-1.11-.12l-.07-.12a.56.56,0,0,0,.28-.31.31.31,0,0,0-.33-.19.72.72,0,0,1,.31-.48c.22-.15.53-.21.64-.45l.49-.32a.41.41,0,0,0,.15-.14.14.14,0,0,0,0-.18c.3-.32-.07-1.09.26-1.48a.79.79,0,0,1,.93-.07,2.64,2.64,0,0,0,.92.38c.5,0,.91-.36,1.3-.69a1.34,1.34,0,0,1,1.36-.37c-.14-.05.26-.68.5-.66s.15.23.26.29c.68.37,1.55-.12,2.29-.2a9.32,9.32,0,0,1,2.84.11c.06-.25-.21-.43-.45-.53a12.43,12.43,0,0,0-2.56-.92,7.75,7.75,0,0,0-4.72.57,2.48,2.48,0,0,1-1.14.32c-.2,0-.39-.07-.58-.07a1.37,1.37,0,0,0-.91.43,1.6,1.6,0,0,0-.81.25,3.62,3.62,0,0,0-.32.22c.07.09.21,0,.31,0a2,2,0,0,1,.58-.2l-.12.14c-.24.27-.58.2-.94.25a1.57,1.57,0,0,0-.37.05.82.82,0,0,0-.33.23l.35-.41c.08-.1.17-.21.15-.33a1.15,1.15,0,0,0,.9-.49.55.55,0,0,1,.12-.14c.11-.05.24,0,.34,0s.13-.13.18-.22a1.41,1.41,0,0,1,.59-.45l1.09-.56-.43-.07-.31,0h0a8.56,8.56,0,0,0-3.47,1l-.28.13-.28.07a8.92,8.92,0,0,0-1.73.69l-3.13,1.52c-.11.05-.24.15-.21.27l.65.07a3.43,3.43,0,0,0-1.32.63,1,1,0,0,1-.4.24,2.45,2.45,0,0,0-.27,0,1,1,0,0,0-.34.18l-3.24,2.38a11.61,11.61,0,0,0-1.74,1.46,17.13,17.13,0,0,0-1.79,1.93c-.39.59-.63,1.27-1.05,1.84l.91-.71a3.25,3.25,0,0,0,.39-.35c.09-.11.17-.24.25-.36a8.09,8.09,0,0,1,.71-.84,1.58,1.58,0,0,1,.38-.35c.1-.06.2-.1.29-.16s.2-.2.31-.3a.39.39,0,0,1,.38-.11,5.5,5.5,0,0,1-.36.57.41.41,0,0,1-.16.16.86.86,0,0,1-.23.06c-.34.07-.53.43-.66.75l.41,0a.25.25,0,0,1,0,.22,8.87,8.87,0,0,1-1.19,1.93,2.78,2.78,0,0,0,.58-1.42,5.64,5.64,0,0,0-1.24,1.2,1.53,1.53,0,0,1-.92.58.89.89,0,0,1,.15-.45c-.38,0-.63.37-.8.71l-1,2.05-.67,1.32c-.17.34-.34.68-.52,1a.49.49,0,0,0-.06.42,8.71,8.71,0,0,0,1.32-1.64,2.1,2.1,0,0,1,.22-.3c.09-.09.2-.16.3-.25.38-.34.54-.88,1-1.16,0,.41-.39.7-.66,1a2.91,2.91,0,0,0-.63,1.09,1.82,1.82,0,0,1-.14.39c-.07.12-.18.21-.25.33a1.4,1.4,0,0,0-.1.86.09.09,0,0,0,0,.05s.08,0,.12,0l.79-.5a1.72,1.72,0,0,0,.09.71.81.81,0,0,1-.09.7,2.45,2.45,0,0,0-.81,1.53,1.81,1.81,0,0,1-.46,1.36c-.08.07-.18.13-.21.23a.63.63,0,0,0,0,.3c.08.38-.24.71-.47,1a.71.71,0,0,0-.15.3,1,1,0,0,0,0,.29,1.31,1.31,0,0,1-.14.67l.51.29a.65.65,0,0,1,.22.18,1.85,1.85,0,0,1,.13.29c.08.15.23.25.27.41a1,1,0,0,1,0,.24,2.14,2.14,0,0,0,.27,1.24,1.69,1.69,0,0,1,.17.36c.07.29-.12.61,0,.89-.1,0,0,.19,0,.27a.51.51,0,0,0,.3.09.36.36,0,0,1,.28.12c.12.16,0,.36-.1.55a.55.55,0,0,0,.13.53c.08.07.19.14.17.24s-.16.16-.27.21c-.31.16-.3.61-.16.93a2.5,2.5,0,0,1,.36,1,.77.77,0,0,1,.64.51c0,.09.05.2.14.23s.21-.07.25-.18c.14-.38,0-.85.22-1.19a3.81,3.81,0,0,1,.39-.42.5.5,0,0,0,.13-.51c-.05-.1-.15-.17-.21-.27s0-.26.09-.27a.88.88,0,0,1,.33.47h.43v.68a.78.78,0,0,0-.28.85.42.42,0,0,0,.18.25c.07,0,.14,0,.21.06.37.14.23.86.61.93.16,0,.31-.08.47-.07s.28.09.35,0,0-.16,0-.24a1.33,1.33,0,0,1,0-.79,3.78,3.78,0,0,1-.27-1.05l.11-.06a1.59,1.59,0,0,1,.47.53,3.89,3.89,0,0,0,.16.44.33.33,0,0,0,.38.18.38.38,0,0,0,.17-.37,1.56,1.56,0,0,1,0-.43c.06-.28.37-.42.64-.52,0,.1-.1.17-.18.23a.68.68,0,0,0-.16.64,1.76,1.76,0,0,0,.36,1,.82.82,0,0,0,1,.25c.39-.2.46-.73.46-1.17.13-.07.31-.11.38,0s0,.19,0,.29.23.29.25.47a.53.53,0,0,1-.1.29c-.15.23-.25.6,0,.75l.21.07a.85.85,0,0,1,.58.79.27.27,0,0,1,0,.54.28.28,0,0,0-.16.05c-.09.08,0,.26-.07.34s-.07,0-.11.05c-.2.07-.17.35-.15.56a1.43,1.43,0,0,1-.55,1.26.82.82,0,0,1-.95.08,2.18,2.18,0,0,1-.3-.38.42.42,0,0,0-.43-.16.45.45,0,0,0-.16.12,2,2,0,0,0-.71,1,1.75,1.75,0,0,1-.09.41,2.64,2.64,0,0,1-.35.4.78.78,0,0,0-.18.61c.12.15-.06.34-.14.51s-.2.32-.27.49a1.71,1.71,0,0,0,.12,1.15,3,3,0,0,0,.76,1.34,2.35,2.35,0,0,0,.32.23,3.22,3.22,0,0,1,1.15,1.11c.27.07.58-.16.82,0a.54.54,0,0,1,.19.25l.39.77a1.34,1.34,0,0,0,.4.54.46.46,0,0,0,.62-.07c.15-.24,0-.56.05-.82s.69-.45.74-.82c0-.16-.06-.35.06-.46a.45.45,0,0,1,.17-.08.47.47,0,0,0,.26-.54c.46,0,1,0,1.26.39,0,.08.14.2.22.14a4.57,4.57,0,0,1,0-1.52,1.19,1.19,0,0,0,0-.42c-.09-.41-.68-.5-.87-.87s.19-1-.11-1.43c-.19-.23-.57-.27-.71-.54-.05-.09-.05-.2-.11-.28a1,1,0,0,0-.26-.19,1.18,1.18,0,0,1-.34-1.12,2.79,2.79,0,0,0,0-1.22,1.6,1.6,0,0,1-.14-.42.49.49,0,0,1,.47-.53.46.46,0,0,1,.43.54,1.32,1.32,0,0,1-.3.44.45.45,0,0,0-.09.5.36.36,0,0,1,.16.61c-.07,0-.15.07-.21.12a.44.44,0,0,0,0,.57,6,6,0,0,0,.42.46.51.51,0,0,0,.23.23.32.32,0,0,0,.17,0l.47,0a.47.47,0,0,0,.17,0,.59.59,0,0,0,.24-.17,2.78,2.78,0,0,1,.87-.5.66.66,0,0,1,.33-.09c.28,0,.44.29.63.5a2.76,2.76,0,0,0,1,.62,3.14,3.14,0,0,0,.09-2,5.05,5.05,0,0,0-1-1.25,1.55,1.55,0,0,1-.44-1.41l.26-.14a1.52,1.52,0,0,1,.82.87c.1.3.1.62.17.93a2.39,2.39,0,0,0,.67,1.2c0-.36,0-.72,0-1.08a.37.37,0,0,1,.08-.29.36.36,0,0,1,.29-.05,3.87,3.87,0,0,1,.88.2.55.55,0,0,1,.23.14.59.59,0,0,1,.11.32c.05.44.05,1-.32,1.21s-.68.13-.87.39-.11.45-.27.59-.24.11-.3.21,0,.37,0,.56-.14.23-.09.35.09.11.15.16c.26.23.2.64.12,1l-.19.83a2.41,2.41,0,0,0-.44-1.6,1.79,1.79,0,0,1-.9-.15.65.65,0,0,0-.9.88,1.92,1.92,0,0,1,.18.74c0,.31-.23.64-.06.91l.37.16c.2.08.44.31.29.47s-.47.08-.45.27a.24.24,0,0,0,.07.12c.29.3.61.69.47,1.07a.8.8,0,0,1,.62.18,4,4,0,0,1,1.19,1.26c.09.15.17.32.27.47s.27-.28.24-.49l-.11-1a4.34,4.34,0,0,0-.13-.72c-.1-.33-.28-.63-.39-1a1.2,1.2,0,0,1,0-1,1.67,1.67,0,0,1,.77,1.16c0,.17,0,.34.05.51.08.53.43,1,.5,1.52a1.37,1.37,0,0,0,.1.54.91.91,0,0,0,.24.24l1,.79c.09.07.15.21.25.17l-.4-1.36.84.71a.77.77,0,0,1,.13-.63A.5.5,0,0,1,416,416a.37.37,0,0,1,.12.56,1.37,1.37,0,0,1,1.59-.15,1.11,1.11,0,0,0,.39.2c.27,0,.54-.22.78-.11s.29.58.57.55.29-.21.44-.17l.06.4c.43-.05,1-.18,1-.61a1.57,1.57,0,0,1,0-.23.59.59,0,0,1,.22-.25,1.9,1.9,0,0,0,.73-1,1,1,0,0,0-.51-1.09c-.11-.09,0-.26.11-.35s.24-.21.18-.34-.13-.11-.19-.17.07-.48-.06-.66-.18-.1-.27-.16a.56.56,0,0,1-.07-.8,1.63,1.63,0,0,1,.77-.46l.83-.3c.22-.08.47-.21.48-.45s-.12-.37,0-.47.19,0,.28,0,.25-.35.24-.58l0-.5a.5.5,0,0,1,0-.21c0-.13.18-.2.29-.29s.21-.25.13-.36l-1.13.05a.91.91,0,0,1-.49-.08.31.31,0,0,1-.12-.42l-.27-.09c0-.21,0-.43,0-.64a.32.32,0,0,1,0-.17.47.47,0,0,1,.14-.14l.54-.35a.45.45,0,0,0,.25.49c.16,0,.19-.24.12-.39s-.21-.3-.14-.45a1.21,1.21,0,0,1,.1-.14c.14-.27-.27-.56-.19-.85l-.92-.24a2.43,2.43,0,0,0-.24-.32,12.62,12.62,0,0,1-2.7.3H419a2.9,2.9,0,0,0,0,.72l.44-.37a3.93,3.93,0,0,0,.15,1.36.4.4,0,0,1,0,.34c-.06.1-.19.13-.26.21-.23.26.21.67.05,1-.34,0-.62-.47-.92-.31-.07,0-.12.11-.2.13s-.31-.16-.3-.34.12-.34.14-.51a2.32,2.32,0,0,0-.17-.76,5.84,5.84,0,0,0-.11-.73c-.09-.23-.37-.42-.58-.3a.94.94,0,0,0-.22-.59,12.45,12.45,0,0,1-5.32-2.32.2.2,0,0,0-.07.06,1.14,1.14,0,0,0-.19.84c0,.3-.09.66-.38.74-.25-.19-.2-.62-.46-.8s-.28-.1-.4-.19a.82.82,0,0,1-.25-.63,1.26,1.26,0,0,1,.25-1.08.67.67,0,0,1,.16-.12c-2.22-2.24,8.83-1,8.83-4.36,0-2.36-.55-3.53-1-4.05a10.09,10.09,0,0,0,3.19.38c4.17,0,5.65-11,7.9-7.88a1,1,0,0,1,.89-.28c1,.22,1.08,1.73,1.94,2.26l1.17,0a1,1,0,0,0,1,.5,1.27,1.27,0,0,0,1.15-1,1.08,1.08,0,0,0-.87-1.21,2.84,2.84,0,0,1-.51-.05c-.17-.05-.32-.23-.25-.39.28-.39.92-.24,1.29.06s.68.74,1.15.87c.25-.67,1.29-.84,1.4-1.55a2.26,2.26,0,0,1,.06-.53c.15-.37.74-.42.83-.8a1.43,1.43,0,0,0,0-.5A.89.89,0,0,1,439,381.32Z"></path><path d="M430.91,386.92a1.62,1.62,0,0,0-.51-.25,12,12,0,0,1,.83,2.31,1.42,1.42,0,0,0,.3-.25A2.33,2.33,0,0,0,430.91,386.92Z"></path><path d="M409.41,388.45l.07,0a.15.15,0,0,0,.07,0,.32.32,0,0,1,.25.1c.07.06.16.11.24.06a.19.19,0,0,0,0-.24.68.68,0,0,1-.08-.24.43.43,0,0,1,0-.11.36.36,0,0,0-.18-.36.35.35,0,0,0-.39,0,.51.51,0,0,1,.11.22c0,.09,0,.19-.13.19s-.11,0-.17,0a.21.21,0,0,0-.23.11A1,1,0,0,0,409.41,388.45Z"></path><path d="M431.5,373.71a1.45,1.45,0,0,0,1.88.5l.1-.08c.12-.14,0-.36-.12-.51A2,2,0,0,0,431.5,373.71Z"></path><path d="M428,371.28l.95.12c.16,0,.38.14.29.28-.22-.05-.41.23-.35.45a.74.74,0,0,0,.46.47c1.36.63,3-.43,4.43,0,.76.24,1.33.89,2.08,1.16.31.11.71.23.73.56,0,.09,0,.17,0,.25a.56.56,0,0,0,.51.49,2.83,2.83,0,0,0,.77,0,2.16,2.16,0,0,1,1.49.49c.12.1-.08.24-.19.35s0,.69.37.75a2,2,0,0,0,1-.23,2.71,2.71,0,0,1,1.86-.05,1.85,1.85,0,0,1,1.19,1.38.26.26,0,0,1-.28.36,2,2,0,0,1-1.89-1.16.38.38,0,0,0-.15-.22.23.23,0,0,0-.14,0c-.47,0-.7.65-.47,1.06a2,2,0,0,0,1.15.76,8.18,8.18,0,0,0,1.6.48,8.62,8.62,0,0,0,2,0,21.59,21.59,0,0,0,3.68-.51c-.19-.25-.37-.51-.56-.77a3.56,3.56,0,0,0-1.06-1.09c-.85-.5-2-.27-2.8-.9a3.39,3.39,0,0,0-.65-.55,1.58,1.58,0,0,0-.61-.12,21.73,21.73,0,0,0-3,0,1.91,1.91,0,0,1-1-.09c-.53-.27-.67-.94-1-1.41a3.48,3.48,0,0,0-1.15-.85l-.73-.39a2.09,2.09,0,0,0-.48-.22c-.35-.09-.72,0-1.07-.09a2.84,2.84,0,0,1-.91-.4l-1.68-1a1.41,1.41,0,0,0-.58-.24c-.44,0-.87.32-1.3.2a1.66,1.66,0,0,1-.41-.23,2,2,0,0,0-2.39.29.4.4,0,0,0-.15.3C427.51,371.18,427.78,371.26,428,371.28Z"></path><path d="M459.23,414.47a2.47,2.47,0,0,0-.43-.78,3.87,3.87,0,0,0-.64-.49,4,4,0,0,1-1.49-2.1,1.09,1.09,0,0,0,.48-.81,6.53,6.53,0,0,0,0-2.71c-.26-1-.85-1.76-2-1.45a1.12,1.12,0,0,1-.4.07c-.53,0-1-.82-1.42-.55-.41-.19,0-.87-.28-1.24-.11-.17-.35-.28-.34-.48s.09-.2.13-.31c.11-.27-.15-.59-.44-.64a1.12,1.12,0,0,0-.83.28,4.68,4.68,0,0,1-.73.53,2.4,2.4,0,0,1,.6,2.12,2.22,2.22,0,0,1-1.49-.27.91.91,0,0,0-.29-.19.52.52,0,0,0-.3,0,3.59,3.59,0,0,0-1.38,1.13l-.09.11a3,3,0,0,0-1.16-1.29c-.38.05-.56.53-.49.92s.26.73.3,1.12c-.17.44-.95.07-1.27.42a.57.57,0,0,0,0,.67c.12.21.31.37.43.58l-.91,1.45c-.06-.2-.16-.43-.36-.48s-.47.29-.53.57-.15.64-.43.69c.11.36.71.15,1,.39s.17.52.19.81.31.62.53.45a.49.49,0,0,0,.15-.35,5.51,5.51,0,0,1,1.15-2.64,1.23,1.23,0,0,0,.37-.71c0-.24-.14-.47-.06-.69s.54-.28.85-.4a1.24,1.24,0,0,1-.25.35,1.73,1.73,0,0,0-.46.55c-.09.27.05.59-.09.83s-.21.2-.31.3a1.92,1.92,0,0,0-.45,1.17,4.87,4.87,0,0,0,.09,2.6,7,7,0,0,1,.57,1.28c-.24.19-.59,0-.81-.22s-.49-.48-.79-.39-.43.32-.65.23a1.48,1.48,0,0,0-.74-1.63.36.36,0,0,1-.22-.37c-.34,0-.49.41-.56.73s-.26.74-.59.69a1.92,1.92,0,0,0-.32-.09c-.25,0-.33.37-.55.49s-.42,0-.6.11-.2.24-.33.33c-.3.24-.73,0-1-.21s-.77-.43-1.05-.17-.18.59-.36.84-.76.38-.81.76a.6.6,0,0,0-.85.06,2.13,2.13,0,0,0,.39,1.21,2.32,2.32,0,0,1-.84.57,6.27,6.27,0,0,0,.51,1c-.31.19-.22.73-.52.94s-.41.1-.62.14-.41.29-.28.46a.46.46,0,0,1-.73.24c-.19-.23-.25-.56-.48-.75s-.84-.18-1.25-.35a3.17,3.17,0,0,0-.37-.17c-.42-.1-.8.35-.84.78a5.17,5.17,0,0,0,.2,1.28,1.14,1.14,0,0,1-.36,1.17c-.18.11-.42.14-.56.31-.29.33.08.81.15,1.24a1.78,1.78,0,0,1-.12.88c-.15.47-.44,1.05-.94,1s-.64-.44-.77-.81a1.66,1.66,0,0,0-.6-1c-.62-.35-1.42.35-2.1.12.06.16.11.31.17.46-.32.07-.4.49-.34.81a1.74,1.74,0,0,1,.09,1c-.15.35-.58.48-1,.57a2.73,2.73,0,0,1,.06,1.27c.14.15-.17.53-.38.56a2.58,2.58,0,0,1-.61-.06.9.9,0,0,0-.93.7l1.26.36a1,1,0,0,0,.45.05,1,1,0,0,0,.4-.26,3,3,0,0,1,3.53-.45c.21.15.42.35.68.33a1,1,0,0,0,.44-.23c.43-.35.9-.79.88-1.34a1.31,1.31,0,0,1,0-.44c.08-.32.47-.43.71-.65.57-.53.17-1.47-.26-2.12l1.61-1a.79.79,0,0,1,.46-.17,1.31,1.31,0,0,1,.47.16c.93.41,2-.27,2.67-1a2.13,2.13,0,0,0,2.51.6.8.8,0,0,1,.08,1.09,2.28,2.28,0,0,1-1,.66,2.43,2.43,0,0,1,.53,1.08.84.84,0,0,1-.55,1c.07.14.15.28.23.42a1.73,1.73,0,0,1,1,.06.75.75,0,0,1,.47.78,2.45,2.45,0,0,1-1.8-.08c-.59-.16-1.35-.18-1.69.33a2.83,2.83,0,0,1-1.1,1.29,1,1,0,0,0-.15-1.15c-.44-.25-.94.18-1.22.59s-.7.89-1.18.75c-.17-.05-.32-.18-.5-.17a.7.7,0,0,0-.44.3,1.63,1.63,0,0,0-.51,1.17c0,.43.68.75.94.39-.12-.43-.18-1,.21-1.21s.92.33.82.79a1.38,1.38,0,0,1-1,.88,9,9,0,0,0-1.38.37c-.18.08-.35.34-.17.44a.73.73,0,0,0,.56.08.91.91,0,0,1-1.39,1.06c-.67-.49-.42-1.6-.92-2.27a1.13,1.13,0,0,0-.88-.47,1.9,1.9,0,0,0-1.62,1.2,1.36,1.36,0,0,1-.27.39c-.28.22-.68.09-1,0s-.81,0-.9.31a7.05,7.05,0,0,0,2.74,2,.47.47,0,0,1,.27.18.77.77,0,0,1,0,.37,1.28,1.28,0,0,0,.48.88,1.71,1.71,0,0,0,.82.56c.33.07.74-.14.74-.47,0-.62-1.17-.72-1.15-1.34a1.54,1.54,0,0,1,1.4,0,1.93,1.93,0,0,0,2.8.59c.37-.3.64-.75,1.1-.88.73-.21,1.36.49,2.05.8a4.33,4.33,0,0,0,2.84-.07l2.37-.61-1.33-.17a7,7,0,0,0,2-1,.85.85,0,0,0-.72-.74c1-.2,1.29-1.57,2.17-2.1a6.55,6.55,0,0,0,.87-.46,1.61,1.61,0,0,0,.43-1.29,4,4,0,0,0-1.37-2.89,4,4,0,0,0,2,.31c0,.42.3,1,.65.78a.56.56,0,0,0,.19-.3l.6-1.59a2.89,2.89,0,0,1,.61-1.08c.51-.47,1.34-.53,1.75-1.09-.06.24.27.44.51.37a1.05,1.05,0,0,0,.52-.54c.29-.56.4-1.44-.19-1.67s-1.37.27-1.58-.26a.7.7,0,0,1,0-.43,5.17,5.17,0,0,1,2.87-3.43c.47-.21,1.07-.47,1.07-1a.64.64,0,0,1,.5.75,1.5,1.5,0,0,0,1-.28c-.26-.17-.18-.58,0-.81s.51-.34.74-.54c.64-.58.73-1.81,1.58-2,.65.26.57,1.2.29,1.84s-.59,1.46-.11,2a1.66,1.66,0,0,1,1.07-.93,1.85,1.85,0,0,0-.19,2,3.46,3.46,0,0,1,1.62-1.69l-.12-.61a1.11,1.11,0,0,0,1.21-1A3.34,3.34,0,0,0,459.23,414.47Z"></path><path d="M407.86,426.75c-.28-.2-.61-.39-.7-.72,0-.16,0-.36-.15-.47s-.37-.1-.58-.1a3.32,3.32,0,0,1-1.68-.4,1.63,1.63,0,0,0-.46-.22,1.28,1.28,0,0,0-.55,0,3.4,3.4,0,0,0-2.33,1.91,1.6,1.6,0,0,1-.39.78,1.82,1.82,0,0,0-.32.29.36.36,0,0,0,0,.3,1.54,1.54,0,0,0,1,1c.17.07.38.12.43.29a3.4,3.4,0,0,1,0,.45c0,.38.49.45.76.66s.36.83.68,1.14a2.09,2.09,0,0,0,1,.38l1.05.19a3,3,0,0,0,2.53-.44,2,2,0,0,0,.71-1.35,2.73,2.73,0,0,0-.28-1.18.85.85,0,0,0,.57-.55.79.79,0,0,0-.09-.59A3.47,3.47,0,0,0,407.86,426.75Z"></path><path d="M443.12,435.72a1.42,1.42,0,0,0,1.41-.38.38.38,0,0,0,.13-.24.16.16,0,0,0-.14-.19c-.44.33-1.18.14-1.49.59a.15.15,0,0,0,0,.14A.17.17,0,0,0,443.12,435.72Z"></path><path d="M440.71,436.54a.9.9,0,0,0-.23.08c-.3.13-.64.12-1,.23a2.43,2.43,0,0,0-.54.31l-1,.69,2.1-.45a2,2,0,0,0,.54-.15c.28-.13.5-.35.77-.5l-.53-.17A.65.65,0,0,0,440.71,436.54Z"></path><path d="M445.15,435.94a4.14,4.14,0,0,0-1.25.29.69.69,0,0,0-.57-.18,1.54,1.54,0,0,0-.58.23,4,4,0,0,0-.8.62,3.57,3.57,0,0,0,1.35-.4l.08.15-.53.45a.21.21,0,0,0,.22.16.7.7,0,0,0,.29-.08c.81-.39,1.6-.8,2.37-1.25h-.58Z"></path><path d="M448.29,379.41a.51.51,0,0,0-.44-.33,1.26,1.26,0,0,0-.57.08,7,7,0,0,0-1.57.72,1.54,1.54,0,0,0-.34.28,1.56,1.56,0,0,0-.21,1.11l1.18,0h.32a3.19,3.19,0,0,1,.61.23,1.85,1.85,0,0,0,.81.14.45.45,0,0,0,0-.51,1.37,1.37,0,0,1-.21-.5C447.84,380.17,448.42,379.82,448.29,379.41Z"></path><path d="M446.78,385.54c.28,0,.55.09.82.12a1.24,1.24,0,0,0,.81-.1.6.6,0,0,0,.29-.71.93.93,0,0,0-.49-.42l-.5-.25a.58.58,0,0,1-.28-.23c-.1-.19,0-.42.18-.58s.3-.36.24-.57a.56.56,0,0,0-.21-.27,3.78,3.78,0,0,0-.92-.56,1.21,1.21,0,0,0-.41-.12,1.52,1.52,0,0,0-.54.13l-.83.32a.71.71,0,0,0-.43.32c-.07.17.11.41.27.31.14.35-.25.66-.34,1a1.33,1.33,0,0,0,.12.78,1.39,1.39,0,0,0,.62.86,1.3,1.3,0,0,0,.33.07C445.94,385.67,446.36,385.53,446.78,385.54Z"></path><path d="M452.51,380.42a.67.67,0,0,0,.3.16.24.24,0,0,0,.26-.16.34.34,0,0,0-.08-.23l-.33-.51a1.5,1.5,0,0,0-.33-.42.53.53,0,0,0-.51-.07.79.79,0,0,0,.14.71A2.27,2.27,0,0,0,452.51,380.42Z"></path><path d="M454.74,383.31a2.27,2.27,0,0,1,.48.33,1.38,1.38,0,0,1,.2.33,2.27,2.27,0,0,0,.78.85,1.85,1.85,0,0,0-.05-.7.72.72,0,0,0-.1-.24,1,1,0,0,0-.28-.17,1.41,1.41,0,0,1-.52-.51c-.06-.09-.1-.19-.16-.28-.18-.25-.5-.35-.7-.58a3.88,3.88,0,0,0-.26-.31.32.32,0,0,0-.37-.07l.44.7A2,2,0,0,0,454.74,383.31Z"></path><path d="M452.64,423.83a.37.37,0,0,0-.3-.07.18.18,0,0,0-.09.26,1.7,1.7,0,0,1-.51.08c-.17,0-.36.14-.37.31a1.09,1.09,0,0,1,0,.18c0,.11-.19.15-.21.27a.18.18,0,0,0,.17.18.49.49,0,0,0,.26-.1,1.33,1.33,0,0,1,.51-.27c.19,0,.42.1.4.29a.64.64,0,0,0,.52-.45A.87.87,0,0,0,452.64,423.83Z"></path><path d="M448.85,395.45a2.46,2.46,0,0,0,.12.93c.08.26.15.53.22.79s.16.53.41.61a2.84,2.84,0,0,0,.42.05c.29.07.5.39.8.41s.61-.36.64-.71-.06-.7,0-1a1,1,0,0,1,.82-.86,1.35,1.35,0,0,0,.44-.07A.7.7,0,0,0,453,395a1.83,1.83,0,0,0,0-1c-.11-.3-.38-.53-.45-.84a.53.53,0,0,0-.64.34,1.51,1.51,0,0,0,0,.79c0-.15-.61.29-.65.32a1.35,1.35,0,0,1-1.24.3C449.46,394.8,449,394.66,448.85,395.45Z"></path><path d="M445.32,406.12a.82.82,0,0,0,.27-.52,2.15,2.15,0,0,0-.06-1.23,1.65,1.65,0,0,0-1.79-1,.83.83,0,0,1-.58,0c-.15-.09-.2-.29-.33-.4s-.59-.08-.82.11a2.08,2.08,0,0,1-.74.52.59.59,0,0,0-1.13.27c0,.35.32.61.47.93a1.4,1.4,0,0,1-.08,1.26,2.76,2.76,0,0,1-.91.92.9.9,0,0,0-.27.24.77.77,0,0,0,0,.63c.13.51.29,1,.47,1.52.28-.17.62.14.76.43s.29.66.62.72.71-.26,1-.05c.08.07.13.18.23.22a.36.36,0,0,0,.27,0,1.29,1.29,0,0,0,.46-2,2.38,2.38,0,0,1,1-1,.84.84,0,0,0,.3-.22c.21-.29-.05-.74.16-1S445.1,406.29,445.32,406.12Z"></path></g><g style="opacity:0.1"><path d="M446.6,392.88a5.55,5.55,0,0,0-4.25-4.64,4.06,4.06,0,0,0-4.56,1.9,4.73,4.73,0,0,0,.41,5,5.65,5.65,0,0,0,4.66,2.16,4.11,4.11,0,0,0,3-1.25A4,4,0,0,0,446.6,392.88Z"></path></g></g><g id="freepik--Sun--inject-2"><path d="M141.54,91.13c3.34,5.85-5.22,16.1-3.92,22.36,1.33,6.49,13.18,12.54,12.45,19s-13.64,9.81-16.33,15.78,3.4,17.79-1.06,22.68c-4.3,4.73-16.64-.18-22.5,3.15S102.25,190.53,96,191.82c-6.49,1.34-13.61-9.95-20-10.67S60,189.84,54,187.15s-5.07-15.94-10-20.41c-4.72-4.3-17.9-2.18-21.23-8s5.22-16.1,3.92-22.36c-1.34-6.49-13.18-12.54-12.46-19S28,107.56,30.65,101.59,27.25,83.8,31.71,78.9c4.3-4.72,16.64.19,22.5-3.14S62.14,59.31,68.39,58C74.88,56.68,82,68,88.44,68.69s15.94-8.69,21.91-6,5.07,15.94,10,20.4C125,87.4,138.21,85.28,141.54,91.13Z" style="fill:#77AA51"></path><g style="opacity:0.2"><path d="M141.54,91.13c3.34,5.85-5.22,16.1-3.92,22.36,1.33,6.49,13.18,12.54,12.45,19s-13.64,9.81-16.33,15.78,3.4,17.79-1.06,22.68c-4.3,4.73-16.64-.18-22.5,3.15S102.25,190.53,96,191.82c-6.49,1.34-13.61-9.95-20-10.67S60,189.84,54,187.15s-5.07-15.94-10-20.41c-4.72-4.3-17.9-2.18-21.23-8s5.22-16.1,3.92-22.36c-1.34-6.49-13.18-12.54-12.46-19S28,107.56,30.65,101.59,27.25,83.8,31.71,78.9c4.3-4.72,16.64.19,22.5-3.14S62.14,59.31,68.39,58C74.88,56.68,82,68,88.44,68.69s15.94-8.69,21.91-6,5.07,15.94,10,20.4C125,87.4,138.21,85.28,141.54,91.13Z" style="fill:#fff"></path></g><path d="M126.89,99.57c13.19,23.18,8.38,54.05-19.51,69.93a51.2,51.2,0,0,1-50.67-89C81.28,66.52,112.9,75,126.89,99.57Z" style="fill:#77AA51"></path><path d="M126.89,99.57s-.17-.22-.47-.68l-1.34-2-1-1.51c-.39-.53-.86-1.08-1.35-1.7l-1.58-2a7.62,7.62,0,0,0-.94-1c-.33-.35-.68-.7-1-1.06a48.38,48.38,0,0,0-11.72-9A51.4,51.4,0,0,0,89,74.46l-2.74-.33c-.92-.07-1.87-.06-2.82-.09s-1.91-.11-2.88,0l-2.94.21-1.49.1-1.49.26-3,.51c-1,.19-2,.53-3,.78L67,76.3l-.77.21-.75.29a47.77,47.77,0,0,0-6,2.54c-1,.51-2,1-3,1.53L53.7,82.7c-.47.31-1,.6-1.43.94l-1.35,1.07c-.9.72-1.83,1.41-2.71,2.18A54.31,54.31,0,0,0,43.27,92l-1.16,1.38c-.2.23-.4.46-.58.7l-.52.75-2.08,3c-.65,1-1.21,2.14-1.83,3.22-.28.55-.63,1.08-.87,1.65l-.75,1.73a57.34,57.34,0,0,0-2.59,7.15l-.84,3.77-.21.95-.12,1-.24,1.94-.25,2-.05,2-.06,2,0,1,.07,1c.09,1.33.19,2.66.28,4s.45,2.65.67,4a54.55,54.55,0,0,0,5.75,15.29A53.38,53.38,0,0,0,48.19,163a48.65,48.65,0,0,0,13.36,8.56,54.37,54.37,0,0,0,7.3,2.62l3.73.83a12.08,12.08,0,0,0,1.88.31l1.87.24A48.59,48.59,0,0,0,91,175.13l1.77-.3c.58-.12,1.15-.3,1.73-.45l3.4-.93,3.26-1.25c.53-.21,1.08-.39,1.6-.63l1.53-.77,3-1.53,2.82-1.79,1.39-.88.69-.44.65-.51,2.54-2c.42-.33.85-.65,1.26-1l1.14-1.1,2.25-2.16a10.09,10.09,0,0,0,1-1.13l1-1.16c.64-.78,1.32-1.52,1.92-2.31l1.66-2.43a20.34,20.34,0,0,0,1.54-2.44l1.34-2.48c.21-.42.46-.81.64-1.23s.35-.85.52-1.27a49,49,0,0,0,4-19.07,57,57,0,0,0-.54-8,57.82,57.82,0,0,0-1.5-6.61c-.29-1-.54-1.9-.82-2.76l-.93-2.35c-.28-.73-.55-1.41-.79-2s-.56-1.13-.8-1.61c-.47-1-.84-1.69-1.09-2.19s-.35-.76-.35-.76l.4.73,1.13,2.17c.25.48.54,1,.83,1.6l.82,2c.29.73.61,1.51,1,2.35s.55,1.79.85,2.77a55.14,55.14,0,0,1,1.54,6.62,55.79,55.79,0,0,1,.59,8.07,49.11,49.11,0,0,1-3.94,19.22c-.18.42-.35.85-.53,1.27a13.41,13.41,0,0,1-.64,1.25l-1.34,2.5A19.8,19.8,0,0,1,126,152.6l-1.67,2.46c-.6.79-1.28,1.55-1.93,2.33l-1,1.18a11.25,11.25,0,0,1-1,1.14l-2.26,2.18L117,163c-.41.34-.84.66-1.26,1l-2.56,2-.65.51-.7.44-1.4.9-2.84,1.8-3,1.55L103,172c-.52.24-1.08.42-1.62.64l-3.28,1.26-3.44,1c-.58.15-1.15.33-1.74.46l-1.78.3a48.93,48.93,0,0,1-14.83.48l-1.89-.23a15.19,15.19,0,0,1-1.89-.31l-3.77-.85a54.09,54.09,0,0,1-7.38-2.63,49.31,49.31,0,0,1-13.5-8.64,53.81,53.81,0,0,1-10.42-12.8,54.45,54.45,0,0,1-5.8-15.44c-.23-1.35-.45-2.68-.68-4s-.19-2.69-.28-4l-.07-1,0-1,.06-2,0-2,.25-2,.24-2,.13-1,.21-1c.29-1.28.57-2.55.85-3.81A57.9,57.9,0,0,1,35,104.25l.76-1.74c.25-.59.6-1.11.89-1.67.62-1.09,1.19-2.2,1.84-3.25l2.11-3,.52-.75c.19-.25.39-.47.59-.71l1.18-1.39a54.07,54.07,0,0,1,5-5.15c.88-.77,1.83-1.47,2.74-2.2L52,83.26c.47-.34,1-.63,1.45-.94l2.88-1.84c1-.56,2-1,3-1.54a48.62,48.62,0,0,1,6.05-2.55l.76-.29.77-.21,1.54-.42c1-.25,2-.59,3-.78l3-.51,1.5-.25,1.51-.1,3-.21c1-.08,1.94,0,2.9,0s1.91,0,2.84.1l2.76.34a51.46,51.46,0,0,1,18.61,6.23,48.44,48.44,0,0,1,11.73,9.1c.36.36.7.72,1,1.07a8.14,8.14,0,0,1,.92,1.05l1.58,2c.48.62.94,1.18,1.33,1.72l1,1.52,1.29,2.08Z" style="fill:#263238"></path><path d="M56.84,85.74c.28.35-3.31,3-7.66,8.58a54.09,54.09,0,0,0-6.42,10.49,50.16,50.16,0,0,0-4.2,29.3A53.89,53.89,0,0,0,41.78,146c2.62,6.56,5.31,10.13,4.94,10.39-.13.1-.95-.68-2.19-2.28a40,40,0,0,1-4.44-7.37,48.58,48.58,0,0,1-3.9-12.21,48.56,48.56,0,0,1,4.41-30.75,48.4,48.4,0,0,1,7.17-10.62,40.17,40.17,0,0,1,6.32-5.83C55.74,86.12,56.74,85.61,56.84,85.74Z" style="fill:#fff"></path></g></svg>